SplineFontDB: 3.0
FontName: N-Tempo
FullName: 
FamilyName: N
Weight: 
Copyright: 
UComments: "2011-5-24: Created." 
Version: 0
ItalicAngle: 0
UnderlinePosition: -100
UnderlineWidth: 50
Ascent: 800
Descent: 200
sfntRevision: 0x00000000
LayerCount: 2
Layer: 0 0 "Back"  1
Layer: 1 0 "Zeichenebene"  0
XUID: [1021 201 23757 16427]
FSType: 0
OS2Version: 0
OS2_WeightWidthSlopeOnly: 0
OS2_UseTypoMetrics: 1
CreationTime: 1306259327
ModificationTime: 1409118432
OS2TypoAscent: 0
OS2TypoAOffset: 1
OS2TypoDescent: 0
OS2TypoDOffset: 1
OS2TypoLinegap: 90
OS2WinAscent: 0
OS2WinAOffset: 1
OS2WinDescent: 0
OS2WinDOffset: 1
HheadAscent: 0
HheadAOffset: 1
HheadDescent: 0
HheadDOffset: 1
OS2Vendor: 'PfEd'
MarkAttachClasses: 1
DEI: 91125
Encoding: UnicodeBmp
UnicodeInterp: none
NameList: Adobe Glyph List
DisplaySize: -72
AntiAlias: 1
FitToEm: 1
WinInfo: 24 8 7
BeginPrivate: 0
EndPrivate
BeginChars: 65536 228

StartChar: zero
Encoding: 48 48 0
Width: 128
Flags: HMW
LayerCount: 2
Back
SplineSet
77.3906 -65.2734 m 4
 66.4922 -90.3398 51.8838 -108.887 33.5703 -120.914 c 4
 22.79 -127.993 11.4766 -131.378 -0.371094 -131.067 c 4
 -8.65332 -130.851 -17.1963 -128.828 -26 -125 c 4
 -57.791 -111.177 -78.292 -85.1787 -87.502 -47.0078 c 4
 -91.2334 -31.543 -92.8994 -16.2002 -92.501 -0.979492 c 4
 -91.916 21.3682 -86.8789 43.4531 -77.3906 65.2734 c 4
 -66.4922 90.3398 -51.8838 108.887 -33.5703 120.914 c 4
 -22.79 127.993 -11.4766 131.378 0.371094 131.067 c 4
 8.65332 130.851 17.1963 128.828 26 125 c 4
 57.791 111.177 78.292 85.1787 87.502 47.0078 c 4
 91.2334 31.543 92.8994 16.2002 92.501 0.979492 c 4
 91.916 -21.3682 86.8789 -43.4531 77.3906 -65.2734 c 4
11.3652 88.8359 m 4
 7.39746 90.5615 3.52832 91.4736 -0.241211 91.5723 c 4
 -4.02148 91.6709 -7.70117 90.9521 -11.2812 89.415 c 4
 -18.4316 86.3438 -23.8691 80.5293 -27.5898 71.9707 c 4
 -33.3408 58.7441 -36.6709 34.8135 -37.5771 0.181641 c 4
 -37.6348 -2.00195 -37.6826 -4.22949 -37.7197 -6.49805 c 4
 -38.0674 -55.7803 -30.3848 -84.9277 -14.6748 -93.9395 c 4
 -13.1064 -95.3486 -11.1006 -96.584 -8.65527 -97.6475 c 4
 -5.36719 -99.0771 -2.11523 -99.834 1.10059 -99.9189 c 4
 5.06055 -100.022 8.96582 -99.1064 12.8164 -97.1699 c 4
 19.7939 -93.6611 25.2773 -87.3213 29.2637 -78.1514 c 4
 33.3818 -68.6826 35.8174 -49.5459 36.5713 -20.7412 c 4
 36.791 -12.3486 36.8682 -3.13574 36.8027 6.89746 c 4
 36.5117 51.3682 29.7334 77.5781 16.4688 85.5264 c 4
 15.5137 86.6699 13.8125 87.7725 11.3652 88.8359 c 4
EndSplineSet
Fore
SplineSet
93 0 m 3
 93 -60 60 -131 0 -131 c 3
 -60 -131 -93 -60 -93 0 c 3
 -93 60 -60 131 0 131 c 7
 60 131 93 60 93 0 c 3
38 0 m 3
 38 50 34 100 0 100 c 3
 -34 100 -38 50 -38 0 c 3
 -38 -50 -34 -100 0 -100 c 3
 34 -100 38 -50 38 0 c 3
EndSplineSet
EndChar

StartChar: one
Encoding: 49 49 1
Width: 254
Flags: HMW
LayerCount: 2
Fore
SplineSet
155 98 m 4
 203 98 254 76 254 20 c 0
 254 -27 207 -70 159 -87 c 0
 140 -94 119 -98 99 -98 c 0
 51 -98 0 -76 0 -20 c 0
 0 27 47 70 95 87 c 0
 114 94 135 98 155 98 c 4
31 -24 m 0
 31 -45 48 -54 67 -54 c 0
 87 -54 114 -45 140 -36 c 0
 182 -20 223 -2 223 24 c 0
 223 45 206 54 187 54 c 0
 167 54 140 45 114 36 c 0
 72 20 31 2 31 -24 c 0
EndSplineSet
EndChar

StartChar: two
Encoding: 50 50 2
Width: 284
Flags: HMW
LayerCount: 2
Fore
SplineSet
46 54 m 0
 46 33 63 24 82 24 c 0
 102 24 129 33 155 42 c 0
 197 58 238 76 238 102 c 0
 238 123 221 132 202 132 c 0
 182 132 155 123 129 114 c 0
 87 98 46 80 46 54 c 0
239 605 m 2
 239 623 240 630 255 630 c 0
 268 630 269 622 269 607 c 2
 269 98 l 2
 269 51 222 8 174 -9 c 0
 155 -16 134 -20 114 -20 c 0
 66 -20 15 2 15 58 c 0
 15 105 62 148 110 165 c 0
 129 172 150 176 170 176 c 0
 191 176 200 171 213 171 c 0
 231 171 239 181 239 202 c 2
 239 605 l 2
EndSplineSet
EndChar

StartChar: three
Encoding: 51 51 3
Width: 284
Flags: HMW
LayerCount: 2
Fore
SplineSet
238 676 m 0
 238 697 221 706 202 706 c 0
 182 706 155 697 129 688 c 0
 87 672 46 654 46 628 c 0
 46 607 63 598 82 598 c 0
 102 598 129 607 155 616 c 0
 197 632 238 650 238 676 c 0
45 125 m 2
 45 107 44 100 29 100 c 0
 16 100 15 108 15 123 c 2
 15 632 l 2
 15 679 62 722 110 739 c 0
 129 746 150 750 170 750 c 4
 218 750 269 728 269 672 c 0
 269 625 222 582 174 565 c 0
 155 558 134 554 114 554 c 0
 93 554 84 559 71 559 c 0
 53 559 45 549 45 528 c 2
 45 125 l 2
EndSplineSet
EndChar

StartChar: four
Encoding: 52 52 4
Width: 1000
Flags: HM
LayerCount: 2
Back
SplineSet
215 74 m 2xa0
 215 83 215 91 215 97 c 0xa0
 215 124 212 126 182 126 c 0
 177 126 172 126 166 126 c 3
 141 126 70 125 21 125 c 3
 11 125 10 136 10 141 c 3
 10 143 l 0
 10 152 11 159 30 189 c 0
 78 264 118 320 137 417 c 0
 153 493 156 490 173 492 c 0
 194 493 242 493 272 493 c 2
 276 493 l 2
 295 493 313 491.5 313 477.5 c 3
 313 450.458 278 405 189 317 c 0
 113 242 74 201 74 182 c 3
 74 170 78 168 112 168 c 0
 121 168 132 168 146 168 c 3
 155 168 164 168 171 168 c 0
 198 168 213 170 214 182 c 0
 215 192 215 242 216 259 c 0xc0
 217 277 215 300 229 309 c 0
 301 354 306 362 318 362 c 3
 328 362 331 356 331 337 c 0
 331 313 327 269 327 188 c 3
 327 172 333 170 347 170 c 3
 360 170 376 170 389 170 c 3
 416 170 419 164 419 149 c 3
 419 146 419 144 419 141 c 0
 419 129 416 125 379 125 c 3
 372 125 366 125 361 125 c 0
 334 125 327 122 327 80 c 3
 327 77 327 74 327 72 c 0
 327 35.5 329 36 374 33 c 0
 390 32 391 26 391 19 c 0
 391 0.103516 385.195 0 358 0 c 3
 327 0 286 1 268 1 c 3
 238 1 218 0 188 0 c 3
 155 0 152 1 152 16 c 3
 152 26 154 32 170 33 c 0
 210 36 215 28 215 67 c 2
 215 74 l 2xa0
EndSplineSet
EndChar

StartChar: five
Encoding: 53 53 5
Width: 1000
Flags: HM
LayerCount: 2
Back
SplineSet
68 251 m 7xd3
 98 251 123 238 224 238 c 7xe3
 267 238 302 251 320 251 c 7xd3
 326 251 329 249 329 244 c 7
 329 237 319 221 302 196 c 4
 276 160 239 144 194 144 c 7xe3
 170 144 136 162 92 162 c 7
 72 162 69 152 68 127 c 4xd3
 66 91 64 71 64 59 c 4
 64 45 67 45 72 45 c 4
 73 45 l 7
 96 45 114 76 199 76 c 7
 289 76 360 20 360 -88 c 7
 360 -160 293 -246 160 -246 c 7
 86 -246 10 -208 10 -126 c 7
 10 -86 32 -51 80 -51 c 7
 132 -51 144 -83 144 -118 c 7
 144 -173 94 -148 94 -188 c 7xd9
 94 -214 136 -216 159 -216 c 7
 233 -216 239 -132 239 -78 c 7
 239 -8 212 28 150 28 c 7
 91 28 71 11 59 -12 c 4
 52 -26 44 -25 33 -25 c 7
 27 -25 22 -19 22 -3 c 7xd5
 22 19 31 84 31 197 c 4
 31 207 31 218 31 229 c 4
 31 249 45 251 68 251 c 7xd3
EndSplineSet
EndChar

StartChar: eight
Encoding: 56 56 6
Width: 128
Flags: HMW
LayerCount: 2
Back
SplineSet
29.2637 124.276 m 4
 72.3571 104.182 92.2631 57.4502 92.2631 8.77348 c 4
 92.2631 -17.2818 86.5597 -43.8943 75.6562 -67.2773 c 4
 58.7357 -103.563 31.0896 -130.767 -1.4998 -130.767 c 4
 -10.4234 -130.767 -19.7176 -128.728 -29.2637 -124.276 c 4
 -72.3571 -104.182 -92.2631 -57.4502 -92.2631 -8.77348 c 4
 -92.2631 17.2818 -86.5597 43.8943 -75.6562 67.2773 c 4
 -58.7357 103.563 -31.0896 130.767 1.4998 130.767 c 4
 10.4234 130.767 19.7176 128.728 29.2637 124.276 c 4
EndSplineSet
Fore
SplineSet
93 0 m 7
 93 -60 60 -131 0 -131 c 7
 -60 -131 -93 -60 -93 0 c 7
 -93 60 -60 131 0 131 c 7
 60 131 93 60 93 0 c 7
EndSplineSet
EndChar

StartChar: nine
Encoding: 57 57 7
Width: 250
Flags: HMW
LayerCount: 2
Back
SplineSet
159 101 m 4
 203 101 250 78 250 25 c 4
 250 -20 209 -64 164 -84 c 4
 142 -95 116 -101 91 -101 c 4
 47 -101 0 -78 0 -25 c 4
 0 20 41 64 86 84 c 4
 108 95 134 101 159 101 c 4
EndSplineSet
Fore
SplineSet
159 101 m 0
 203 101 250 78 250 25 c 0
 250 -39 169 -101 91 -101 c 0
 47 -101 0 -78 0 -25 c 0
 0 39 81 101 159 101 c 0
EndSplineSet
EndChar

StartChar: colon
Encoding: 58 58 8
Width: 280
Flags: HMW
LayerCount: 2
Fore
SplineSet
235 605 m 2
 235 623 236 630 251 630 c 0
 264 630 265 622 265 607 c 2
 265 106 l 2
 265 42 184 -20 106 -20 c 0
 62 -20 15 3 15 56 c 0
 15 120 96 182 174 182 c 0
 196 182 203 178 216 178 c 0
 226 178 235 183 235 202 c 2
 235 605 l 2
EndSplineSet
EndChar

StartChar: semicolon
Encoding: 59 59 9
Width: 280
Flags: HMW
LayerCount: 2
Back
SplineSet
254 256 m 4xe8
 354 252 421 199 421 115 c 4
 421 93 411 45 363 29 c 4
 352 26 340 26 326 26 c 4
 273 26 246 65 246 111 c 4
 246 148 282 178 301 185 c 4
 309 189 313 192 313 197 c 4xf0
 313 216 291 227 251 227 c 7
 230 227 224 215 224 193 c 7
 224 136 223 33 223 -32 c 7
 223 -110 226 -148 226 -188 c 4
 226 -209 233 -219 245 -219 c 4
 332 -219 385 -121 390 -45 c 4
 391 -36 399 -31 409 -31 c 4
 431 -31 431 -46 431 -60 c 4
 431 -100 416 -141 390 -178 c 4
 358 -223 329 -248 255 -255 c 4
 240 -256 224 -261 224 -280 c 4
 224 -302 227 -337 227 -337 c 7
 227 -362 219 -362 205 -362 c 7
 188 -362 185 -350 185 -328 c 7
 185 -311 186 -297 186 -281 c 7
 186 -255 168 -251 146 -243 c 4
 59 -213 0 -131 0 -15 c 4
 0 103 51 192 133 232 c 4
 157 244 187 248 187 273 c 7
 187 293 185 320 185 340 c 7
 185 362 197 364 204 364 c 7
 220 364 225 362 225 333 c 7
 225 314 224 305 224 283 c 7
 224 258 237 256 254 256 c 4xe8
176 193 m 31
 164 193 158 186 152 175 c 4
 135 140 133 53 133 -15 c 4
 133 -65 138 -133 155 -174 c 4
 159 -184 169 -196 174 -196 c 7
 182 -196 185 -195 185 -166 c 7
 185 -113 183 -13 183 81 c 7
 183 115 184 148 184 179 c 15
 184 185 182 193 176 193 c 31
EndSplineSet
Fore
SplineSet
45 125 m 2
 45 107 44 100 29 100 c 0
 16 100 15 108 15 123 c 2
 15 624 l 2
 15 688 96 750 174 750 c 4
 218 750 265 727 265 674 c 0
 265 610 184 548 106 548 c 0
 84 548 77 552 64 552 c 0
 54 552 45 547 45 528 c 2
 45 125 l 2
EndSplineSet
EndChar

StartChar: H
Encoding: 72 72 10
Width: 495
Flags: HMW
HStem: 418 216<246.5 319.5>
VStem: 238 31<349 416.018 554.277 633.934> 448 32<143.246 303.543>
LayerCount: 2
Back
SplineSet
238 349 m 5
 238 604 l 6
 238 624 241 634 252 634 c 4
 264 634 266 626 267 614 c 4
 270 544 330 493 351 472 c 4
 401 422 480 361 480 235 c 4
 480 172 458 116 436 86 c 4
 419 62 400 75 413 102 c 4
 424 123 448 162 448 235 c 4
 448 338 344 418 295 418 c 4
 271 418 269 395 269 360 c 6
 269 349 l 5
 238 349 l 5
EndSplineSet
Fore
SplineSet
239 349 m 1
 239 604 l 2
 239 624 241 634 252 634 c 0
 264 634 266 626 267 614 c 0
 270 544 330 493 351 472 c 0
 401 422 480 361 480 235 c 0
 480 172 458 116 436 86 c 0
 419 62 401 74 414 101 c 0
 425 122 449 162 449 235 c 0
 449 346.5 344 418 295 418 c 0
 271 418 269 395 269 360 c 2
 269 349 l 1
 239 349 l 1
EndSplineSet
EndChar

StartChar: J
Encoding: 74 74 11
Width: 495
Flags: W
HStem: 278 21G<228 258> 711 216<235.5 308.5>
VStem: 228 30<278 344.647 847.277 926.883> 430 32<337.902 435.188 524.696 612.011> 438 31<72.9334 235.827>
LayerCount: 2
Back
SplineSet
397.5 482.5 m 21xc8
 404.293 503.715 425.5 513 425.5 560 c 4
 425.5 645.5 333 711 284 711 c 4
 260 711 258 688 258 653 c 6
 258 642 l 5
 228 642 l 5
 228 897 l 6
 228 917 230 927 241 927 c 4
 253 927 255 919 256 907 c 4
 259 837 319 786 340 765 c 4
 390 715 456.5 648.5 456.5 560 c 4
 456.5 494.5 429.72 479.963 415.583 449.176 c 5
 409.645 436.243 397.5 482.5 397.5 482.5 c 21xc8
401.5 297.5 m 17xd8
 408.293 318.715 430.5 330 430.5 375 c 0
 430.5 461 333 529 284 529 c 0
 260 529 258 506 258 471 c 2
 258 460 l 1
 228 460 l 1
 228 715 l 2
 228 735 230 745 241 745 c 0
 253 745 255 737 256 725 c 0
 259 655 319 604 340 583 c 0
 390 533 461.5 461.5 461.5 375 c 0
 461.5 317.5 433.72 294.963 419.583 264.176 c 1
 413.645 251.243 401.5 297.5 401.5 297.5 c 17xd8
228 278 m 1
 228 533 l 2
 228 553 230 563 241 563 c 0
 253 563 255 555 256 543 c 0
 259 473 319 422 340 401 c 0
 390 351 469 290 469 164 c 0
 469 101 447 45 425 15 c 0
 408 -9 390 3 403 30 c 0
 414 51 438 91 438 164 c 0xb4
 438 275.5 333 347 284 347 c 0
 260 347 258 324 258 289 c 2
 258 278 l 1
 228 278 l 1
EndSplineSet
Fore
SplineSet
273 482 m 0xf0
 293 444 326 415 340 401 c 0
 354 387 371 371 388 354 c 0
 416 324 430 338 430 375 c 0
 430 461 333 529 284 529 c 0
 258 529 259 509 273 482 c 0xf0
453 255 m 0
 463 229 469 199 469 164 c 0
 469 101 447 45 425 15 c 0
 408 -9 390 3 403 30 c 0
 414 51 438 91 438 164 c 0xe8
 438 276 333 347 284 347 c 0
 260 347 258 324 258 289 c 2
 258 278 l 1
 228 278 l 1
 228 642 l 1
 228 897 l 2
 228 917 230 927 241 927 c 0
 253 927 255 919 256 907 c 0
 259 837 319 786 340 765 c 0
 390 715 456 648 456 560 c 0
 456 538 454 522 449 510 c 0
 437 473 437 468 447 443 c 0
 456 422 461 399 462 375 c 0
 462 357 459 343 455 330 c 0
 443 294 440 290 453 255 c 0
275 661 m 0
 295 624 326 597 340 583 c 0
 353 570 368 555 382 540 c 0
 406 513 426 518 426 560 c 0
 426 646 333 711 284 711 c 0
 251 711 266 677 275 661 c 0
EndSplineSet
EndChar

StartChar: I
Encoding: 73 73 12
Width: 495
Flags: W
HStem: 278 21G<228 258> 529 216<235.5 308.5>
VStem: 228 30<278 344.647 665.277 744.883> 430.5 31<337.964 432.562> 438 31<73.4976 234.956>
LayerCount: 2
Back
SplineSet
401.5 297.5 m 21xd8
 408.293 318.715 430.5 330 430.5 375 c 4
 430.5 461 333 529 284 529 c 4
 260 529 258 506 258 471 c 6
 258 460 l 5
 228 460 l 5
 228 715 l 6
 228 735 230 745 241 745 c 4
 253 745 255 737 256 725 c 4
 259 655 319 604 340 583 c 4
 390 533 461.5 461.5 461.5 375 c 4
 461.5 317.5 433.72 294.963 419.583 264.176 c 5
 413.645 251.243 401.5 297.5 401.5 297.5 c 21xd8
228 278 m 5
 228 533 l 6
 228 553 230 563 241 563 c 4
 253 563 255 555 256 543 c 4
 259 473 319 422 340 401 c 4
 390 351 469 290 469 164 c 4
 469 101 447 45 425 15 c 4
 408 -9 390 3 403 30 c 4
 414 51 438 91 438 164 c 4xb4
 438 275.5 333 347 284 347 c 4
 260 347 258 324 258 289 c 6
 258 278 l 5
 228 278 l 5
227 289 m 9xea
 227 713 l 2
 227 733 230 743 241 743 c 0
 253 743 255 735 256 723 c 0
 259 653 319 602 340 581 c 0
 390 531 452 471 452 370 c 0xec
 452 348 443 313 443 298 c 0
 443 285 446 274 454 253 c 0
 463 227 469 198 469 164 c 0
 469 101 447 45 425 15 c 0
 419 6 412 2 407 2 c 0
 402 2 398 7 398 15 c 0
 398 19 399 25 402 31 c 0
 413 52 437 91 437 164 c 0
 437 267 333 347 284 347 c 0
 260 347 258 313.5 258 289 c 9
 227 289 l 9xea
276 477 m 0
 302 435 316 425 357 384 c 0
 369 373 390 350 405 350 c 0
 414 350 419 358 419 374 c 0
 419 376 419 380 419 383 c 0
 410 460 330 527 284 527 c 0
 269 527 264 520 264 511 c 0xf4
 264 500 271 485 276 477 c 0
EndSplineSet
Fore
SplineSet
452.944 255.333 m 0xf0
 462.887 229.158 469 199.099 469 164 c 0
 469 101 447 45 425 15 c 0
 408 -9 390 3 403 30 c 0
 414 51 438 91 438 164 c 0xe8
 438 275.5 333 347 284 347 c 0
 260 347 258 324 258 289 c 2
 258 278 l 1
 228 278 l 1
 228 715 l 2
 228 735 230 745 241 745 c 0
 253 745 255 737 256 725 c 0
 259 655 319 604 340 583 c 0
 390 533 461.5 461.5 461.5 375 c 0
 461.5 357.183 458.828 342.723 454.73 330.333 c 0
 442.799 294.255 439.805 289.922 452.944 255.333 c 0xf0
273.069 482.333 m 0
 293.229 443.606 325.679 415.321 340 401 c 0
 354.338 386.662 371.06 371.42 387.62 354 c 0
 415.942 324.209 430.5 337.566 430.5 375 c 0xf0
 430.5 461 333 529 284 529 c 0
 258 529 259.217 508.944 273.069 482.333 c 0
EndSplineSet
EndChar

StartChar: K
Encoding: 75 75 13
Width: 491
Flags: MW
HStem: -20 202<85.6426 180.357> 527 216<235.5 308.5>
VStem: 227 31<179.209 345.018 458 458 469 555 663.277 742.934> 419.5 32<282.428 431.436> 437 32<72.246 232.543>
LayerCount: 2
Fore
SplineSet
227 458 m 1xf0
 227 713 l 2
 227 733 230 743 241 743 c 0
 253 743 255 735 256 723 c 0
 259 653 319 602 340 581 c 0
 390 531 451.5 471 451.5 369.5 c 0
 451.5 306.5 411 244.5 389 214.5 c 0
 372 190.5 353 203.5 366 230.5 c 0
 377 251.5 419.5 296.5 419.5 369.5 c 0
 419.5 452 333 527 284 527 c 0
 260 527 258 504 258 469 c 2
 258 458 l 1
 227 458 l 1xf0
258 106 m 2
 258 42 177 -20 99 -20 c 0
 55 -20 8 3 8 56 c 0
 8 120 89 182 167 182 c 0
 189 182 195 179 208 179 c 0
 218 179 227 183 227 202 c 2
 227 533 l 2
 227 553 230 563 241 563 c 0
 253 563 255 555 256 543 c 0
 259 473 319 422 340 401 c 0
 390 351 469 290 469 164 c 0
 469 101 447 45 425 15 c 0
 408 -9 389 4 402 31 c 0
 413 52 437 91 437 164 c 0xe8
 437 267 333 347 284 347 c 0
 260 347 258 324 258 289 c 2
 258 106 l 2
EndSplineSet
EndChar

StartChar: M
Encoding: 77 77 14
Width: 280
Flags: HW
LayerCount: 2
Back
SplineSet
665 -57 m 7xcf
 691 -57 711 -81 711 -118 c 7
 711 -150 688 -173 650 -173 c 7
 626 -173 601 -146 601 -114 c 7
 601 -80 631 -57 665 -57 c 7xcf
653 194 m 7x9f
 678 194 707 171 707 142 c 7
 707 102 688 78 654 78 c 7
 621 78 596 106 596 138 c 31
 596 169 626 194 653 194 c 7x9f
300 280 m 7
 456 280 567 169 567 -19 c 7
 567 -322 234 -555 -16 -555 c 7
 -30 -555 -30 -555 -39 -544 c 4
 -51 -529 -45 -525 -28 -522 c 4
 236 -482 434 -273 434 11 c 7
 434 122 362 243 269 243 c 7
 189 243 114 160 114 109 c 7
 114 105 114 102 121 102 c 7
 140 102 149 107 168 107 c 7
 228 107 270 62 270 -3 c 7
 270 -60 221 -104 164 -104 c 7xaf
 106 -104 42 -66 42 29 c 7
 42 163 142 280 300 280 c 7
EndSplineSet
Fore
SplineSet
239.943 326.667 m 4xe8
 226.805 292.078 229.799 287.745 241.73 251.667 c 4
 245.828 239.276 248.5 224.817 248.5 207 c 4xf0
 248.5 120.5 177 49 127 -1 c 4
 106 -22 46 -73 43 -143 c 4
 42 -155 40 -163 28 -163 c 4
 17 -163 15 -153 15 -133 c 6
 15 304 l 5
 45 304 l 5
 45 293 l 6
 45 258 47 235 71 235 c 4
 120 235 225 295.5 225 407 c 4
 225 480 182 523 171 544 c 4
 158 571 172.973 580.539 193 559 c 4
 219.5 530.5 256 470 256 407 c 4
 256 371.9 249.887 352.842 239.943 326.667 c 4xe8
60.0693 99.667 m 4
 46.2168 73.0566 45 53 71 53 c 4
 120 53 217.5 121 217.5 207 c 4
 217.5 244.435 202.941 257.791 174.62 228 c 4
 158.061 210.58 141.338 195.338 127 181 c 4
 112.679 166.679 80.2295 138.394 60.0693 99.667 c 4
EndSplineSet
EndChar

StartChar: O
Encoding: 79 79 15
Width: 1000
Flags: H
LayerCount: 2
Back
SplineSet
595 -126 m 4xc302
 595 -95 621 -70 652 -70 c 4
 683 -70 709 -95 709 -126 c 4
 709 -158 683 -183 652 -183 c 4
 621 -183 595 -158 595 -126 c 4xc302
595 127 m 4
 595 158 621 183 652 183 c 4
 683 183 709 158 709 127 c 4
 709 95 683 70 652 70 c 4x9302
 621 70 595 95 595 127 c 4
300 280 m 7xa782
 456 280 567 169 567 -19 c 7
 567 -322 234 -555 -16 -555 c 7
 -30 -555 -30 -555 -39 -544 c 4
 -51 -529 -45 -525 -28 -522 c 4
 236 -482 434 -273 434 11 c 7
 434 122 365 236 268 236 c 7x8b2a
 204 236 146 190 123 144 c 4
 108 112 117 101 153 106 c 4
 158 107 162 107 168 107 c 7
 228 107 270 67.0078 270 0 c 7
 270 -57 221 -104 164 -104 c 7
 106 -104 42 -66 42 29 c 7
 42 163 142 280 300 280 c 7xa782
478 504 m 7x8766
 478 444 423 450 423 429 c 7
 423 414 450 407 450 361 c 7x8712
 450 290 388 266 327 266 c 7
 273 266 223 291 223 347 c 7
 223 408 289 419 289 439 c 7
 289 457 268 462 268 494 c 7
 268 552 321 582 380 582 c 7
 432 582 478 553 478 504 c 7x8766
381 557 m 7
 353 557 318 546 318 521 c 7
 318 505 359 460 391 460 c 7
 411 460 447 478 447 505 c 7x8326
 447 533 419 557 381 557 c 7
325 404 m 7
 293 404 257 379 257 345 c 7
 257 317 277 293 331 293 c 7
 365 293 397 302 397 336 c 7x8b52
 397 358 352 404 325 404 c 7
EndSplineSet
EndChar

StartChar: P
Encoding: 80 80 16
Width: 276
Flags: HMW
HStem: 560 20G<232 256>
VStem: 232 24<164.792 580>
LayerCount: 2
Fore
SplineSet
232 660 m 1
 256 660 l 1
 256 99 l 2
 256 61 226 19 177 -5 c 0
 154 -17 129 -22 107 -22 c 0
 62 -22 20 2 20 50 c 0
 20 89 50 131 99 155 c 0
 123 166 147 172 169 172 c 0
 183 172 197 170 210 165 c 0
 221 160 232 172 232 179 c 2
 232 660 l 1
EndSplineSet
EndChar

StartChar: Q
Encoding: 81 81 17
Width: 276
Flags: W
HStem: 560 20G<232 256>
VStem: 232 24<164.792 580>
LayerCount: 2
Fore
SplineSet
63 660 m 4
 243 660 l 0
 243 570 l 0
 63 570 l 0
 63 660 l 4
232 660 m 1
 256 660 l 1
 256 99 l 2
 256 61 226 19 177 -5 c 0
 154 -17 129 -22 107 -22 c 0
 62 -22 20 2 20 50 c 0
 20 89 50 131 99 155 c 0
 123 166 147 172 169 172 c 0
 183 172 197 170 210 165 c 0
 221 160 232 172 232 179 c 2
 232 660 l 1
EndSplineSet
EndChar

StartChar: R
Encoding: 82 82 18
Width: 276
Flags: HMW
HStem: 560 20G<232 256>
VStem: 232 24<164.792 580>
LayerCount: 2
Fore
SplineSet
63 510 m 4
 243 510 l 4
 243 420 l 4
 63 420 l 4
 63 510 l 4
63 660 m 0
 243 660 l 0
 243 570 l 0
 63 570 l 0
 63 660 l 0
232 660 m 1
 256 660 l 1
 256 99 l 2
 256 61 226 19 177 -5 c 0
 154 -17 129 -22 107 -22 c 0
 62 -22 20 2 20 50 c 0
 20 89 50 131 99 155 c 0
 123 166 147 172 169 172 c 0
 183 172 197 170 210 165 c 0
 221 160 232 172 232 179 c 2
 232 660 l 1
EndSplineSet
EndChar

StartChar: uni0090
Encoding: 144 144 19
Width: 207
Flags: W
VStem: 40 127<-19.6243 205.795>
LayerCount: 2
Fore
SplineSet
70 206 m 2
 138 206 l 2
 163 206 167 201.093 167 169 c 2
 167 8 l 2
 167 -11 161 -20 145 -20 c 2
 74 -20 l 2
 48 -20 40 -18 40 11 c 2
 40 173.5 l 2
 40 206.228 52 206 70 206 c 2
EndSplineSet
EndChar

StartChar: cent
Encoding: 162 162 20
Width: 1000
Flags: H
LayerCount: 2
Back
SplineSet
24 129 m 7x80
 48 129 61 128 85 128 c 7
 257 128 235 132 289 132 c 7
 314 132 330 132 333 128 c 4
 337 125 337 108 337 78 c 7
 337 66 335 57 335 45 c 7
 335 17 354 19 384 13 c 5
 384 13 385 8 385 6 c 7
 385 4 384 -1 384 -1 c 13
 -47 -1 l 21
 -47 -1 -48 4 -48 6 c 7
 -48 8 -47 13 -47 13 c 5x40
 -30 15 2 11 2 32 c 7
 2 60 0 68 0 96 c 7
 0 123 5 129 24 129 c 7x80
EndSplineSet
EndChar

StartChar: currency
Encoding: 164 164 21
Width: 1000
Flags: HM
LayerCount: 2
Back
SplineSet
68 203 m 7
 104 203 136 183 136 137 c 7
 136 116 125 106 125 99 c 7
 125 89 129 87 140 87 c 7
 158 87 213 117 236 157 c 4
 248 178 252 203 271 203 c 7
 278 203 281 197 281 190 c 4
 281 185 279 178 278 173 c 4
 228 -19 211 -113 187 -226 c 4
 180 -258 176 -265 144 -265 c 7
 133 -265 122 -264 122 -249 c 7
 122 -229 147 -172 178 -71 c 4
 191 -30 210 36 218 67 c 4
 219 72 220 76 220 79 c 4
 220 85 217 88 213 88 c 4
 208 88 200 83 194 79 c 4
 174 65 142 44 88 44 c 7
 41 44 0 77 0 127 c 7
 0 168 23.8184 203 68 203 c 7
EndSplineSet
EndChar

StartChar: yen
Encoding: 165 165 22
Width: 1000
Flags: HM
LayerCount: 2
Back
SplineSet
188 -220 m 4
 181 -252 178 -256 146 -256 c 7
 135 -256 125 -255 125 -240 c 7
 125 -220 147 -172 178 -71 c 4
 191 -30 210 36 218 67 c 4
 219 72 220 76 220 79 c 4
 220 85 217 88 213 88 c 4
 208 88 200 83 194 79 c 4
 174 65 142 44 88 44 c 7
 41 44 0 77 0 127 c 7
 0 168 24 203 68 203 c 7
 104 203 136 183 136 137 c 7
 136 116 125 106 125 99 c 7
 125 89 129 87 140 87 c 7
 158 87 213 117 236 157 c 4
 248 178 273 282 281 313 c 4
 282 318 283 322 283 325 c 4
 283 331 280 334 276 334 c 4
 271 334 263 329 257 325 c 4
 237 311 205 290 151 290 c 7
 104 290 63 323 63 373 c 7
 63 414 87 449 131 449 c 7
 167 449 199 429 199 383 c 7
 199 362 188 352 188 345 c 7
 188 335 192 333 203 333 c 7
 221 333 276 363 299 403 c 4
 311 424 315 449 334 449 c 7
 341 449 344 443 344 436 c 4
 344 431 342 424 341 419 c 4
 258 101 235 3 188 -220 c 4
EndSplineSet
EndChar

StartChar: brokenbar
Encoding: 166 166 23
Width: 1000
Flags: HM
LayerCount: 2
Back
SplineSet
188 -466 m 4
 181 -498 178 -502 146 -502 c 7
 135 -502 125 -501 125 -486 c 7
 125 -466 147 -418 178 -317 c 4
 191 -276 210 -210 218 -179 c 4
 219 -174 220 -170 220 -167 c 4
 220 -161 217 -158 213 -158 c 4
 208 -158 200 -163 194 -167 c 4
 174 -181 142 -202 88 -202 c 7
 41 -202 0 -169 0 -119 c 7
 0 -78 24 -43 68 -43 c 7
 104 -43 136 -63 136 -109 c 7
 136 -130 125 -140 125 -147 c 7
 125 -157 129 -159 140 -159 c 7
 158 -159 213 -129 236 -89 c 4
 248 -68 273 36 281 67 c 4
 282 72 283 76 283 79 c 4
 283 85 280 88 276 88 c 4
 271 88 263 83 257 79 c 4
 237 65 205 44 151 44 c 7
 104 44 63 77 63 127 c 7
 63 168 87 203 131 203 c 7
 167 203 199 183 199 137 c 7
 199 116 188 106 188 99 c 7
 188 89 192 87 203 87 c 7
 221 87 276 117 299 157 c 4
 311 178 336 282 344 313 c 4
 345 318 346 322 346 325 c 4
 346 331 343 334 339 334 c 4
 334 334 326 329 320 325 c 4
 300 311 268 290 214 290 c 7
 167 290 126 323 126 373 c 7
 126 414 150 449 194 449 c 7
 230 449 262 429 262 383 c 7
 262 362 251 352 251 345 c 7
 251 335 255 333 266 333 c 7
 284 333 339 363 362 403 c 4
 374 424 378 449 397 449 c 7
 404 449 407 443 407 436 c 4
 407 431 405 424 404 419 c 4
 304 36 264 -108 188 -466 c 4
EndSplineSet
EndChar

StartChar: section
Encoding: 167 167 24
Width: 1000
Flags: HM
LayerCount: 2
Back
SplineSet
188 -712 m 4
 181 -744 178 -748 146 -748 c 7
 135 -748 125 -747 125 -732 c 7
 125 -712 147 -664 178 -563 c 4
 191 -522 210 -456 218 -425 c 4
 219 -420 220 -416 220 -413 c 4
 220 -407 217 -404 213 -404 c 4
 208 -404 200 -409 194 -413 c 4
 174 -427 142 -448 88 -448 c 7
 41 -448 0 -415 0 -365 c 7
 0 -324 24 -289 68 -289 c 7
 104 -289 136 -309 136 -355 c 7
 136 -376 125 -386 125 -393 c 7
 125 -403 129 -405 140 -405 c 7
 158 -405 213 -375 236 -335 c 4
 248 -314 273 -210 281 -179 c 4
 282 -174 283 -170 283 -167 c 4
 283 -161 280 -158 276 -158 c 4
 271 -158 263 -163 257 -167 c 4
 237 -181 205 -202 151 -202 c 7
 104 -202 63 -169 63 -119 c 7
 63 -78 87 -43 131 -43 c 7
 167 -43 199 -63 199 -109 c 7
 199 -130 188 -140 188 -147 c 7
 188 -157 192 -159 203 -159 c 7
 221 -159 276 -129 299 -89 c 4
 311 -68 336 36 344 67 c 4
 345 72 346 76 346 79 c 4
 346 85 343 88 339 88 c 4
 334 88 326 83 320 79 c 4
 300 65 268 44 214 44 c 7
 167 44 126 77 126 127 c 7
 126 168 150 203 194 203 c 7
 230 203 262 183 262 137 c 7
 262 116 251 106 251 99 c 7
 251 89 255 87 266 87 c 7
 284 87 339 117 362 157 c 4
 374 178 399 282 407 313 c 4
 408 318 409 322 409 325 c 4
 409 331 406 334 402 334 c 4
 397 334 389 329 383 325 c 4
 363 311 331 290 277 290 c 7
 230 290 189 323 189 373 c 7
 189 414 213 449 257 449 c 7
 293 449 325 429 325 383 c 7
 325 362 314 352 314 345 c 7
 314 335 318 333 329 333 c 7
 347 333 402 363 425 403 c 4
 437 424 441 449 460 449 c 7
 467 449 470 443 470 436 c 4
 470 431 468 424 467 419 c 4
 359 7 300 -184 188 -712 c 4
EndSplineSet
EndChar

StartChar: dieresis
Encoding: 168 168 25
Width: 340
VWidth: 970
Flags: HMW
LayerCount: 2
Fore
SplineSet
170 312 m 0
 117 312 108 244 108 154 c 0
 108 64 117 -3 170 -3 c 0
 223 -3 231 64 231 154 c 0
 231 244 223 312 170 312 c 0
170 342 m 0
 276 342 317 253 317 154 c 0
 317 55 276 -34 170 -34 c 4
 64 -34 23 55 23 154 c 0
 23 253 64 342 170 342 c 0
EndSplineSet
EndChar

StartChar: Egrave
Encoding: 200 200 26
Width: 340
VWidth: 970
Flags: HW
HStem: 356 78<175.948 268.139> 410 56<113.09 154.604> 702 32<113.777 203.688>
VStem: 24.5 26<356.285 393.712> 37.5 71<608 684.615> 222.5 90<580.072 686.565> 286.5 29<445.722 495.032>
LayerCount: 2
Back
SplineSet
15 166 m 4
 15 226.667 28.3333 279.833 55 325.5 c 4
 81.6667 371.167 108 404 134 424 c 4
 139.333 427.333 143.667 429 147 429 c 4
 155.667 429 160 426.333 160 421 c 4
 160 418.333 151.667 405.667 135 383 c 4
 118.333 360.333 101.5 329.167 84.5 289.5 c 4
 67.5 249.833 59 208.667 59 166 c 4
 59 123.333 67.5 82.1667 84.5 42.5 c 4
 101.5 2.8333 118.333 -28.3333 135 -51 c 4
 151.667 -73.6667 160 -86.3333 160 -89 c 4
 160 -94.3333 155.667 -97 147 -97 c 4
 143.667 -97 139.333 -95.3333 134 -92 c 4
 108 -72 81.6667 -39.1667 55 6.5 c 4
 28.3333 52.1667 15 105.333 15 166 c 4
EndSplineSet
Fore
SplineSet
182.5 734 m 4xac
 256.5 734 312.5 686 312.5 626 c 4
 312.5 565 266.5 546 208.5 533 c 4
 182.5 527 147.5 516 119.5 494 c 4
 100.5 479 109.5 466 126.5 466 c 4x6c
 176.5 466 205.5 434 241.5 434 c 4
 267.5 434 278.5 449 286.5 469 c 4
 290.5 482 296.5 496 304.5 496 c 4
 312.5 496 315.5 490 315.5 482 c 4
 315.5 430 274.5 356 217.5 356 c 4xa2
 171.5 356 156.5 410 99.5 410 c 4x62
 82.5 410 58.5 399 50.5 372 c 4
 46.5 360 42.5 356 34.5 356 c 4
 28.5 356 24.5 362 24.5 376 c 4xb2
 26.5 453 79.5 512 137.5 542 c 4
 195.5 571 222.5 584 222.5 634 c 4
 222.5 678 201.5 702 158.5 702 c 4
 136.5 702 108.5 694 108.5 675 c 4
 108.5 654 144.5 655 144.5 612 c 4
 144.5 589 128.5 564 96.5 564 c 4
 50.5 564 37.5 594 37.5 622 c 4
 37.5 684 91.5 734 182.5 734 c 4xac
164.5 36 m 0xe8
 164.5 53 154.5 60 136.5 60 c 0
 27.5 60 l 0
 16.5 60 15.5 72 15.5 76 c 0
 15.5 83 17.5 87 29.5 104 c 0
 93.5 197 99.5 243 118.5 323 c 0
 122.5 341 128.5 345 136.5 345 c 0
 152.5 345 154.5 338 181.5 338 c 0
 209.5 338 214.5 345 226.5 345 c 0
 233.5 345 237.5 341 237.5 331 c 0xf0
 237.5 310 216.5 280 158.5 212 c 0
 122.5 171 98.5 143 81.5 125 c 0
 64.5 105 66.5 92 92.5 92 c 0
 135.5 92 l 0
 155.5 92 164.5 105 164.5 119 c 0
 164.5 141 l 0
 164.5 155 166.5 168 174.5 176 c 0
 223.5 232 l 0
 229.5 239 251.5 256 251.5 226 c 0
 251.5 120 l 0
 251.5 107 255.5 92 276.5 92 c 0
 305.5 92 l 0
 322.5 92 324.5 86 324.5 76 c 0
 324.5 67 324.5 60 305.5 60 c 0
 275.5 60 l 0
 261.5 60 251.5 52 251.5 40 c 0
 251.5 29 l 0xe8
 251.5 6 257.5 2 277.5 0 c 0
 293.5 -1 297.5 -3 297.5 -15 c 0
 297.5 -26 295.5 -30 279.5 -30 c 0
 138.5 -30 l 0
 122.5 -30 118.5 -27 118.5 -15 c 0xf0
 118.5 -3 124.5 -1 138.5 0 c 0
 158.5 2 164.5 8 164.5 29 c 0
 164.5 36 l 0xe8
EndSplineSet
EndChar

StartChar: Eacute
Encoding: 201 201 27
Width: 340
VWidth: 970
Flags: HW
HStem: -30 30<118.504 162.898 252.92 297.497> 60 32<73.5343 162.32 253.071 324.498> 325 20G<132.5 144.5 220.5 230>
VStem: 118.5 119<284.352 337.736> 164.5 87<0.547237 59.6328 92.7379 189.125>
LayerCount: 2
Back
SplineSet
266 54 m 4xc060
 241 45 239 39 239 9 c 4
 239 2 239 -6 239 -16 c 7
 239 -51 243 -62 255 -62 c 4
 260 -62 268 -59 277 -56 c 4
 306 -45 307 -43 307 8 c 6
 307 12 l 6
 307 45 307 60 291 60 c 4
 285 60 277 58 266 54 c 4xc060
196 22 m 4
 193 22 188 21 184 21 c 4
 171 21 171 35 171 57 c 4
 171 58 171 58 171 59 c 4xc2
 171 71 171 83 186 89 c 4
 204 96 206 105 206 117 c 4
 206 120 206 124 206 127 c 15xc080
 206 157 205 179 205 203 c 7
 205 205 205 206 205 207 c 4
 205 227 206 238 225 238 c 7
 247 238 248 232 248 209 c 7xc1
 248 182 247 168 247 141 c 7
 247 127 248 118 259 118 c 4
 263 118 267 119 274 122 c 4
 299 130 300 136 300 152 c 31
 300 185 299 204 299 237 c 7
 299 243 299 247 299 251 c 4
 299 268 301 271 321 271 c 7
 331 271 342 270 342 256 c 7
 342 236 340 195 340 175 c 7xc2
 340 156 343 151 350 151 c 4
 353 151 359 153 362 153 c 4
 371 153 376 147 376 123 c 6
 376 121 l 6xc080
 376 94 376 90 359 84 c 4
 341 77 339 72 339 49 c 4
 339 43 339 36 339 27 c 7xc020
 339 -6 340 -22 353 -22 c 4
 357 -22 362 -20 365 -20 c 4
 373 -20 376 -26 376 -47 c 4
 376 -50 376 -53 376 -56 c 4xc080
 376 -79 375 -84 359 -90 c 4
 341 -97 340 -106 340 -117 c 4
 340 -120 340 -122 340 -125 c 7xc2
 340 -140 342 -167 342 -202 c 6
 342 -204 l 6
 342 -230 342 -239 321 -239 c 4
 319 -239 317 -239 315 -239 c 4
 305 -239 299 -237 299 -215 c 4
 299 -184 301 -167 301 -137 c 23
 301 -127 300 -119 288 -119 c 4
 284 -119 279 -120 272 -122 c 4
 247 -131 246 -138 246 -155 c 7
 246 -188 248 -203 248 -238 c 7
 248 -261 246 -272 225 -272 c 7
 206 -272 205 -260 205 -248 c 31xc1
 205 -219 207 -205 207 -175 c 7
 207 -156 207 -150 199 -150 c 4
 196 -150 187 -154 183 -154 c 4
 175 -154 171 -147 171 -120 c 4
 171 -116 171 -112 171 -108 c 4xc2
 171 -98 173 -90 189 -83 c 4
 207 -77 208 -70 208 -22 c 7
 208 12 207 22 196 22 c 4
112 23 m 6xd4
 112 53 107 59 97 59 c 4
 85 59 66 51 55 47 c 4
 43 43 39 34 39 11 c 6
 39 -38 l 6
 39 -55 45 -58 53 -58 c 4
 57 -58 86 -49 96 -45 c 4
 109 -40 112 -29 112 -16 c 4
 112 -12 112 -8 112 0 c 6
 112 23 l 6xd4
93 -113 m 7
 89 -113 77 -114 60 -121 c 5
 34 -130 35 -131 22 -131 c 7
 7 -131 6 -121 6 -100 c 4
 6 -98 6 -95 6 -92 c 6
 6 -89 l 6xd8
 6 7 7 2 7 43 c 7
 7 141 0 192 0 232 c 6
 0 247 l 6
 0 267 1 279 18 279 c 7
 36 279 43 277 43 259 c 7
 43 181 42 190 42 146 c 7
 42 121 48 114 58 114 c 7
 68 114 73 116 94 124 c 4
 114 132 123 135 130 135 c 4
 139 135 146 130 146 106 c 7
 146 40 144 59 144 -41 c 7xe4
 144 -150 152 -163 152 -264 c 7
 152 -276 142 -279 133 -279 c 6
 118 -279 l 6
 111 -279 107 -275 107 -247 c 7xc8
 107 -243 109 -182 109 -148 c 6
 109 -137 l 6
 109 -114 102 -113 95 -113 c 4
 94 -113 94 -113 93 -113 c 7
EndSplineSet
Fore
SplineSet
165 731 m 4xec
 247 731 301 692 301 634 c 4xec
 301 585 274 570 252 563 c 4
 238 557 231 555 231 549 c 4
 231 542 238 540 251 534 c 4
 275 523 308 504 308 454 c 4
 308 386 235 353 167 353 c 4
 93 353 32 389 32 452 c 4
 32 487 60 510 88 510 c 4
 114 510 141 493 141 460 c 4
 141 414 111 421 111 402 c 4
 111 392 126 386 151 386 c 4
 219 386 218 421 218 458 c 4xf2
 218 533 174 528 130 530 c 4
 124 530 113 532 113 547 c 4
 113 558 121 561 129 561 c 4
 207 561 216 583 216 638 c 4
 216 681 203 699 156 699 c 4
 124 699 104 691 104 677 c 4
 104 658 140 663 140 620 c 4
 140 600 122 578 89 578 c 4
 62 578 39 602 39 635 c 4
 39 702 109 731 165 731 c 4xec
164.5 36 m 0xe8
 164.5 53 154.5 60 136.5 60 c 0
 27.5 60 l 0
 16.5 60 15.5 72 15.5 76 c 0
 15.5 83 17.5 87 29.5 104 c 0
 93.5 197 99.5 243 118.5 323 c 0
 122.5 341 128.5 345 136.5 345 c 0
 152.5 345 154.5 338 181.5 338 c 0
 209.5 338 214.5 345 226.5 345 c 0
 233.5 345 237.5 341 237.5 331 c 0xf0
 237.5 310 216.5 280 158.5 212 c 0
 122.5 171 98.5 143 81.5 125 c 0
 64.5 105 66.5 92 92.5 92 c 0
 135.5 92 l 0
 155.5 92 164.5 105 164.5 119 c 0
 164.5 141 l 0
 164.5 155 166.5 168 174.5 176 c 0
 223.5 232 l 0
 229.5 239 251.5 256 251.5 226 c 0
 251.5 120 l 0
 251.5 107 255.5 92 276.5 92 c 0
 305.5 92 l 0
 322.5 92 324.5 86 324.5 76 c 0
 324.5 67 324.5 60 305.5 60 c 0
 275.5 60 l 0
 261.5 60 251.5 52 251.5 40 c 0
 251.5 29 l 0xe8
 251.5 6 257.5 2 277.5 0 c 0
 293.5 -1 297.5 -3 297.5 -15 c 0
 297.5 -26 295.5 -30 279.5 -30 c 0
 138.5 -30 l 0
 122.5 -30 118.5 -27 118.5 -15 c 0xf0
 118.5 -3 124.5 -1 138.5 0 c 0
 158.5 2 164.5 8 164.5 29 c 0
 164.5 36 l 0xe8
EndSplineSet
EndChar

StartChar: agrave
Encoding: 224 224 28
Width: 830
Flags: HMW
LayerCount: 2
Fore
SplineSet
104 72 m 0
 82 72 80 74 80 90 c 0
 80 107 82 108 105 108 c 0
 585 108 l 0
 644.333 108 596 145 596 167 c 0
 596 169 598 173 603 173 c 0
 613 173 621.938 162.893 681 129 c 0
 729.949 100.911 750 99 750 89 c 0
 750 75 730.93 77.1279 680 49 c 0
 625.925 19.1357 615 7 603 7 c 0
 597 7 596 13 596 15 c 0
 596 39 641.333 72 585 72 c 0
 104 72 l 0
EndSplineSet
EndChar

StartChar: acircumflex
Encoding: 226 226 29
Width: 1000
Flags: H
LayerCount: 2
Back
SplineSet
28 126 m 7
 51 126 63 122 86 115 c 4
 176 89 365 46 478 18 c 4
 493 14 515 11 515 0 c 7
 515 -12 500 -15 488 -16 c 4
 457 -21 354 -49 258 -73 c 4
 180 -93 119 -104 82 -117 c 4
 62 -124 43 -128 30 -128 c 7
 21 -128 0 -118 0 -102 c 7
 0 -85 25 -83 44 -79 c 4
 128 -60 204 -39 255 -30 c 4
 294 -23 352 -15 352 0 c 7
 352 9 329 12 314 16 c 4
 208 36 147 54 37 76 c 4
 20 80 4 86 4 106 c 7
 4 119 12 126 28 126 c 7
EndSplineSet
EndChar

StartChar: eacute
Encoding: 233 233 30
Width: 1000
Flags: H
LayerCount: 2
Back
SplineSet
157 43 m 7
 178 43 199 29 199 8 c 31
 199 -17 192 -42 159 -42 c 7
 126 -42 112 -21 112 5 c 7
 112 27 127 43 157 43 c 7
0 149 m 7
 0 176 10 177 22 177 c 4
 22 177 23 177 24 177 c 7
 45 177 46 176 141 176 c 7
 265 176 249 177 287 177 c 7
 288 177 289 177 290 177 c 4
 301 177 312 176 312 149 c 7
 312 122 303 121 290 121 c 4
 288 121 286 121 284 121 c 7
 261 121 252 122 149 122 c 7
 36 122 29 121 18 121 c 7
 1 121 0 124 0 139 c 4
 0 142 0 145 0 149 c 7
EndSplineSet
EndChar

StartChar: oslash
Encoding: 248 248 31
Width: 0
VWidth: 1750
Flags: HW
LayerCount: 2
Back
SplineSet
64 210 m 7
 121 210 151 145 151 85 c 7
 151 -45 77 -146 48 -146 c 7
 39 -146 32 -138 32 -129 c 7
 32 -99 108 -38 108 50 c 7
 108 65 88 81 77 81 c 7
 69 81 65 80 57 80 c 31
 22 80 0 96 0 149 c 7
 0 184 29 210 64 210 c 7
EndSplineSet
Fore
SplineSet
150 815 m 0
 150 762 97 741 47 741 c 0
 2 741 -50 768 -50 813 c 0
 -50 837 -34 860 -2 877 c 0
 33 896 1 914 1 944 c 0
 1 989 42 1014 86 1014 c 0
 136 1014 179 984 179 944 c 0
 179 927 171 911 157 898 c 0
 143 885 135 882 135 868 c 0
 135 854 150 841 150 815 c 0
152 944 m 0
 152 970 121 989 92 989 c 0
 72 989 48 985 48 963 c 0
 48 956 52 947 56 940 c 0
 61 930 78 901 103 901 c 0
 122 901 152 914 152 944 c 0
38 864 m 0
 14 864 -20 842 -20 813 c 0
 -20 783 15 766 50 766 c 0
 87 766 101 780 101 799 c 0
 101 820 65 864 38 864 c 0
EndSplineSet
EndChar

StartChar: ucircumflex
Encoding: 251 251 32
Width: 0
Flags: W
HStem: 87 36<140.555 359.445>
CounterMasks: 1 38
LayerCount: 2
Back
SplineSet
264.765 56 m 4
 264.765 92.4307 294.859 122.528 331.292 122.528 c 4
 367.724 122.528 396.235 92.4307 396.235 56 c 4
 396.235 19.5693 367.724 -10.5283 331.292 -10.5283 c 4
 294.859 -10.5283 264.765 19.5693 264.765 56 c 4
336 401 m 7
 521 401 644 239 660 57 c 4
 662 39 667 27 667 9 c 15
 667 1.30762 658 -1 650 -1 c 7
 625 -1 638 49 618 104 c 4
 587 185 498 283 360 283 c 7
 141 283 71 156 46 66 c 4
 33.7204 21.7935 29.2627 -29 12 -29 c 7
 2 -29 0 -16 0 -5 c 7
 0 128 70 282 168 353 c 4
 206 380 273 401 336 401 c 7
EndSplineSet
Fore
SplineSet
0 864 m 0
 164 864 250 758 250 741 c 0
 250 735 247 733 241 733 c 0
 226 733 178 828 0 828 c 0
 -178 828 -226 733 -241 733 c 0
 -247 733 -250 735 -250 741 c 0
 -250 758 -164 864 0 864 c 0
-98 565 m 0
 -80 565 -70 553 -70 536 c 0
 -70 519 -82 516 -82 507 c 0
 -82 499 -72 495 -60 495 c 0
 -14 495 4 530 4 570 c 0
 4 594 -10 603 -40 603 c 0
 -50 603 -58 605 -58 612 c 0
 -58 622 -50 627 -40 627 c 0
 12 627 42 644 42 690 c 0
 42 712 26 723 6 723 c 0
 -8 723 -26 719 -26 707 c 0
 -26 697 -20 694 -20 679 c 0
 -20 667 -30 658 -44 658 c 0
 -60 658 -70 668 -70 684 c 0
 -70 719 -28 744 8 744 c 0
 50 744 90 724 90 684 c 0
 90 659 76 637 50 622 c 0
 44 618 32 615 32 606 c 0
 32 598 38 592 42 587 c 0
 50 576 54 565 54 551 c 0
 54 536 46 522 38 512 c 0
 16 482 -20 471 -54 471 c 0
 -94 471 -130 490 -130 530 c 0
 -130 549 -116 565 -98 565 c 0
EndSplineSet
EndChar

StartChar: edieresis
Encoding: 235 235 33
Width: 1000
VWidth: 0
Flags: H
LayerCount: 2
Back
SplineSet
239 -14 m 7
 226 -14 218 3 212 17 c 4
 195 58 173 113 154 151 c 4
 139 181 140 183 125 183 c 7
 116 183 108 159 97 136 c 4
 78 98 62 50 43 15 c 4
 34 -2 26 -12 20 -12 c 7
 13 -12 0 -9 0 1 c 7
 0 8 4 20 14 42 c 4
 52 135 91 221 128 314 c 4
 131 320 151 384 163 384 c 7
 179 384 194 326 200 309 c 4
 262 163 262 173 306 60 c 4
 311 46 323 11 323 3 c 7
 323 -12 303 -15 280 -15 c 4
 266 -15 251 -14 239 -14 c 7
EndSplineSet
EndChar

StartChar: igrave
Encoding: 236 236 34
Width: 1000
VWidth: 0
Flags: H
LayerCount: 2
Back
SplineSet
84 17 m 7
 97 17 105 0 111 -14 c 4
 128 -55 150 -110 169 -148 c 4
 184 -178 183 -180 198 -180 c 7
 207 -180 215 -156 226 -133 c 4
 245 -95 261 -47 280 -12 c 4
 289 5 297 15 303 15 c 7
 310 15 323 12 323 2 c 7
 323 -5 319 -17 309 -39 c 4
 271 -132 232 -218 195 -311 c 4
 192 -317 172 -381 160 -381 c 7
 144 -381 125 -323 119 -306 c 4
 57 -160 61 -170 17 -57 c 4
 12 -43 0 -8 0 0 c 7
 0 15 20 18 43 18 c 4
 57 18 72 17 84 17 c 7
EndSplineSet
EndChar

StartChar: Abreve
Encoding: 258 258 35
Width: 1000
Flags: H
LayerCount: 2
Back
SplineSet
150 195 m 7
 89 195 52 145 52 88 c 7
 52 35 87 7 164 7 c 7
 212 7 263 33 263 81 c 7
 263 110 237 132 209 158 c 4
 189 176 169 195 150 195 c 7
238 412 m 31
 196 412 147 389 147 354 c 7
 147 336 176 303 206 275 c 4
 225 256 244 238 260 238 c 7
 290 238 333 290 333 338 c 7
 333 391 285 412 238 412 c 31
233 438 m 7
 306 438 373 397 373 327 c 7
 373 240 277 247 277 226 c 7
 277 197 332 188 332 123 c 7
 332 20 243 -14 155 -14 c 31
 79 -14 0 26 0 105 c 7
 0 140 31 172 62 188 c 4
 92 206 122 208 122 215 c 7
 122 244 72 251 72 312 c 7
 72 366 96 394 142 416 c 4
 171 430 203 438 233 438 c 7
EndSplineSet
EndChar

StartChar: lcommaaccent
Encoding: 316 316 36
Width: 1000
Flags: H
LayerCount: 2
Back
SplineSet
254 -88 m 4xb0
 247 -88 236 -77 236 -68 c 4
 236 -62 240 -56 247 -46 c 6
 355 96 l 6
 369 113 379 122 390 122 c 4
 399 122 408 115 419 101 c 6
 464 41 l 6
 475 27 493 8 505 8 c 4xb0
 514 8 520 17 520 42 c 4
 520 91 519 115 519 175 c 4
 519 212 520 212 537 212 c 4
 552 212 554 210 554 167 c 4
 554 135 553 121 553 92 c 4
 553 81 555 68 563 68 c 4
 567 68 574 72 582 83 c 6
 594 99 l 6
 605 114 616 121 626 121 c 4
 636 121 645 115 654 102 c 6
 703 38 l 6
 717 20 728 11 739 11 c 4
 751 11 763 22 780 44 c 6
 805 77 l 6
 811 84 815 87 820 87 c 4
 827 87 837 75 837 67 c 4
 837 61 832 54 823 41 c 6
 722 -92 l 6
 707 -112 696 -121 685 -121 c 4
 673 -121 662 -110 647 -90 c 6
 607 -38 l 6
 592 -19 579 -6 569 -6 c 4x70
 558 -6 552 -19 552 -50 c 4
 553 -102 554 -147 554 -188 c 4
 554 -207 553 -212 538 -212 c 4
 520 -212 519 -209 519 -186 c 6
 519 -92 l 6
 519 -78 517 -67 510 -67 c 4
 506 -67 500 -72 492 -82 c 6
 482 -96 l 5
 469 -112 458 -119 448 -119 c 4
 436 -119 425 -109 412 -93 c 6
 361 -26 l 6
 349 -10 341 -3 333 -3 c 4
 324 -3 316 -14 304 -30 c 6
 271 -74 l 6
 263 -84 258 -88 254 -88 c 4xb0
EndSplineSet
EndChar

StartChar: Ohungarumlaut
Encoding: 336 336 37
Width: 1000
Flags: H
LayerCount: 2
Back
SplineSet
-2 0 m 7
 -2 108 80 185 98 185 c 7
 105 185 106 183 106 178 c 7
 106 162 32 115 32 0 c 1031
95 185 m 0
 108 184 110 181 109 179 c 0
 63 113 32 75 32 0 c 0
 32 -76 63 -114 109 -179 c 0
 112 -183 101 -185 95 -185 c 0
 89 -185 77 -185 75 -181 c 0
 29 -116 -2 -77 -2 0 c 0
 -2 76 29 115 75 181 c 0
 76 183 83 186 95 185 c 0
EndSplineSet
EndChar

StartChar: OE
Encoding: 338 338 38
Width: 1000
Flags: H
LayerCount: 2
Back
SplineSet
0 6 m 3
 0 125 91 264 117 264 c 3
 123 264 131 262 131 253 c 3
 131 238 45 170 45 -9 c 3
 45 -182 131 -218 131 -245 c 7
 131 -252 129 -264 116 -264 c 7
 104 -264 0 -152 0 6 c 3
EndSplineSet
EndChar

StartChar: Racute
Encoding: 340 340 39
Width: 1000
Flags: H
LayerCount: 2
Back
SplineSet
0 9 m 7
 0 210 149 391 183 391 c 7
 192 391 202 387 202 379 c 7
 202 349 58 292 58 0 c 7
 58 -273 196 -349 196 -376 c 7
 196 -386 185 -391 175 -391 c 7
 158 -391 0 -226 0 9 c 7
EndSplineSet
EndChar

StartChar: space
Encoding: 32 32 40
Width: 200
Flags: W
LayerCount: 2
Back
SplineSet
150 54 m 6xf4
 150 70 148 76 130 76 c 6
 42 76 l 6
 25 76 25 82 25 87 c 4
 25 92 26 97 36 116 c 4
 63 166 81 197 100 254 c 4
 115 298 114 300 136 300 c 6
 185 300 l 6
 197 300 202 295 202 287 c 4xf8
 202 271 189 249 134 195 c 4
 88 149 70 126 70 114 c 4
 70 109 70 104 87 104 c 6
 124 104 l 6
 140 104 148 107 149 115 c 4
 149 121 150 145 151 155 c 4
 152 166 154 176 162 181 c 4
 197 204 199 209 209 209 c 4
 215 209 220 209 220 197 c 4
 220 182 218 165 218 116 c 4
 218 106 222 105 230 105 c 6
 257 105 l 6
 273 105 275 100 275 91 c 6
 275 89 l 6
 275 82 273 76 250 76 c 6
 239 76 l 6
 223 76 218 74 218 49 c 6
 218 44 l 6
 218 22 221 26 248 24 c 4
 258 23 258 17 258 12 c 4
 258 0 254 0 238 0 c 4
 219 0 194 0 183 0 c 4
 165 0 152 0 134 0 c 4
 114 0 112 -1 112 13 c 4
 112 17 113 22 123 23 c 4
 148 25 150 20 150 44 c 6
 150 54 l 6xf4
EndSplineSet
EndChar

StartChar: uni0091
Encoding: 145 145 41
Width: 475
Flags: W
HStem: 51 135<110.395 365.711> 155 31<30.0027 109.724 366.276 444.998>
VStem: 110 256<51.3757 154.839>
LayerCount: 2
Fore
SplineSet
43 186 m 6x60
 434.333 186 l 2
 442.333 186 445 183 445 171 c 0
 445 160 443.667 155 429.999 155 c 2
 392 155 l 2x60
 370 155 366 146 366 135 c 2
 366 79 l 2
 366 60 360 51 344 51 c 2
 144 51 l 2xa0
 118 51 110 53 110 82 c 2
 110 135 l 2
 110 146 106 155 84 155 c 2
 42.335 155 l 2
 32 155 30 160 30 171 c 0
 30 185 33.667 186 43 186 c 6x60
EndSplineSet
EndChar

StartChar: uni0092
Encoding: 146 146 42
Width: 475
Flags: W
HStem: 0 135<109.289 364.605> 0 31<30.002 108.724 365.276 444.997>
LayerCount: 2
Fore
SplineSet
432 0 m 6x40
 40.667 0 l 6
 32.667 0 30 3 30 15 c 4
 30 26 31.333 31 45.001 31 c 6
 83 31 l 6x40
 105 31 109 40 109 51 c 6
 109 107 l 6
 109 126 115 135 131 135 c 6
 331 135 l 6x80
 357 135 365 133 365 104 c 6
 365 51 l 6
 365 40 369 31 391 31 c 6
 432.665 31 l 6
 443 31 445 26 445 15 c 4
 445 1 441.333 0 432 0 c 6x40
EndSplineSet
EndChar

StartChar: uni0093
Encoding: 147 147 43
Width: 244
Flags: HW
VStem: 30 54<30.0032 124.5> 114 16<183 245>
LayerCount: 2
Fore
SplineSet
97 544 m 0
 110 531 124 510 134 498 c 0
 161 465 193 425 207 400 c 0
 218.298 380.229 217.063 368.076 202 350 c 0
 169 309 130 281 130 245 c 0
 130 199.236 191.333 124.667 208.035 89.667 c 0
 213.849 77.4834 215 72.0986 206.667 66.2158 c 0
 198.333 60.333 192.742 65.292 186 73.6309 c 0
 176 86 164.97 102 139 102 c 0
 112 102 84 79 84 47 c 0
 84 27 97 5 97 -3 c 0
 97 -9 93 -13 88 -13 c 0
 69 -13 30 63 30 103 c 0
 30 146 52 176 82 176 c 0
 87 176 94 175 98 175 c 0
 109 175 114 177 114 183 c 0
 114 187 112 193 107 200 c 0
 80 235 64 255 56 269 c 0
 49 279 47 287 47 294 c 0
 47 305 52 313 60 323 c 0
 83 352 127 388 127 427 c 0
 127 462.353 91.5 498 73.8516 527.5 c 0
 65.6807 541.157 65.667 549 72.333 553.727 c 0
 80.1016 559.233 87.3896 554.812 97 544 c 0
EndSplineSet
EndChar

StartChar: uni0094
Encoding: 148 148 44
Width: 273
Flags: W
HStem: 1 21G<143 162.5> 208 36<85.5 178.277> 302 20G<224.5 235>
VStem: 30 100<244.82 312.145>
LayerCount: 2
Fore
SplineSet
82 322 m 0
 106 322 130 306 130 274 c 0
 130 267 126 258 126 252 c 0
 126 247 128 244 135 244 c 0
 162 244 188 265 204 293 c 0
 212 308 218 322 231 322 c 0
 239 322 243 314 243 306 c 0
 243 304 242 303 242 301 c 0
 207 167 195 99 178 20 c 0
 174 3 167 1 158 1 c 0
 155 1 153 1 150 1 c 0
 136 1 130 2 130 12 c 0
 130 24 174 151 186 202 c 0
 187 208 188 213 188 216 c 0
 188 224 185 226 180 226 c 0
 175 226 168 223 161 220 c 0
 147 214 132 208 108 208 c 0
 63 208 30 232 30 268 c 0
 30 296 50 322 82 322 c 0
EndSplineSet
EndChar

StartChar: cedilla
Encoding: 184 184 45
Width: 0
VWidth: 1360
Flags: HW
LayerCount: 2
Back
SplineSet
139 32 m 2xa5
 139 70 137 80 124 80 c 0
 109 80 72 67 58 62 c 0
 40 56 39 46 39 16 c 0
 39 11 39 4 39 -3 c 2
 39 -53 l 2
 39 -75 39 -83 49 -83 c 0
 54 -83 109 -67 122 -62 c 0
 134 -57 136 -52 137 -46 c 0
 139 -37 139 -17 139 1 c 2
 139 32 l 2xa5
121 -167 m 0x62
 112 -167 27 -202 15 -202 c 0
 1 -202 1 -188 1 -149 c 0
 1 -148 1 -146 1 -145 c 3x86
 1 -24 2 3 2 55 c 3
 2 179 -7 250 -7 300 c 2
 -7 319 l 2
 -7 345 -6 360 15 360 c 3
 38 360 44 357 44 334 c 3
 44 235 43 252 43 196 c 3
 43 173 47 167 56 167 c 0x98
 65 167 78 173 112 185 c 0
 137 195 153 203 163 203 c 0
 174 203 177 193 177 162 c 3
 177 79 175 75 175 -52 c 3x29
 175 -190 185 -214 185 -342 c 3
 185 -357 173 -360 161 -360 c 3
 156 -360 151 -361 148 -361 c 0
 139 -361 134 -356 134 -320 c 3
 134 -315 135 -261 135 -218 c 3
 135 -214 135 -209 135 -206 c 0
 135 -175 131 -167 121 -167 c 0x62
EndSplineSet
Fore
SplineSet
170 702 m 0
 117 702 108 634 108 544 c 0
 108 454 117 387 170 387 c 0
 223 387 231 454 231 544 c 0
 231 634 223 702 170 702 c 0
170 732 m 0
 276 732 317 643 317 544 c 0
 317 445 276 356 170 356 c 4
 64 356 23 445 23 544 c 0
 23 643 64 732 170 732 c 0
EndSplineSet
EndChar

StartChar: uni00B9
Encoding: 185 185 46
Width: 0
VWidth: 1360
Flags: W
HStem: 360 30<99.8726 145.266 232.288 276.865> 707 20G<155.368 167.868 214.368 222.868>
VStem: 146.868 84<390.547 581.104>
LayerCount: 2
Back
SplineSet
106 99 m 7xe8
 50 99 50 4 50 -63 c 6xd8
 50 -79 l 6
 50 -98 51 -104 57 -104 c 7
 83 -104 143 -9 143 52 c 7
 143 75 129 99 106 99 c 7xe8
39 430 m 7
 56 430 57 416 57 399 c 4
 57 398 57 396 57 394 c 7xe8
 57 271 49 200 49 127 c 4
 49 116 50 110 58 110 c 7
 71 110 75 141 131 141 c 7
 173 141 200 125 214 96 c 4
 221 82 227 66 227 47 c 7
 227 -4 201 -46 160 -69 c 4
 86 -109 44 -172 25 -172 c 7
 13 -172 13 -156 13 -144 c 31
 13 -97 15 -71 15 -24 c 31xd8
 15 137 0 227 0 388 c 7xe8
 0 428 2 430 39 430 c 7
EndSplineSet
Fore
SplineSet
120.868 576 m 0
 91.8682 535 l 0
 77.8682 515 53.8682 522 66.8682 548 c 0
 118.868 650 l 0
 144.868 702 146.868 727 163.868 727 c 0
 171.868 727 176.868 722 191.868 722 c 0
 207.868 722 209.868 727 218.868 727 c 0
 226.868 727 230.868 721 230.868 709 c 0
 230.868 419 l 0
 230.868 396 236.868 392 256.868 390 c 0
 272.868 389 276.868 387 276.868 375 c 0
 276.868 364 273.868 360 258.868 360 c 0
 120.868 360 l 0
 103.868 360 99.8682 363 99.8682 375 c 0
 99.8682 387 105.868 389 120.868 390 c 0
 140.868 392 146.868 398 146.868 419 c 0
 146.868 564 l 0
 146.868 587 135.868 597 120.868 576 c 0
EndSplineSet
EndChar

StartChar: ordmasculine
Encoding: 186 186 47
Width: 0
VWidth: 1360
Flags: HW
HStem: 356 78<175.948 268.139> 410 56<113.09 154.604> 702 32<113.777 203.688>
VStem: 24.5 26<356.285 393.712> 37.5 71<608 684.615> 222.5 90<580.072 686.565> 286.5 29<445.722 495.032>
LayerCount: 2
Back
SplineSet
128 72 m 4x68
 84 59 81 59 81 22 c 4
 81 15 81 6 81 -4 c 7
 81 -16 81 -26 81 -34 c 4
 81 -72 82 -77 97 -77 c 7
 104 -77 115 -73 133 -67 c 4
 172 -54 174 -54 174 -0 c 4
 174 5 174 10 174 16 c 7
 174 25 174 32 174 39 c 4
 174 76 173 78 153 78 c 7
 147 78 139 75 128 72 c 4x68
35 38 m 4
 29 38 18 34 13 34 c 4
 1 34 1 46 1 70 c 4
 1 79 0 86 0 93 c 4
 0 107 3 117 23 123 c 4
 46 130 47 134 47 164 c 4
 47 167 47 169 47 172 c 7
 47 188 45 251 45 284 c 7
 45 307 50 312 70 312 c 7
 82 312 88 307 88 287 c 7
 88 259 86 227 86 172 c 7
 86 156 89 150 100 150 c 4
 106 150 115 152 127 156 c 4
 160 166 169 162 169 213 c 7xaa
 169 244 167 288 167 323 c 7xac
 167 346 169 352 190 352 c 7
 208 352 210 344 210 331 c 4
 210 327 210 322 210 317 c 7
 210 282 208 259 208 223 c 7
 208 198 209 186 220 186 c 4
 226 186 238 191 243 191 c 4
 254 191 254 180 254 154 c 7
 254 101 250 107 231 101 c 4
 213 95 208 93 208 27 c 7
 208 9 208 -4 208 -13 c 4x1a
 208 -31 209 -36 216 -36 c 4
 220 -36 233 -32 239 -32 c 4
 253 -32 254 -47 254 -63 c 4
 254 -66 254 -69 254 -72 c 7
 254 -108 252 -114 230 -121 c 4
 207 -128 206 -134 206 -169 c 7
 206 -232 209 -225 209 -277 c 7
 209 -294 204 -301 187 -301 c 7
 168 -301 167 -290 167 -271 c 7x1c
 167 -230 169 -206 169 -165 c 7
 169 -152 168 -146 159 -146 c 4x5a
 153 -146 142 -149 124 -154 c 4
 92 -164 85 -171 85 -189 c 7
 85 -298 88 -268 88 -309 c 7
 88 -312 88 -314 88 -316 c 4
 88 -329 87 -339 69 -339 c 4
 54 -339 46 -328 46 -315 c 31
 46 -280 48 -264 48 -225 c 7
 48 -193 46 -183 37 -183 c 4
 31 -183 16 -189 11 -189 c 4
 2 -189 1 -181 1 -162 c 4
 1 -158 1 -153 1 -148 c 4
 1 -141 1 -135 1 -130 c 4
 1 -109 3 -104 23 -98 c 4x8a
 45 -91 47 -93 47 -57 c 4
 47 -46 47 -33 47 -15 c 7
 47 25 47 38 35 38 c 4
EndSplineSet
Fore
SplineSet
182.5 734 m 0xac
 256.5 734 312.5 686 312.5 626 c 0
 312.5 565 266.5 546 208.5 533 c 0
 182.5 527 147.5 516 119.5 494 c 0
 100.5 479 109.5 466 126.5 466 c 0x6c
 176.5 466 205.5 434 241.5 434 c 0
 267.5 434 278.5 449 286.5 469 c 0
 290.5 482 296.5 496 304.5 496 c 0
 312.5 496 315.5 490 315.5 482 c 0
 315.5 430 274.5 356 217.5 356 c 0xa2
 171.5 356 156.5 410 99.5 410 c 0x62
 82.5 410 58.5 399 50.5 372 c 0
 46.5 360 42.5 356 34.5 356 c 0
 28.5 356 24.5 362 24.5 376 c 0xb2
 26.5 453 79.5 512 137.5 542 c 0
 195.5 571 222.5 584 222.5 634 c 0
 222.5 678 201.5 702 158.5 702 c 0
 136.5 702 108.5 694 108.5 675 c 0
 108.5 654 144.5 655 144.5 612 c 0
 144.5 589 128.5 564 96.5 564 c 0
 50.5 564 37.5 594 37.5 622 c 0
 37.5 684 91.5 734 182.5 734 c 0xac
EndSplineSet
EndChar

StartChar: guillemotright
Encoding: 187 187 48
Width: 0
VWidth: 1360
Flags: HW
HStem: 353 33<111.347 205.37> 530 31<113.071 198.112> 699 32<105.567 204.566>
VStem: 32 79<394.757 474.857> 39 65<618.5 691.177> 216 85<577.485 690.261> 218 90<397.682 510.704>
LayerCount: 2
Back
SplineSet
39 430 m 4xf1
 56 430 57 417 57 400 c 4
 57 398 57 396 57 394 c 4
 57 279 49 202 49 140 c 4
 49 135 49 131 49 127 c 4
 49 116 50 110 59 110 c 4
 71 110 86 143 131 143 c 7
 157 143 178 137 195 121 c 4
 202 115 207 108 212 108 c 7
 217 108 218 114 218 121 c 4
 218 127 217 134 217 142 c 4
 213 219 207 290 207 388 c 4
 207 428 213 430 237 430 c 7
 262 430 264 420 264 403 c 4
 264 402 264 401 264 400 c 4
 264 398 264 396 264 394 c 4xf5
 264 279 255 202 255 140 c 4
 255 135 255 131 255 127 c 4
 255 116 256 110 266 110 c 4
 278 110 281 141 337 141 c 4
 391 141 433 108 433 47 c 4
 433 -4 408 -46 366 -69 c 4
 294 -109 251 -172 231 -172 c 4
 219 -172 219 -156 219 -144 c 4
 219 -104 221 -79 221 -44 c 4
 221 -33 219 -24 215 -24 c 7
 208 -24 206 -28 200 -34 c 5
 189 -48 176 -59 160 -69 c 4
 89 -112 44 -172 25 -172 c 4
 13 -172 13 -156 13 -144 c 4
 13 -98 15 -71 15 -24 c 4xeb
 15 137 0 227 0 388 c 4
 0 428 3 430 39 430 c 4xf1
106 99 m 4
 50 99 50 4 50 -63 c 6
 50 -79 l 6xe9
 50 -98 51 -104 57 -104 c 4
 84 -104 143 -9 143 52 c 4
 143 75 130 99 106 99 c 4
312 99 m 4
 256 99 256 4 256 -63 c 6
 256 -79 l 6xe3
 256 -98 257 -104 264 -104 c 4xe5
 291 -104 349 -9 349 52 c 4
 349 75 336 99 312 99 c 4
EndSplineSet
Fore
SplineSet
165 731 m 4xec
 247 731 301 692 301 634 c 4xec
 301 585 274 570 252 563 c 4
 238 557 231 555 231 549 c 4
 231 542 238 540 251 534 c 4
 275 523 308 504 308 454 c 4
 308 386 235 353 167 353 c 4
 93 353 32 389 32 452 c 4
 32 487 60 510 88 510 c 4
 114 510 141 493 141 460 c 4
 141 414 111 421 111 402 c 4
 111 392 126 386 151 386 c 4
 219 386 218 421 218 458 c 4xf2
 218 533 174 528 130 530 c 4
 124 530 113 532 113 547 c 4
 113 558 121 561 129 561 c 4
 207 561 216 583 216 638 c 4
 216 681 203 699 156 699 c 4
 124 699 104 691 104 677 c 4
 104 658 140 663 140 620 c 4
 140 600 122 578 89 578 c 4
 62 578 39 602 39 635 c 4
 39 702 109 731 165 731 c 4xec
EndSplineSet
EndChar

StartChar: onequarter
Encoding: 188 188 49
Width: 0
VWidth: 1360
Flags: W
HStem: 360 30<118.504 162.898 252.92 297.497> 450 32<73.5343 162.32 253.071 324.498> 715 20G<132.5 144.5 220.5 230>
VStem: 118.5 119<674.352 727.736> 164.5 87<390.547 449.633 482.738 579.125>
LayerCount: 2
Fore
SplineSet
164.5 426 m 0xe8
 164.5 443 154.5 450 136.5 450 c 0
 27.5 450 l 0
 16.5 450 15.5 462 15.5 466 c 0
 15.5 473 17.5 477 29.5 494 c 0
 93.5 587 99.5 633 118.5 713 c 0
 122.5 731 128.5 735 136.5 735 c 0
 152.5 735 154.5 728 181.5 728 c 0
 209.5 728 214.5 735 226.5 735 c 0
 233.5 735 237.5 731 237.5 721 c 0xf0
 237.5 700 216.5 670 158.5 602 c 0
 122.5 561 98.5 533 81.5 515 c 0
 64.5 495 66.5 482 92.5 482 c 0
 135.5 482 l 0
 155.5 482 164.5 495 164.5 509 c 0
 164.5 531 l 0
 164.5 545 166.5 558 174.5 566 c 0
 223.5 622 l 0
 229.5 629 251.5 646 251.5 616 c 0
 251.5 510 l 0
 251.5 497 255.5 482 276.5 482 c 0
 305.5 482 l 0
 322.5 482 324.5 476 324.5 466 c 0
 324.5 457 324.5 450 305.5 450 c 0
 275.5 450 l 0
 261.5 450 251.5 442 251.5 430 c 0
 251.5 419 l 0xe8
 251.5 396 257.5 392 277.5 390 c 0
 293.5 389 297.5 387 297.5 375 c 0
 297.5 364 295.5 360 279.5 360 c 0
 138.5 360 l 0
 122.5 360 118.5 363 118.5 375 c 0xf0
 118.5 387 124.5 389 138.5 390 c 0
 158.5 392 164.5 398 164.5 419 c 0
 164.5 426 l 0xe8
EndSplineSet
EndChar

StartChar: onehalf
Encoding: 189 189 50
Width: 0
VWidth: 1360
Flags: HW
HStem: 353 32<111.54 187.993> 562 24<96.4922 174.592> 654 65<94.2023 241.17> 661 70<67.5 160.439>
VStem: 37 74<388.344 468.911> 51 31<586.003 659.885> 212 91<411.028 547.923>
LayerCount: 2
Back
SplineSet
146 32 m 6x8458
 146 70 144 80 131 80 c 4
 116 80 79 67 65 62 c 4
 47 56 46 46 46 16 c 4
 46 11 46 4 46 -3 c 6
 46 -53 l 6
 46 -75 46 -83 56 -83 c 4
 61 -83 116 -67 129 -62 c 4
 141 -57 143 -52 144 -46 c 4
 146 -37 146 -17 146 1 c 6
 146 32 l 6x8458
128 -167 m 4x2428
 119 -167 34 -202 22 -202 c 4
 8 -202 8 -188 8 -149 c 4
 8 -148 8 -146 8 -145 c 7x8068
 8 -24 9 3 9 55 c 7
 9 179 0 250 0 300 c 6
 0 319 l 6
 0 345 1 360 22 360 c 7
 45 360 51 357 51 334 c 7
 51 235 50 252 50 196 c 7
 50 173 54 167 63 167 c 4x8288
 72 167 85 173 119 185 c 4
 144 195 160 203 170 203 c 4
 181 203 184 193 184 162 c 7
 184 79 182 75 182 -52 c 7x0498
 182 -190 192 -214 192 -342 c 7
 192 -357 180 -360 168 -360 c 7
 163 -360 158 -361 155 -361 c 4
 146 -361 141 -356 141 -320 c 7
 141 -315 142 -261 142 -218 c 7
 142 -214 142 -209 142 -206 c 4
 142 -175 138 -167 128 -167 c 4x2428
370 72 m 4
 326 59 323 59 323 22 c 4
 323 15 323 6 323 -4 c 7
 323 -16 323 -26 323 -34 c 4
 323 -72 324 -77 339 -77 c 7
 346 -77 357 -73 375 -67 c 4
 414 -54 416 -54 416 -0 c 4
 416 5 416 10 416 16 c 7
 416 25 416 32 416 39 c 4
 416 76 415 78 395 78 c 7x1808
 389 78 381 75 370 72 c 4
277 38 m 4
 271 38 260 34 255 34 c 4
 243 34 243 46 243 70 c 4
 243 79 242 86 242 93 c 4
 242 107 245 117 265 123 c 4
 288 130 289 134 289 164 c 4
 289 167 289 169 289 172 c 7
 289 188 287 251 287 284 c 7
 287 307 292 312 312 312 c 7
 324 312 330 307 330 287 c 7
 330 259 328 227 328 172 c 7
 328 156 331 150 342 150 c 4
 348 150 357 152 369 156 c 4
 402 166 411 162 411 213 c 7x480a
 411 244 409 288 409 323 c 7x480c
 409 346 411 352 432 352 c 7
 450 352 452 344 452 331 c 4
 452 327 452 322 452 317 c 7
 452 282 450 259 450 223 c 7
 450 198 451 186 462 186 c 4
 468 186 480 191 485 191 c 4
 496 191 496 180 496 154 c 7
 496 101 492 107 473 101 c 4
 455 95 450 93 450 27 c 7
 450 9 450 -4 450 -13 c 4x010a
 450 -31 451 -36 458 -36 c 4
 462 -36 475 -32 481 -32 c 4
 495 -32 496 -47 496 -63 c 4
 496 -66 496 -69 496 -72 c 7
 496 -108 494 -114 472 -121 c 4
 449 -128 448 -134 448 -169 c 7
 448 -232 451 -225 451 -277 c 7
 451 -294 446 -301 429 -301 c 7
 410 -301 409 -290 409 -271 c 7x010c
 409 -230 411 -206 411 -165 c 7
 411 -152 410 -146 401 -146 c 4x110a
 395 -146 384 -149 366 -154 c 4
 334 -164 327 -171 327 -189 c 7
 327 -298 330 -268 330 -309 c 7
 330 -312 330 -314 330 -316 c 4
 330 -329 329 -339 311 -339 c 4
 296 -339 288 -328 288 -315 c 31
 288 -280 290 -264 290 -225 c 7
 290 -193 288 -183 279 -183 c 4
 273 -183 258 -189 253 -189 c 4
 244 -189 243 -181 243 -162 c 4
 243 -158 243 -153 243 -148 c 4
 243 -141 243 -135 243 -130 c 4
 243 -109 245 -104 265 -98 c 4x400a
 287 -91 289 -93 289 -57 c 4
 289 -46 289 -33 289 -15 c 7
 289 25 289 38 277 38 c 4
EndSplineSet
Fore
SplineSet
74 731 m 0xd6
 96 731 124 719 165 719 c 0
 204 719 241 726 260 729 c 0
 277 732 282 727 275 713 c 0
 255 675 215 654 159 654 c 0xe6
 133 654 120 661 104 661 c 0
 94 661 85 654 84 643 c 0
 82 602 l 0xd6
 81 590 88 586 97 586 c 0
 113 586 125 598 177 598 c 0
 250 598 303 554 303 480 c 0
 303 415 252 353 151 353 c 0
 95 353 37 383 37 445 c 0
 37 476 55 503 93 503 c 0
 123 503 139 482 139 453 c 0
 139 421 111 415 111 400 c 0xda
 111 387 128 385 145 385 c 0
 207 385 212 440 212 481 c 0
 212 534 197 562 141 562 c 0
 109 562 87 548 75 530 c 0
 66 516 47 519 47 536 c 0
 47 545 50 568 51 588 c 0
 53 646 l 0
 55 674 53 696 55 715 c 0
 56 730 61 731 74 731 c 0xd6
EndSplineSet
EndChar

StartChar: threequarters
Encoding: 190 190 51
Width: 0
VWidth: 1360
Flags: HW
HStem: 356 32<134.296 213.223> 542 35<136.09 218.923> 701 31<141.096 222.275>
VStem: 31.5 87<441.345 643.031> 223.5 68<635.5 700.079> 229.5 79<406.683 535.12>
LayerCount: 2
Back
SplineSet
343 99 m 7xe8
 287 99 287 4 287 -63 c 6xd8
 287 -79 l 6
 287 -98 288 -104 294 -104 c 7
 320 -104 380 -9 380 52 c 7
 380 75 366 99 343 99 c 7xe8
276 430 m 7
 293 430 294 416 294 399 c 4
 294 398 294 396 294 394 c 7xe8
 294 271 286 200 286 127 c 4
 286 116 287 110 295 110 c 7
 308 110 312 141 368 141 c 7
 410 141 437 125 451 96 c 4
 458 82 464 66 464 47 c 7
 464 -4 438 -46 397 -69 c 4
 323 -109 281 -172 262 -172 c 7
 250 -172 250 -156 250 -144 c 31
 250 -97 252 -71 252 -24 c 31xd8
 252 137 237 227 237 388 c 7xe8
 237 428 239 430 276 430 c 7
146 32 m 6
 146 70 144 80 131 80 c 4
 116 80 79 67 65 62 c 4
 47 56 46 46 46 16 c 4
 46 11 46 4 46 -3 c 6
 46 -53 l 6
 46 -75 46 -83 56 -83 c 4
 61 -83 116 -67 129 -62 c 4
 141 -57 143 -52 144 -46 c 4
 146 -37 146 -17 146 1 c 6
 146 32 l 6
128 -167 m 4
 119 -167 34 -202 22 -202 c 4
 8 -202 8 -188 8 -149 c 4
 8 -148 8 -146 8 -145 c 7
 8 -24 9 3 9 55 c 7
 9 179 0 250 0 300 c 6
 0 319 l 6
 0 345 1 360 22 360 c 7
 45 360 51 357 51 334 c 7
 51 235 50 252 50 196 c 7
 50 173 54 167 63 167 c 4
 72 167 85 173 119 185 c 4
 144 195 160 203 170 203 c 4
 181 203 184 193 184 162 c 7
 184 79 182 75 182 -52 c 7
 182 -190 192 -214 192 -342 c 7
 192 -357 180 -360 168 -360 c 7
 163 -360 158 -361 155 -361 c 4
 146 -361 141 -356 141 -320 c 7
 141 -315 142 -261 142 -218 c 7
 142 -214 142 -209 142 -206 c 4
 142 -175 138 -167 128 -167 c 4
EndSplineSet
Fore
SplineSet
180.5 542 m 0xf4
 161.5 542 143.5 533 135.5 525 c 0
 122.5 512 118.5 507 118.5 454 c 0
 118.5 436 119.5 388 178.5 388 c 0
 225.5 388 229.5 436 229.5 474 c 0
 229.5 514 221.5 542 180.5 542 c 0xf4
190.5 732 m 0
 254.5 732 291.5 700 291.5 650 c 0
 291.5 621 269.5 595 236.5 595 c 0
 217.5 595 193.5 607 193.5 638 c 0
 193.5 674 223.5 671 223.5 687 c 0xf8
 223.5 696 215.5 701 192.5 701 c 0
 118.5 701 118.5 647 118.5 596 c 0
 118.5 566 126.5 566 135.5 566 c 0
 152.5 566 170.5 577 203.5 577 c 0
 271.5 577 308.5 534 308.5 472 c 0
 308.5 402 246.5 356 182.5 356 c 0
 78.5 356 31.5 450 31.5 542 c 0
 31.5 644 86.5 732 190.5 732 c 0
EndSplineSet
EndChar

StartChar: questiondown
Encoding: 191 191 52
Width: 0
VWidth: 1360
Flags: HW
HStem: 613 70<181.992 258.307> 662 70<97.368 178.903>
VStem: 29.9922 27<605.223 647 698.745 729.973> 77.9922 109<364.145 437.406> 284.992 27<690.931 729.985>
LayerCount: 2
Back
SplineSet
319 32 m 6xd158
 319 70 317 80 304 80 c 4
 289 80 252 67 238 62 c 4
 220 56 219 46 219 16 c 4
 219 11 219 4 219 -3 c 6
 219 -53 l 6
 219 -75 219 -83 229 -83 c 4
 234 -83 289 -67 302 -62 c 4
 314 -57 316 -52 317 -46 c 4
 319 -37 319 -17 319 1 c 6
 319 32 l 6xd158
301 -167 m 4xb128
 292 -167 207 -202 195 -202 c 4
 181 -202 181 -188 181 -149 c 4
 181 -148 181 -146 181 -145 c 7xc168
 181 -24 182 3 182 55 c 7
 182 179 173 250 173 300 c 6
 173 319 l 6
 173 345 174 360 195 360 c 7
 218 360 224 357 224 334 c 7
 224 235 223 252 223 196 c 7
 223 173 227 167 236 167 c 4xcb88
 245 167 258 173 292 185 c 4
 317 195 333 203 343 203 c 4
 354 203 357 193 357 162 c 7
 357 79 355 75 355 -52 c 7x9198
 355 -190 365 -214 365 -342 c 7
 365 -357 353 -360 341 -360 c 7
 336 -360 331 -361 328 -361 c 4
 319 -361 314 -356 314 -320 c 7
 314 -315 315 -261 315 -218 c 7
 315 -214 315 -209 315 -206 c 4
 315 -175 311 -167 301 -167 c 4xb128
537 -7 m 7
 537 -126 446 -265 420 -265 c 7
 414 -265 406 -263 406 -254 c 7
 406 -239 492 -171 492 8 c 7
 492 181 406 218 406 245 c 7
 406 252 408 264 421 264 c 7x8508
 433 264 537 151 537 -7 c 7
0 6 m 7
 0 125 91 264 117 264 c 7
 123 264 131 262 131 253 c 7
 131 238 45 170 45 -9 c 7
 45 -182 131 -219 131 -246 c 7
 131 -253 129 -265 116 -265 c 7
 104 -265 0 -152 0 6 c 7
EndSplineSet
Fore
SplineSet
235.992 618 m 0xb8
 226.992 615 215.992 613 203.992 613 c 0xb8
 159.992 613 153.992 662 105.992 662 c 0x78
 73.9922 662 58.9922 639 52.9922 611 c 0
 49.9922 597 27.9922 593 27.9922 613 c 0xb8
 27.9922 621 29.9922 633 29.9922 656 c 0
 29.9922 714 l 0
 29.9922 726 35.9922 730 42.9922 730 c 0
 48.9922 730 54.9922 721 56.9922 712 c 0
 61.9922 695 70.9922 692 89.9922 705 c 0
 105.992 715 117.992 732 152.992 732 c 0x78
 204.992 732 210.992 683 249.992 683 c 0
 270.992 683 281.992 699 284.992 716 c 0
 286.992 725 290.992 730 298.992 730 c 0
 312.992 730 311.992 715 311.992 702 c 0
 309.992 641 294.992 577 252.992 524 c 0
 208.992 469 194.992 434 186.992 370 c 0
 185.992 362 180.992 359 173.992 359 c 0
 162.992 359 154.992 364 132.992 364 c 0
 109.992 364 98.9922 358 88.9922 358 c 0
 80.9922 358 77.9922 362 77.9922 372 c 0
 77.9922 479 216.992 518 256.992 596 c 0
 265.992 614 263.992 627 235.992 618 c 0xb8
EndSplineSet
EndChar

StartChar: Agrave
Encoding: 192 192 53
Width: 0
VWidth: 1360
Flags: HW
HStem: 355 32<97.6896 231.139> 519 62<134.28 197.415> 700 31<104.74 230.086>
VStem: 27.5 33<417.299 495.116> 34.5 54<618.431 687.884> 245.5 67<402.99 477.052> 267.5 33<593.462 668.313>
LayerCount: 2
Back
SplineSet
274 99 m 7xe8
 218 99 218 4 218 -63 c 6xd8
 218 -79 l 6
 218 -98 219 -104 225 -104 c 7
 251 -104 311 -9 311 52 c 7
 311 75 297 99 274 99 c 7xe8
207 430 m 7
 224 430 225 416 225 399 c 4
 225 398 225 396 225 394 c 7xe8
 225 271 217 200 217 127 c 4
 217 116 218 110 226 110 c 7
 239 110 243 141 299 141 c 7
 341 141 368 125 382 96 c 4
 389 82 395 66 395 47 c 7
 395 -4 369 -46 328 -69 c 4
 254 -109 212 -172 193 -172 c 7
 181 -172 181 -156 181 -144 c 31
 181 -97 183 -71 183 -24 c 31xd8
 183 137 168 227 168 388 c 7xe8
 168 428 170 430 207 430 c 7
501 25 m 7
 501 -94 410 -233 384 -233 c 7
 378 -233 370 -231 370 -222 c 7
 370 -207 456 -139 456 40 c 7
 456 213 370 250 370 277 c 7
 370 284 372 296 385 296 c 7
 397 296 501 183 501 25 c 7
0 38 m 7
 0 157 91 296 117 296 c 7
 123 296 131 294 131 285 c 7
 131 270 45 202 45 23 c 7
 45 -150 131 -187 131 -214 c 7
 131 -221 129 -233 116 -233 c 7
 104 -233 0 -120 0 38 c 7
EndSplineSet
Fore
SplineSet
125.5 519 m 0xf4
 97.5 519 60.5 493 60.5 453 c 0
 60.5 410 116.5 387 168.5 387 c 0
 230.5 387 245.5 410 245.5 434 c 0
 245.5 479 175.5 519 125.5 519 c 0xf4
172.5 700 m 0
 141.5 700 88.5 694 88.5 656 c 0
 88.5 610 175.5 581 213.5 581 c 0
 238.5 581 267.5 595 267.5 628 c 0xea
 267.5 668 224.5 700 172.5 700 c 0
172.5 731 m 0
 233.5 731 300.5 697 300.5 628 c 0xea
 300.5 602 290.5 587 281.5 576 c 0
 273.5 567 268.5 561 268.5 554 c 0
 268.5 547 271.5 541 278.5 534 c 0
 292.5 519 312.5 501 312.5 466 c 0
 312.5 399 255.5 355 168.5 355 c 0
 97.5 355 27.5 388 27.5 453 c 0xf4
 27.5 490 44.5 508 58.5 521 c 0
 67.5 529 72.5 535 72.5 542 c 0
 72.5 549 65.5 556 56.5 568 c 0
 45.5 581 34.5 599 34.5 626 c 0
 34.5 700 99.5 731 172.5 731 c 0
EndSplineSet
EndChar

StartChar: Aacute
Encoding: 193 193 54
Width: 0
VWidth: 1360
Flags: W
HStem: 356 31<117.725 198.904> 473 20G<87 113> 511 35<121.077 203.91> 700 32<126.777 205.704>
VStem: 31.5 79<552.88 681.317> 48.5 68<387.921 452.5> 221.5 87<444.969 646.655>
LayerCount: 2
Back
SplineSet
275 72 m 4x6e40
 231 59 228 59 228 22 c 4
 228 15 228 6 228 -4 c 7
 228 -16 228 -26 228 -34 c 4
 228 -72 229 -77 244 -77 c 7
 251 -77 262 -73 280 -67 c 4
 319 -54 321 -54 321 -0 c 4
 321 5 321 10 321 16 c 7
 321 25 321 32 321 39 c 4
 321 76 320 78 300 78 c 7
 294 78 286 75 275 72 c 4x6e40
182 38 m 4
 176 38 165 34 160 34 c 4
 148 34 148 46 148 70 c 4
 148 79 147 86 147 93 c 4
 147 107 150 117 170 123 c 4
 193 130 194 134 194 164 c 4
 194 167 194 169 194 172 c 7
 194 188 192 251 192 284 c 7
 192 307 197 312 217 312 c 7
 229 312 235 307 235 287 c 7
 235 259 233 227 233 172 c 7
 233 156 236 150 247 150 c 4
 253 150 262 152 274 156 c 4
 307 166 316 162 316 213 c 7xaec0
 316 244 314 288 314 323 c 7xaf40
 314 346 316 352 337 352 c 7
 355 352 357 344 357 331 c 4
 357 327 357 322 357 317 c 7
 357 282 355 259 355 223 c 7
 355 198 356 186 367 186 c 4
 373 186 385 191 390 191 c 4
 401 191 401 180 401 154 c 7
 401 101 397 107 378 101 c 4
 360 95 355 93 355 27 c 7
 355 9 355 -4 355 -13 c 4x1ec0
 355 -31 356 -36 363 -36 c 4
 367 -36 380 -32 386 -32 c 4
 400 -32 401 -47 401 -63 c 4
 401 -66 401 -69 401 -72 c 7
 401 -108 399 -114 377 -121 c 4
 354 -128 353 -134 353 -169 c 7
 353 -232 356 -225 356 -277 c 7
 356 -294 351 -301 334 -301 c 7
 315 -301 314 -290 314 -271 c 7x1f40
 314 -230 316 -206 316 -165 c 7
 316 -152 315 -146 306 -146 c 4x5ec0
 300 -146 289 -149 271 -154 c 4
 239 -164 232 -171 232 -189 c 7
 232 -298 235 -268 235 -309 c 7
 235 -312 235 -314 235 -316 c 4
 235 -329 234 -339 216 -339 c 4
 201 -339 193 -328 193 -315 c 31
 193 -280 195 -264 195 -225 c 7
 195 -193 193 -183 184 -183 c 4
 178 -183 163 -189 158 -189 c 4
 149 -189 148 -181 148 -162 c 4
 148 -158 148 -153 148 -148 c 4
 148 -141 148 -135 148 -130 c 4
 148 -109 150 -104 170 -98 c 4x8ec0
 192 -91 194 -93 194 -57 c 4
 194 -46 194 -33 194 -15 c 7
 194 25 194 38 182 38 c 4
557 -7 m 7
 557 -126 466 -265 440 -265 c 7
 434 -265 426 -263 426 -254 c 7
 426 -239 512 -171 512 8 c 7
 512 181 426 218 426 245 c 7
 426 252 428 264 441 264 c 7
 453 264 557 151 557 -7 c 7
0 6 m 7
 0 125 91 264 117 264 c 7
 123 264 131 262 131 253 c 7
 131 238 45 170 45 -9 c 7
 45 -182 131 -219 131 -246 c 7
 131 -253 129 -265 116 -265 c 7
 104 -265 0 -152 0 6 c 7
EndSplineSet
Fore
SplineSet
159.5 546 m 0xfa
 178.5 546 196.5 555 204.5 563 c 0
 217.5 576 221.5 581 221.5 634 c 0
 221.5 652 220.5 700 161.5 700 c 0
 114.5 700 110.5 652 110.5 614 c 0
 110.5 574 118.5 546 159.5 546 c 0xfa
149.5 356 m 0
 85.5 356 48.5 388 48.5 438 c 0
 48.5 467 70.5 493 103.5 493 c 0
 122.5 493 146.5 481 146.5 450 c 0
 146.5 414 116.5 417 116.5 401 c 0xf6
 116.5 392 124.5 387 147.5 387 c 0
 221.5 387 221.5 441 221.5 492 c 0
 221.5 522 213.5 522 204.5 522 c 0
 187.5 522 169.5 511 136.5 511 c 0
 68.5 511 31.5 554 31.5 616 c 0
 31.5 686 93.5 732 157.5 732 c 0
 261.5 732 308.5 638 308.5 546 c 0
 308.5 444 253.5 356 149.5 356 c 0
EndSplineSet
EndChar

StartChar: Acircumflex
Encoding: 194 194 55
Width: 1000
Flags: H
LayerCount: 2
Back
SplineSet
706 25 m 7xc8
 706 -94 615 -233 589 -233 c 7
 583 -233 575 -231 575 -222 c 7
 575 -207 661 -139 661 40 c 7
 661 213 575 250 575 277 c 7
 575 284 577 296 590 296 c 7
 602 296 706 183 706 25 c 7xc8
0 38 m 7
 0 157 91 296 117 296 c 7
 123 296 131 294 131 285 c 7
 131 270 45 202 45 23 c 7
 45 -150 131 -187 131 -214 c 7
 131 -221 129 -233 116 -233 c 7
 104 -233 0 -120 0 38 c 7
206 430 m 4
 223 430 224 417 224 400 c 4
 224 398 224 396 224 394 c 4
 224 279 216 202 216 140 c 4
 216 135 216 131 216 127 c 4
 216 116 217 110 226 110 c 4
 238 110 250 143 298 143 c 7
 324 143 345 137 362 121 c 4
 369 115 374 108 379 108 c 7
 384 108 385 114 385 121 c 4
 385 127 384 134 384 142 c 4
 380 219 374 290 374 388 c 4
 374 428 380 430 404 430 c 7
 429 430 431 420 431 403 c 4
 431 402 431 401 431 400 c 4
 431 398 431 396 431 394 c 4
 431 279 422 202 422 140 c 4
 422 135 422 131 422 127 c 4
 422 116 423 110 433 110 c 4
 445 110 448 141 504 141 c 4
 558 141 600 108 600 47 c 4
 600 -4 575 -46 533 -69 c 4
 461 -109 418 -172 398 -172 c 4
 386 -172 386 -156 386 -144 c 4
 386 -104 388 -79 388 -44 c 4
 388 -33 386 -24 382 -24 c 7
 375 -24 373 -28 367 -34 c 5
 356 -48 343 -59 327 -69 c 4
 256 -112 211 -172 192 -172 c 4
 180 -172 180 -156 180 -144 c 4
 180 -98 182 -71 182 -24 c 4
 182 137 167 227 167 388 c 4
 167 428 170 430 206 430 c 4
273 99 m 4
 217 99 217 4 217 -63 c 6
 217 -79 l 6
 217 -98 218 -104 224 -104 c 4
 251 -104 310 -9 310 52 c 4
 310 75 297 99 273 99 c 4
479 99 m 4
 423 99 423 4 423 -63 c 6
 423 -79 l 6
 423 -98 424 -104 431 -104 c 4
 458 -104 516 -9 516 52 c 4
 516 75 503 99 479 99 c 4
EndSplineSet
EndChar

StartChar: Atilde
Encoding: 195 195 56
Width: 1000
VWidth: 0
Flags: H
LayerCount: 2
Back
SplineSet
406 192 m 7
 437 192 500 76 500 1 c 7
 500 -80 437 -187 409 -187 c 7
 401 -187 392 -181 392 -175 c 7
 392 -163 466 -85 466 -5 c 7
 466 113 392 150 392 181 c 7
 392 188 400 192 406 192 c 7
94 -187 m 7
 63 -187 0 -71 0 4 c 7
 0 85 63 192 91 192 c 7
 99 192 108 186 108 180 c 7
 108 168 34 90 34 10 c 7
 34 -108 108 -145 108 -176 c 7
 108 -183 100 -187 94 -187 c 7
367 131 m 7
 373 131 373 129 373 125 c 4
 373 118 368 105 368 92 c 28
 368 78 372 71 372 58 c 7
 372 36 360 39 339 38 c 4
 313 37 295 31 283 20 c 4
 277 14 272 9 272 1 c 7
 272 -14 312 -30 347 -38 c 4
 366 -42 375 -40 375 -56 c 7
 375 -64 374 -69 374 -78 c 7
 374 -107 378 -108 378 -122 c 7
 378 -128 372 -133 364 -133 c 28
 349 -133 340 -124 325 -124 c 28
 315 -124 310 -126 299 -126 c 7
 285 -126 284 -111 284 -97 c 4
 284 -94 284 -91 284 -87 c 7
 284 -26 254 -15 251 -15 c 7
 239 -15 217 -73 211 -111 c 4
 209 -124 200 -131 188 -131 c 31
 175 -131 169 -125 156 -125 c 28
 147 -125 143 -127 134 -127 c 20
 129 -127 123 -124 123 -119 c 7
 123 -109 130 -105 130 -78 c 7
 130 -69 128 -64 128 -55 c 7
 128 -41 137 -40 155 -39 c 4
 187 -37 226 -23 226 2 c 7
 226 27 176 35 143 36 c 4
 133 36 122 36 122 45 c 7
 122 52 124 58 124 67 c 20
 124 81 120 89 120 103 c 4
 120 113 122 125 132 125 c 7
 142 125 142 121 176 121 c 7
 185 121 189 122 198 122 c 7
 211 122 211 107 211 96 c 4
 214 53 228 21 250 21 c 7
 274 21 279 69 283 102 c 4
 285 115 286 130 299 130 c 7
 307 130 312 126 330 126 c 7
 353 126 357 131 367 131 c 7
EndSplineSet
EndChar

StartChar: Adieresis
Encoding: 196 196 57
Width: 1000
VWidth: 0
Flags: H
LayerCount: 2
Back
SplineSet
112 23 m 6xea
 112 53 107 59 97 59 c 4
 85 59 66 51 55 47 c 4
 43 43 39 34 39 11 c 6
 39 -38 l 6
 39 -55 45 -58 53 -58 c 4
 57 -58 86 -49 96 -45 c 4
 109 -40 112 -29 112 -16 c 4
 112 -12 112 -8 112 0 c 6
 112 23 l 6xea
93 -113 m 7
 89 -113 77 -114 60 -121 c 5
 34 -130 35 -131 22 -131 c 7
 7 -131 6 -121 6 -100 c 4
 6 -98 6 -95 6 -92 c 6
 6 -89 l 6xec
 6 7 7 2 7 43 c 7
 7 141 0 192 0 232 c 6
 0 247 l 6
 0 267 1 279 18 279 c 7
 36 279 43 277 43 259 c 7
 43 181 42 190 42 146 c 7
 42 121 48 114 58 114 c 7
 68 114 73 116 94 124 c 4
 114 132 123 135 130 135 c 4
 139 135 146 130 146 106 c 7
 146 40 144 59 144 -41 c 7xf2
 144 -150 152 -163 152 -264 c 7
 152 -276 142 -279 133 -279 c 6
 118 -279 l 6
 111 -279 107 -275 107 -247 c 7xe4
 107 -243 109 -182 109 -148 c 6
 109 -137 l 6
 109 -114 102 -113 95 -113 c 4
 94 -113 94 -113 93 -113 c 7
EndSplineSet
EndChar

StartChar: Aring
Encoding: 197 197 58
Width: 1000
VWidth: 0
Flags: H
LayerCount: 2
Back
SplineSet
87 69 m 7xec
 56 69 46 36 46 3 c 4
 46 -4 46 -11 46 -19 c 14
 46 -57 l 30
 46 -63 49 -68 55 -68 c 7
 76 -68 113 -10 113 36 c 7
 113 57 104 69 87 69 c 7xec
27 350 m 7
 50 350 51 339 51 319 c 4
 51 317 51 316 51 315 c 7xf4
 51 282 45 188 45 106 c 15
 45 100 50 94 56 94 c 7
 68 94 73 115 113 115 c 7
 160 115 180 76 180 35 c 31
 180 -15 152 -43 109 -73 c 4
 53 -112 41 -133 27 -133 c 7
 15 -133 13 -119 13 -108 c 31xec
 13 -61 15 -34 15 13 c 31
 15 131 0 261 0 314 c 7xf4
 0 341 9 350 27 350 c 7
EndSplineSet
EndChar

StartChar: AE
Encoding: 198 198 59
Width: 1000
VWidth: 0
Flags: H
LayerCount: 2
Back
SplineSet
95 54 m 4xf180
 70 45 68 39 68 9 c 4
 68 2 68 -6 68 -16 c 7
 68 -51 72 -62 84 -62 c 4
 89 -62 97 -59 106 -56 c 4
 135 -45 136 -43 136 8 c 6
 136 12 l 6
 136 45 136 60 120 60 c 4
 114 60 106 58 95 54 c 4xf180
25 22 m 4
 22 22 17 21 13 21 c 4
 -0 21 -0 35 0 57 c 4
 0 58 -0 58 -0 59 c 4xf8
 -0 71 0 83 15 89 c 4
 33 96 35 105 35 117 c 4
 35 120 35 124 35 127 c 15xf2
 35 157 34 179 34 203 c 7
 34 205 34 206 34 207 c 4
 34 227 35 238 54 238 c 7
 76 238 77 232 77 209 c 7xf4
 77 182 76 168 76 141 c 7
 76 127 77 118 88 118 c 4
 92 118 96 119 103 122 c 4
 128 130 129 136 129 152 c 31
 129 185 128 204 128 237 c 7
 128 243 128 247 128 251 c 4
 128 268 130 271 150 271 c 7
 160 271 171 270 171 256 c 7
 171 236 169 195 169 175 c 7xf8
 169 156 172 151 179 151 c 4
 182 151 188 153 191 153 c 4
 200 153 205 147 205 123 c 6
 205 121 l 6xf2
 205 94 205 90 188 84 c 4
 170 77 168 72 168 49 c 4
 168 43 168 36 168 27 c 7xf080
 168 -6 169 -22 182 -22 c 4
 186 -22 191 -20 194 -20 c 4
 202 -20 205 -26 205 -47 c 4
 205 -50 205 -53 205 -56 c 4xf2
 205 -79 204 -84 188 -90 c 4
 170 -97 169 -106 169 -117 c 4
 169 -120 169 -122 169 -125 c 7xf8
 169 -140 171 -167 171 -202 c 6
 171 -204 l 6
 171 -230 171 -239 150 -239 c 4
 148 -239 146 -239 144 -239 c 4
 134 -239 128 -237 128 -215 c 4
 128 -184 130 -167 130 -137 c 23
 130 -127 129 -119 117 -119 c 4
 113 -119 108 -120 101 -122 c 4
 76 -131 75 -138 75 -155 c 7
 75 -188 77 -203 77 -238 c 7
 77 -261 75 -272 54 -272 c 7
 35 -272 34 -260 34 -248 c 31xf4
 34 -219 36 -205 36 -175 c 7
 36 -156 36 -150 28 -150 c 4
 25 -150 16 -154 12 -154 c 4
 4 -154 0 -147 0 -120 c 4
 0 -116 -0 -112 -0 -108 c 4xf8
 -0 -98 2 -90 18 -83 c 4
 36 -77 37 -70 37 -22 c 7
 37 12 36 22 25 22 c 4
EndSplineSet
EndChar

StartChar: Ccedilla
Encoding: 199 199 60
Width: 1000
VWidth: 0
Flags: H
LayerCount: 2
Back
SplineSet
27 350 m 4x8c04
 50 350 51 334 51 319 c 4
 51 317 51 316 51 315 c 4
 51 282 45 188 45 106 c 4
 45 100 50 94 56 94 c 4
 68 94 73 115 113 115 c 7xaa24
 139 115 145 100 156 100 c 7
 164 100 173 111 173 133 c 7xa844
 173 158 162 244 162 314 c 7
 162 341 171 350 189 350 c 4
 212 350 213 334 213 319 c 4
 213 317 213 316 213 315 c 4
 213 282 207 188 207 106 c 4
 207 100 212 94 218 94 c 4
 230 94 235 115 275 115 c 4
 322 115 342 76 342 35 c 4
 342 -16 314 -43 271 -73 c 4xa814
 215 -112 203 -133 189 -133 c 4x4814
 177 -133 175 -119 175 -108 c 4
 175 -82 176 -64 176 -42 c 7
 176 -37 174 -31 166 -31 c 7
 148 -31 138 -52 109 -73 c 4
 53 -112 41 -133 27 -133 c 4
 15 -133 13 -119 13 -108 c 4x888c
 13 -61 15 -34 15 13 c 4
 15 130 0 261 0 314 c 4
 0 341 9 350 27 350 c 4x8c04
85 70 m 7
 62 70 48 40 48 14 c 4
 48 -11 46 -33 46 -56 c 7
 46 -62 49 -68 55 -68 c 7x68a4
 76 -68 113 -10 113 36 c 7
 113 57 102 70 85 70 c 7
247 70 m 4
 224 70 210 40 210 14 c 4x6824
 210 -11 208 -33 208 -56 c 4x680c
 208 -62 211 -68 217 -68 c 4
 238 -68 275 -10 275 36 c 4
 275 57 264 70 247 70 c 4
EndSplineSet
EndChar

StartChar: aring
Encoding: 229 229 61
Width: 1000
VWidth: 0
Flags: H
LayerCount: 2
Back
SplineSet
28 338 m 7
 51 338 63 334 86 327 c 4
 176 301 365 258 478 230 c 4
 493 226 515 223 515 212 c 7
 515 200 500 197 488 196 c 4
 457 191 354 163 258 139 c 4
 180 119 119 108 82 95 c 4
 62 88 43 84 30 84 c 7
 21 84 0 94 0 110 c 7
 0 127 25 129 44 133 c 4
 128 152 204 173 255 182 c 4
 294 189 352 197 352 212 c 7
 352 221 329 224 314 228 c 4
 208 248 147 266 37 288 c 4
 20 292 4 298 4 318 c 7
 4 331 12 338 28 338 c 7
259 43 m 7
 280 43 301 29 301 8 c 31
 301 -17 294 -42 261 -42 c 7
 228 -42 214 -21 214 5 c 7
 214 27 229 43 259 43 c 7
EndSplineSet
EndChar

StartChar: ccedilla
Encoding: 231 231 62
Width: 1000
VWidth: 0
Flags: H
LayerCount: 2
Back
SplineSet
28 318 m 7
 51 318 63 314 86 307 c 4
 176 281 365 238 478 210 c 4
 493 206 515 203 515 192 c 7
 515 180 500 177 488 176 c 4
 457 171 354 143 258 119 c 4
 180 99 119 88 82 75 c 4
 62 68 43 64 30 64 c 7
 21 64 0 74 0 90 c 7
 0 107 25 109 44 113 c 4
 128 132 204 153 255 162 c 4
 294 169 352 177 352 192 c 7
 352 201 329 204 314 208 c 4
 208 228 147 246 37 268 c 4
 20 272 4 278 4 298 c 7
 4 311 12 318 28 318 c 7
30 0 m 7
 30 27 40 28 52 28 c 4
 52 28 53 28 54 28 c 7
 75 28 153 27 248 27 c 7
 372 27 422 28 460 28 c 7
 461 28 462 28 463 28 c 4
 474 28 485 27 485 0 c 7
 485 -27 476 -28 463 -28 c 4
 461 -28 459 -28 457 -28 c 7
 434 -28 359 -27 256 -27 c 7
 143 -27 59 -28 48 -28 c 7
 31 -28 30 -25 30 -10 c 4
 30 -7 30 -4 30 0 c 7
EndSplineSet
EndChar

StartChar: iacute
Encoding: 237 237 63
Width: 1000
VWidth: 0
Flags: H
LayerCount: 2
Back
SplineSet
239 63 m 7
 226 63 218 80 212 94 c 4
 195 135 173 190 154 228 c 4
 139 258 140 260 125 260 c 7
 116 260 108 236 97 213 c 4
 78 175 62 127 43 92 c 4
 34 75 26 65 20 65 c 7
 13 65 0 68 0 78 c 7
 0 85 4 97 14 119 c 4
 52 212 91 298 128 391 c 4
 131 397 151 461 163 461 c 7
 179 461 194 403 200 386 c 4
 262 240 262 250 306 137 c 4
 311 123 323 88 323 80 c 7
 323 65 303 62 280 62 c 4
 266 62 251 63 239 63 c 7
134 43 m 7
 155 43 176 29 176 8 c 31
 176 -17 169 -42 136 -42 c 7
 103 -42 89 -21 89 5 c 7
 89 27 104 43 134 43 c 7
EndSplineSet
EndChar

StartChar: Ccircumflex
Encoding: 264 264 64
Width: 1000
Flags: H
LayerCount: 2
Back
SplineSet
112 473 m 7
 102 473 80 460 61 414 c 4
 56 403 35 363 35 340 c 4
 35 331 39 325 48 325 c 6
 50 325 l 6
 81 325 129 407 129 453 c 7
 129 464 124 473 112 473 c 7
109 494 m 7
 131 494 131 475 149 475 c 7
 159 475 162 486 172 486 c 23
 173 486 175 486 176 486 c 4
 182 486 187 485 187 476 c 7
 187 457 177 443 158 394 c 4
 149 370 136 347 136 333 c 7
 136 325 140 322 146 322 c 23
 160 322 169 336 176 347 c 4
 179 352 185 370 193 370 c 7
 197 370 198 368 198 364 c 4
 198 362 197 359 196 356 c 4
 191 343 178 300 135 300 c 7
 97 300 112 332 96 332 c 7
 82 332 71 302 40 302 c 7
 17 302 0 328 0 350 c 7
 0 403 49 494 109 494 c 7
EndSplineSet
EndChar

StartChar: aogonek
Encoding: 261 261 65
Width: 1000
VWidth: -10
Flags: H
LayerCount: 2
Back
SplineSet
399 341 m 3xbf80
 385 341 367 305 367 292 c 3
 367 280 374 277 381 277 c 3
 402 277 420 285 440 285 c 3
 524 285 558 225 558 158 c 3
 558 96 499 27 450 7 c 0
 422 -4 386 -7 353 -7 c 3
 298 -7 249 33 249 87 c 3
 249 122 265 161 305 161 c 3
 328 161 350 149 350 120 c 3
 350 80 307 83 307 53 c 3
 307 35 317 21 352 21 c 3
 426 21 442 68 464 125 c 0
 472 146 486 179 486 206 c 0
 486 230 477 252 441 252 c 3
 364 252 347 205 323 205 c 3
 314 205 309 213 309 222 c 3
 309 259 338 309 351 337 c 0
 366 370 366 367 373 387 c 0
 378 403 390 434 415 434 c 3
 457 434 465 421 558 421 c 3
 577 421 588 424 607 424 c 3
 615 424 625 418 625 411 c 3
 625 381 488 341 399 341 c 3xbf80
154 49 m 7
 154 23 209 37 209 13 c 7
 209 -2 195 -2 180 -2 c 3
 134 -2 136 2 90 2 c 3
 80 2 53 1 45 1 c 3
 41 1 38 1 34 1 c 0
 11 1 0 2 0 14 c 0
 0 36 6 33 45 38 c 0x7f80
 67 42 73 52 81 69 c 0
 107 123 123.367 169.292 149 234 c 24
 155.359 250.053 163 268 163 276 c 3
 163 280 158 282 153 282 c 3
 131 282 89 240 74 240 c 3
 66 240 62 240 62 249 c 3
 62 261 81 278 88 285 c 2
 188 386 l 2
 200 398 232 439 245 439 c 3
 262 439 268 430 290 426 c 0
 296 425 302 423 302 416 c 3
 302 392 290 372 281 354 c 0
 245.611 276.788 212.718 195.375 180 114 c 0
 180 114 154 59 154 49 c 7
EndSplineSet
EndChar

StartChar: S
Encoding: 83 83 67
Width: 276
Flags: HMW
HStem: 560 20G<232 256>
VStem: 232 24<164.792 580>
LayerCount: 2
Fore
SplineSet
63 360 m 0
 243 360 l 0
 243 270 l 0
 63 270 l 0
 63 360 l 0
63 510 m 0
 243 510 l 0
 243 420 l 0
 63 420 l 0
 63 510 l 0
63 660 m 0
 243 660 l 0
 243 570 l 0
 63 570 l 0
 63 660 l 0
232 660 m 1
 256 660 l 1
 256 99 l 2
 256 61 226 19 177 -5 c 0
 154 -17 129 -22 107 -22 c 0
 62 -22 20 2 20 50 c 0
 20 89 50 131 99 155 c 0
 123 166 147 172 169 172 c 0
 183 172 197 170 210 165 c 0
 221 160 232 172 232 179 c 2
 232 660 l 1
EndSplineSet
EndChar

StartChar: less
Encoding: 60 60 68
Width: 280
Flags: HMW
HStem: 418 216<246.5 319.5>
VStem: 238 31<349 416.018 554.277 633.934> 448 32<143.246 303.543>
LayerCount: 2
Fore
SplineSet
265 106 m 2
 265 42 184 -20 106 -20 c 0
 62 -20 15 3 15 56 c 0
 15 120 96 182 174 182 c 0
 196 182 203 178 216 178 c 0
 226 178 235 183 235 202 c 2
 235 600 l 6
 235 620 237 630 248 630 c 0
 260 630 262 622 263 610 c 0
 266 540 326 489 347 468 c 0
 397 418 476 357 476 231 c 0
 476 168 454 112 432 82 c 0
 415 58 397 70 410 97 c 0
 421 118 445 158 445 231 c 0
 445 342.5 340 414 291 414 c 0
 267 414 265 391 265 356 c 2
 265 106 l 2
EndSplineSet
EndChar

StartChar: at
Encoding: 64 64 69
Width: 280
Flags: W
HStem: -20 202<92.6426 187.357> 517 216<242.5 315.5>
VStem: 235 30<178.322 332.647 653.277 732.883> 437.5 31<325.964 420.562> 445 31<60.9334 223.178>
LayerCount: 2
Back
SplineSet
258 106 m 6xe8
 258 42 177 -20 99 -20 c 4
 55 -20 8 3 8 56 c 4
 8 120 89 182 167 182 c 4
 189 182 195 179 208 179 c 4
 218 179 227 183 227 202 c 6
 227 713 l 6
 227 733 230 743 241 743 c 4
 253 743 255 735 256 723 c 4
 259 653 319 602 340 581 c 4
 390 531 451.5 471 451.5 369.5 c 4xf0
 451.5 343.193 444.438 317.06 434.61 293.358 c 5
 454.79 259.184 469 217.438 469 164 c 4
 469 101 447 45 425 15 c 4
 408 -9 389 4 402 31 c 4
 413 52 437 91 437 164 c 4
 437 267 333 347 284 347 c 4
 260 347 258 324 258 289 c 6
 258 106 l 6xe8
261.662 510.106 m 5
 277.651 457.062 322.448 418.552 340 401 c 4
 362.032 378.968 389.694 354.801 413.747 323.878 c 5
 417.29 337.661 419.5 352.852 419.5 369.5 c 4
 419.5 452 333 527 284 527 c 4
 271.603 527 265.076 520.863 261.662 510.106 c 5
EndSplineSet
Fore
SplineSet
280.069 470.333 m 0xf0
 300.229 431.606 332.679 403.321 347 389 c 0
 361.338 374.662 378.06 359.419 394.62 342 c 0
 422.941 312.209 437.5 325.565 437.5 363 c 0
 437.5 449 340 517 291 517 c 0
 265 517 266.217 496.943 280.069 470.333 c 0xf0
459.943 243.333 m 0
 469.886 217.158 476 187.1 476 152 c 0
 476 89 454 33 432 3 c 0
 415 -21 397 -9 410 18 c 0
 421 39 445 79 445 152 c 0xe8
 445 263.5 340 335 291 335 c 0
 267 335 265 312 265 277 c 2
 265 106 l 2
 265 42 184 -20 106 -20 c 0
 62 -20 15 3 15 56 c 0
 15 120 96 182 174 182 c 0
 196 182 203 178 216 178 c 0
 226 178 235 183 235 202 c 2
 235 703 l 2
 235 723 237 733 248 733 c 0
 260 733 262 725 263 713 c 0
 266 643 326 592 347 571 c 0
 397 521 468.5 449.5 468.5 363 c 0
 468.5 345.183 465.828 330.724 461.73 318.333 c 0
 449.799 282.255 446.805 277.922 459.943 243.333 c 0
EndSplineSet
EndChar

StartChar: degree
Encoding: 176 176 70
Width: 340
VWidth: 970
Flags: W
HStem: -35 32<97.6896 231.139> 129 62<134.28 197.415> 310 31<104.74 230.086>
VStem: 27.5 33<27.2989 105.116> 34.5 54<228.431 297.884> 245.5 67<12.9904 87.0524> 267.5 33<203.462 278.313>
LayerCount: 2
Back
SplineSet
13 59 m 7
 33 59 38 24 40 7 c 4
 53 -82 120 -161 150 -189 c 4
 260 -300 326 -423 326 -550 c 7
 326 -683 302 -806 267 -806 c 7
 257 -806 248 -800 248 -791 c 7
 248 -752 283 -731 283 -593 c 7
 283 -398 182 -283 102 -249 c 4
 84 -241 68 -233 56 -233 c 7
 31 -233 25 -303 25 -330 c 5
 0 -330 l 5
 0 -51 0 -12 0 39 c 7xa8
 0 49 3 59 13 59 c 7
EndSplineSet
Fore
SplineSet
125.5 129 m 0xf4
 97.5 129 60.5 103 60.5 63 c 0
 60.5 20 116.5 -3 168.5 -3 c 0
 230.5 -3 245.5 20 245.5 44 c 0
 245.5 89 175.5 129 125.5 129 c 0xf4
172.5 310 m 0
 141.5 310 88.5 304 88.5 266 c 0
 88.5 220 175.5 191 213.5 191 c 0
 238.5 191 267.5 205 267.5 238 c 0xea
 267.5 278 224.5 310 172.5 310 c 0
172.5 341 m 0
 233.5 341 300.5 307 300.5 238 c 0xea
 300.5 212 290.5 197 281.5 186 c 0
 273.5 177 268.5 171 268.5 164 c 0
 268.5 157 271.5 151 278.5 144 c 0
 292.5 129 312.5 111 312.5 76 c 0
 312.5 9 255.5 -35 168.5 -35 c 0
 97.5 -35 27.5 -2 27.5 63 c 0xf4
 27.5 100 44.5 118 58.5 131 c 0
 67.5 139 72.5 145 72.5 152 c 0
 72.5 159 65.5 166 56.5 178 c 0
 45.5 191 34.5 209 34.5 236 c 0
 34.5 310 99.5 341 172.5 341 c 0
EndSplineSet
EndChar

StartChar: plusminus
Encoding: 177 177 71
Width: 340
VWidth: 970
Flags: HW
HStem: -34 31<117.725 198.904> 121 35<121.077 203.91> 310 32<126.777 205.704>
VStem: 31.5 79<162.88 291.317> 48.5 68<-2.07857 62.5> 221.5 87<54.9691 256.655>
LayerCount: 2
Back
SplineSet
58 -141 m 7x20
 118 -141 249 -240 249 -364 c 7
 249 -388 245 -421 226 -421 c 7
 210 -421 221 -403 116 -301 c 4
 73 -259 42 -212 42 -174 c 7
 42 -173 42 -172 42 -170 c 4
 42 -156 44 -141 58 -141 c 7x20
259 -491 m 7
 259 -463 278 -447 278 -372 c 7
 278 -231 204 -156 103 -70 c 4
 57 -30 43 3 40 68 c 4
 40 72 40 78 40 84 c 4
 40 97 38 112 26 112 c 15
 12 112 0 102 0 87 c 6xa0
 0 -485 l 17
 25 -485 l 1
 25 -392 30 -357 57 -357 c 3
 72 -357 98 -372 123 -392 c 0
 193 -451 255 -578 255 -689 c 3
 255 -762 236 -783 236 -828 c 3
 236 -839 239 -855 251 -855 c 3
 270 -855 295 -765 295 -697 c 7x50
 295 -567 259 -563 259 -491 c 7
EndSplineSet
Fore
SplineSet
159.5 156 m 0xf4
 178.5 156 196.5 165 204.5 173 c 0
 217.5 186 221.5 191 221.5 244 c 0
 221.5 262 220.5 310 161.5 310 c 0
 114.5 310 110.5 262 110.5 224 c 0
 110.5 184 118.5 156 159.5 156 c 0xf4
149.5 -34 m 0
 85.5 -34 48.5 -2 48.5 48 c 0
 48.5 77 70.5 103 103.5 103 c 0
 122.5 103 146.5 91 146.5 60 c 0
 146.5 24 116.5 27 116.5 11 c 0xec
 116.5 2 124.5 -3 147.5 -3 c 0
 221.5 -3 221.5 51 221.5 102 c 0
 221.5 132 213.5 132 204.5 132 c 0
 187.5 132 169.5 121 136.5 121 c 0
 68.5 121 31.5 164 31.5 226 c 0
 31.5 296 93.5 342 157.5 342 c 0
 261.5 342 308.5 248 308.5 156 c 0
 308.5 54 253.5 -34 149.5 -34 c 0
EndSplineSet
EndChar

StartChar: uni00B5
Encoding: 181 181 72
Width: 1000
Flags: H
LayerCount: 2
Back
SplineSet
58 141 m 7x20
 118 141 249 240 249 364 c 7
 249 388 245 421 226 421 c 7
 210 421 221 403 116 301 c 4
 73 259 42 212 42 174 c 7
 42 173 42 172 42 170 c 4
 42 156 44 141 58 141 c 7x20
259 491 m 7
 259 463 278 447 278 372 c 7
 278 231 204 156 103 70 c 4
 57 30 43 -3 40 -68 c 4
 40 -72 40 -78 40 -84 c 4
 40 -97 38 -112 26 -112 c 15
 12 -112 0 -102 0 -87 c 6xa0
 0 485 l 21
 25 485 l 5
 25 392 30 357 57 357 c 7
 72 357 98 372 123 392 c 4
 193 451 255 578 255 689 c 7
 255 762 236 783 236 828 c 7
 236 839 239 855 251 855 c 7
 270 855 295 765 295 697 c 7x50
 295 567 259 563 259 491 c 7
EndSplineSet
EndChar

StartChar: paragraph
Encoding: 182 182 73
Width: 1000
Flags: H
LayerCount: 2
Back
SplineSet
268.232 -512.333 m 4xd0
 287.222 -560.656 298 -614.269 298 -676 c 4
 298 -738 275 -855 244 -855 c 4
 233 -855 231 -842 231 -832 c 4
 231 -815 254 -768 254 -671 c 4
 254 -534 172 -438 104 -397 c 4
 87 -387 71 -378 58 -378 c 4
 36 -378 28 -436 28 -485 c 5
 0 -485 l 5xa8
 0 -269.72 0 -35 0 85 c 4
 0 101 11.3818 112 26 112 c 4
 38 112 40 97 40 84 c 4
 40 78 40 72 40 68 c 4
 43 3 57 -30 103 -70 c 4
 204 -156 278 -231 278 -372 c 4
 278 -424.387 268.73 -447.988 263.14 -467 c 4
 257.182 -487.263 261.989 -496.447 268.232 -512.333 c 4xd0
227.333 -418.335 m 4
 246.333 -418.335 249 -388 249 -364 c 4x90
 249 -240 118 -141 58 -141 c 4
 42.5734 -141 42 -158.546 42 -174 c 4
 42 -212 75.0763 -260.86 116 -301.003 c 4
 148.902 -333.277 179.055 -365.945 204.951 -400.667 c 4
 209.782 -407.414 216.142 -418.335 227.333 -418.335 c 4
EndSplineSet
EndChar

StartChar: uni00B3
Encoding: 179 179 74
Width: 1000
Flags: H
LayerCount: 2
Back
SplineSet
232 791 m 3x60
 270 791 300 634 300 572 c 3
 300 407 203 275 134 181 c 0
 71 94 39 8 37 -37 c 0
 37 -47 32 -59 23 -59 c 3
 -0 -59 0 -52 0 16 c 3xa0
 0 136 0 204 0 324 c 25
 30 324 l 17
 30 275 38 241 60 241 c 3
 73 241 89 250 106 260 c 0
 174 301 256 409 256 605 c 3
 256 670 219 751 219 768 c 3
 219 778 221 791 232 791 c 3x60
EndSplineSet
EndChar

StartChar: Gcommaaccent
Encoding: 290 290 75
Width: 1000
Flags: H
LayerCount: 2
Back
SplineSet
54.9414 -67 m 29
 213 140 l 29
 331.089 -15 l 29
 449 140 l 29
 563.411 -9 l 21
 643.169 95.5 l 5
 665.822 66 l 5
 509 -140 l 13
 390.366 14.5 l 29
 272 -140 l 29
 157.337 9.33789 l 21
 78.2139 -96 l 13
 54.9414 -67 l 29
EndSplineSet
EndChar

StartChar: ecaron
Encoding: 283 283 76
Width: 1000
Flags: HM
LayerCount: 2
Back
SplineSet
86 60 m 4x9f80
 108 60 135 51 148 42 c 5
 190 155 l 5
 199 154 208 154 216 154 c 6
 239 154 l 5
 256 155 l 5
 197 10 l 5
 216 19 232 33 252 41 c 4
 271 49 290 54 306 54 c 4xaf80
 334 54 357 41 368 11 c 5
 386 26 420 47 450 47 c 4
 476 47 498 30 498 -1 c 4
 498 -32 485 -55 454 -55 c 4
 434 -55 424 -48 424 -28 c 4
 424 -21 425 -12 425 -5 c 4
 425 2 425 11 419 11 c 4xcf80
 412 11 399 0 397 -3 c 4
 382 -22 372 -46 361 -69 c 6
 284 -238 l 5
 211 -238 l 5
 291 -64 l 5
 302 -34 309 -12 309 0 c 4
 309 16 294 24 283 24 c 4xaf80
 252 24 208 -11 194 -18 c 5
 203 -45 213 -78 213 -114 c 4
 213 -166 198 -200 172 -225 c 4
 161 -235 146 -241 127 -241 c 4
 90 -241 66 -208 66 -172 c 4
 66 -145 75 -119 82 -99 c 5
 90 -80 l 5
 81 -82 73 -84 65 -84 c 4
 27 -84 2 -57 0 -21 c 4
 0 -19 0 -17 0 -15 c 4
 0 37 37 60 86 60 c 4x9f80
21 -22 m 4
 21 -45 40 -64 65 -64 c 4
 79 -64 95 -57 107 -48 c 5
 131 4 l 5
 131 27 108 37 84 37 c 4x9f80
 49 37 21 12 21 -22 c 4
120 -184 m 5
 120 -194 129 -205 138 -207 c 5
 177 -205 190 -165 190 -123 c 4
 190 -95 184 -66 176 -46 c 5
 173 -53 167 -64 161 -76 c 6
 143 -117 l 5
 127 -157 l 5
 120 -184 l 5
EndSplineSet
EndChar

StartChar: Gcircumflex
Encoding: 284 284 77
Width: 1000
VWidth: -2
Flags: H
LayerCount: 2
Back
SplineSet
214.45 10.3486 m 6xac
 182.05 10.3486 178.45 -1.35156 171.25 -25.6514 c 6
 133.45 -164.252 l 6
 128.05 -186.752 126.25 -211.952 145.15 -211.952 c 7
 176.65 -211.952 235.15 -132.752 252.25 -72.4521 c 6
 263.05 -33.752 l 6
 272.05 1.34863 266.65 10.3486 234.25 10.3486 c 14
 214.45 10.3486 l 6xac
230.65 184.948 m 6
 198.25 68.8486 l 6
 192.85 48.1484 202.75 44.5479 213.55 44.5479 c 14
 244.15 44.5479 l 6xac
 271.15 44.5479 275.65 56.248 289.15 56.248 c 7x9c
 296.35 56.248 302.65 55.3486 309.85 55.3486 c 7
 326.95 55.3486 333.25 58.0479 341.35 58.0479 c 7
 359.35 58.0479 347.65 35.5479 360.25 35.5479 c 7
 370.15 35.5479 383.65 64.3486 423.25 64.3486 c 7
 467.35 64.3486 483.55 30.874 483.55 -4.95215 c 31
 483.55 -34.3066 471.85 -61.6514 434.05 -61.6514 c 7xcc
 412.45 -61.6514 398.05 -41.8516 398.05 -21.1514 c 7
 398.05 -7.65137 400.75 1.34863 404.35 8.54785 c 4
 419.65 37.3486 404.35 43.6484 380.95 20.248 c 4
 353.05 -9.45215 322.45 -76.0518 305.35 -137.252 c 6
 282.85 -218.252 l 6
 276.55 -240.752 272.95 -247.052 252.25 -247.052 c 6
 219.85 -247.052 l 6
 211.75 -247.052 204.55 -240.752 206.35 -231.752 c 4
 213.55 -203.852 196.45 -211.952 180.25 -225.452 c 4
 168.55 -235.352 151.45 -249.752 117.25 -249.752 c 7
 28.1504 -249.752 60.5498 -160.651 73.1504 -117.452 c 6
 100.15 -19.3516 l 6
 107.35 7.64844 95.6504 10.3486 77.6504 10.3486 c 14
 53.3496 10.3486 l 6
 35.3496 10.3486 25.4502 12.1484 25.4502 23.8486 c 7
 25.4502 38.248 33.5498 44.5479 63.25 44.5479 c 6
 75.8496 44.5479 l 6
 109.15 44.5479 118.15 47.248 123.55 66.1484 c 6
 137.05 114.748 l 6
 143.35 134.548 146.05 138.148 159.55 147.148 c 4
 185.65 163.349 193.75 174.148 211.75 196.648 c 4
 221.65 209.248 236.95 208.349 230.65 184.948 c 6
EndSplineSet
EndChar

StartChar: hcircumflex
Encoding: 293 293 78
Width: 0
VWidth: 0
Flags: H
LayerCount: 2
Back
SplineSet
1100.98 15 m 5
 983.367 -140 l 5
 864.277 15 l 5
 746 -140 l 5
 626.91 15 l 5
 509 -140 l 5
 390 14 l 13
 272 -140 l 29
 158 9 l 21
 79 -96 l 13
 55 -67 l 29
 213 140 l 29
 331 -15 l 21
 449 140 l 13
 568 -15 l 21
 686 140 l 13
 805.367 -15 l 21
 923.367 140 l 13
 1041.95 -15.1816 l 21
 1159.95 139.818 l 13
 1274.03 -8.5 l 21
 1353.5 96.25 l 5
 1376.95 65.8184 l 5
 1219.95 -140.182 l 5
 1100.98 15 l 5
EndSplineSet
EndChar

StartChar: kgreenlandic
Encoding: 312 312 79
Width: 1000
Flags: H
LayerCount: 2
Back
SplineSet
-220 -38 m 1
 -220 -52 -223 -67 -228 -82 c 1
 -391 112 -392 350 -228 546 c 1
 -191 538 l 1
 -341 360 -349 144 -220 -38 c 1
EndSplineSet
EndChar

StartChar: A
Encoding: 65 65 80
Width: 280
Flags: HW
HStem: 548 202<92.6426 194.654>
VStem: 15 30<-52.8828 26.7229 347.353 551.678> 218 30<261.198 353.991 517.656 568.948> 225 31<447.476 569.051>
LayerCount: 2
Fore
SplineSet
60 210 m 0xe0
 46 183 45 163 71 163 c 0
 120 163 218 231 218 317 c 0
 218 354 203 368 175 338 c 0
 158 321 141 305 127 291 c 0
 113 277 80 248 60 210 c 0xe0
240 437 m 0
 227 402 230 398 242 362 c 0
 246 349 248 335 248 317 c 0xe0
 248 230 177 159 127 109 c 0
 106 88 46 37 43 -33 c 0
 42 -45 40 -53 28 -53 c 0
 17 -53 15 -43 15 -23 c 2
 15 624 l 2
 15 688 96 750 174 750 c 0
 218 750 265 727 265 674 c 0
 265 667 264 659 262 652 c 0
 249 607 242 599 252 556 c 0
 254 544 256 530 256 517 c 0xd0
 256 482 250 463 240 437 c 0
169 561 m 0
 149 553 127 548 106 548 c 0
 84 548 77 552 64 552 c 0
 54 552 45 547 45 528 c 2
 45 403 l 2
 45 368 47 345 71 345 c 0
 120 345 225 406 225 517 c 0xd0
 225 524 225 531 224 538 c 0
 219 577 206 576 169 561 c 0
EndSplineSet
EndChar

StartChar: X
Encoding: 88 88 81
Width: 0
Flags: HW
LayerCount: 2
Fore
SplineSet
-30 360 m 4
 150 360 l 4
 150 270 l 4
 -30 270 l 4
 -30 360 l 4
-30 510 m 0
 150 510 l 0
 150 420 l 0
 -30 420 l 0
 -30 510 l 0
-30 660 m 0
 150 660 l 0
 150 570 l 0
 -30 570 l 0
 -30 660 l 0
EndSplineSet
EndChar

StartChar: quotesingle
Encoding: 39 39 82
Width: 1000
Flags: HM
LayerCount: 2
Back
SplineSet
140 326 m 6
 150 326 157 322 157 307 c 6
 157 51 l 6
 157 31 160 29 183 27 c 4
 195 26 197 22 197 14 c 4
 197 3 192 0 175 0 c 6
 66 0 l 6
 44 0 42 4 42 14 c 4
 42 20 43 25 54 26 c 4
 85 29 86 30 86 75 c 6
 86 182 l 6
 86 194 86 206 80 206 c 4
 73 206 73 202 39 161 c 4
 35 156 28 153 24 153 c 4
 16 153 15 157 15 160 c 4
 15 162 17 167 18 170 c 4
 38 215 63 262 78 298 c 4
 89 325 99 326 110 326 c 6
 140 326 l 6
EndSplineSet
EndChar

StartChar: parenleft
Encoding: 40 40 83
Width: 344
Flags: HMW
LayerCount: 2
Back
SplineSet
161 145 m 4
 114.333 145 91 132.333 91 107 c 4
 91 92.333 101.333 73.667 130 39 c 4
 146 20.333 163 11 181 11 c 4
 228.333 11 252 24.333 252 51 c 4
 252 67.667 242 87.333 214 122 c 4
 200.667 137.333 183 145 161 145 c 4
172 175 m 0
 213.333 175 249.833 166.5 281.5 149.5 c 0
 313.167 132.5 329 108.667 329 78 c 0
 329 47.333 313.167 23.5 281.5 6.5 c 0
 249.833 -10.5 213.333 -19 172 -19 c 0
 130.667 -19 94.167 -10.5 62.5 6.5 c 0
 30.833 23.5 15 47.333 15 78 c 0
 15 108.667 30.833 132.5 62.5 149.5 c 0
 94.167 166.5 130.667 175 172 175 c 0
EndSplineSet
Fore
SplineSet
166 146 m 4
 119 146 83 132 83 107 c 4
 83 92 88 74 117 39 c 4
 133 20 146 10 176 10 c 4
 223 10 260 24 260 51 c 4
 260 68 255 87 227 122 c 4
 214 137 200 146 166 146 c 4
172 175 m 0
 213 175 250 166 282 150 c 0
 313 132 329 109 329 78 c 0
 329 47 313 24 282 6 c 0
 250 -10 213 -19 172 -19 c 0
 131 -19 94 -10 62 6 c 0
 31 24 15 47 15 78 c 0
 15 109 31 132 62 150 c 0
 94 166 131 175 172 175 c 0
EndSplineSet
EndChar

StartChar: parenright
Encoding: 41 41 84
Width: 344
Flags: HMW
LayerCount: 2
Fore
SplineSet
166 720 m 0
 119 720 83 706 83 681 c 0
 83 666 88 648 117 613 c 0
 133 594 146 584 176 584 c 0
 223 584 260 598 260 625 c 0
 260 642 255 661 227 696 c 0
 214 711 200 720 166 720 c 0
172 749 m 0
 213.333 749 249.833 740.5 281.5 723.5 c 0
 313.167 706.5 329 682.667 329 652 c 0
 329 621.333 313.167 597.5 281.5 580.5 c 0
 249.833 563.5 213.333 555 172 555 c 0
 130.667 555 94.167 563.5 62.5 580.5 c 0
 30.833 597.5 15 621.333 15 652 c 0
 15 682.667 30.833 706.5 62.5 723.5 c 0
 94.167 740.5 130.667 749 172 749 c 0
EndSplineSet
EndChar

StartChar: asterisk
Encoding: 42 42 85
Width: 390
Flags: HMW
LayerCount: 2
Fore
SplineSet
189 146 m 4
 142 146 106 132 106 107 c 4
 106 92 111 74 140 39 c 4
 156 20 169 10 199 10 c 4
 246 10 283 24 283 51 c 4
 283 68 278 87 250 122 c 4
 237 137 223 146 189 146 c 4
195 175 m 0
 232.627 175 266.878 167.407 297 153.807 c 0
 324.342 141.461 344 146.5 344 175.5 c 2
 344 218 l 2
 344 236 347 243 361 243 c 0
 374 243 375 235 375 220 c 2
 375 -61 l 2
 375 -79 373 -87 360 -87 c 0
 346 -87 344 -79 344 -63 c 2
 344 -9.5 l 2
 344 15 328.662 17.3398 298 2.64844 c 0
 267.888 -11.7783 233.044 -19 195 -19 c 0
 156.747 -19 121.74 -11.6748 91.5 2.87891 c 0
 59.9619 18.0566 46 17.5 46 -18.5 c 2
 46 -61 l 2
 46 -79 44 -87 31 -87 c 0
 17 -87 15 -79 15 -63 c 2
 15 218 l 2
 15 236 18 243 32 243 c 0
 45 243 46 235 46 220 c 2
 46 180 l 2
 46 142.5 58.1602 137.076 91.5 153.121 c 0
 121.74 167.675 156.747 175 195 175 c 0
EndSplineSet
EndChar

StartChar: plus
Encoding: 43 43 86
Width: 390
Flags: HMW
LayerCount: 2
Back
SplineSet
55 327 m 4
 57 327 68.3333 325.5 89 322.5 c 4
 109.667 319.5 133 318 159 318 c 4
 170.333 318 182 319.167 194 321.5 c 4
 206 323.833 213.333 325 216 325 c 4
 222 325 225 322 225 316 c 4
 225 308.667 220.333 299.667 211 289 c 4
 191.667 266.333 167.667 255 139 255 c 4
 135 255 126.167 256.5 112.5 259.5 c 4
 98.8333 262.5 86.6667 264 76 264 c 4
 68.6667 264 63.5 262.833 60.5 260.5 c 4
 57.5 258.167 55.6667 252.667 55 244 c 4
 55 241.333 54.5 235.833 53.5 227.5 c 4
 52.5 219.167 52 213 52 209 c 4
 52 198.333 54.6667 193 60 193 c 4
 63.3333 193 72.3333 195.667 87 201 c 4
 101.667 206.333 120.333 209 143 209 c 4
 174.333 209 200.167 199.5 220.5 180.5 c 4
 240.833 161.5 251 134.333 251 99 c 4
 251 71.6667 239 47 215 25 c 4
 191 3 158 -8 116 -8 c 4
 89.3333 -8 65.8333 -1 45.5 13 c 4
 25.1667 27 15 45.3333 15 68 c 4
 15 82 18.8333 93.8333 26.5 103.5 c 4
 34.1667 113.167 45 118 59 118 c 4
 83 118 95 105 95 79 c 4
 95 69.6667 92.1667 61.5 86.5 54.5 c 4
 80.8333 47.5 78 41.3333 78 36 c 4
 78 22.6667 90.6667 16 116 16 c 4
 152 16 170 45.6667 170 105 c 4
 170 153 150 177 110 177 c 4
 84 177 64.6667 168.333 52 151 c 4
 47.3333 143.667 40.6667 140 32 140 c 4
 26 140 23 145 23 155 c 4
 23 155.667 24.1667 170.833 26.5 200.5 c 4
 28.8333 230.167 30 260 30 290 c 4
 30 307 l 4
 30 320.333 38.3333 327 55 327 c 4
EndSplineSet
Fore
SplineSet
189 720 m 0
 142 720 106 706 106 681 c 0
 106 666 111 648 140 613 c 0
 156 594 169 584 199 584 c 0
 246 584 283 598 283 625 c 0
 283 642 278 661 250 696 c 0
 237 711 223 720 189 720 c 0
195 749 m 0
 232.627 749 266.878 741.407 297 727.807 c 0
 324.342 715.461 344 720.5 344 749.5 c 2
 344 792 l 2
 344 810 347 817 361 817 c 0
 374 817 375 809 375 794 c 2
 375 513 l 2
 375 495 373 487 360 487 c 0
 346 487 344 495 344 511 c 2
 344 564.5 l 2
 344 589 328.662 591.34 298 576.648 c 0
 267.888 562.222 233.044 555 195 555 c 0
 156.747 555 121.74 562.325 91.5 576.879 c 0
 59.9619 592.057 46 591.5 46 555.5 c 2
 46 513 l 2
 46 495 44 487 31 487 c 0
 17 487 15 495 15 511 c 2
 15 792 l 2
 15 810 18 817 32 817 c 0
 45 817 46 809 46 794 c 2
 46 754 l 2
 46 716.5 58.1602 711.076 91.5 727.121 c 0
 121.74 741.675 156.747 749 195 749 c 0
EndSplineSet
EndChar

StartChar: comma
Encoding: 44 44 87
Width: 540
Flags: HMW
LayerCount: 2
Back
SplineSet
144 162 m 4
 128.667 162 116.667 157.667 108 149 c 4
 97.3333 141.667 92 119.667 92 83 c 4
 92 42.3333 109.667 22 145 22 c 4
 175 22 190 48 190 100 c 4
 190 120.667 187 136.167 181 146.5 c 4
 175 156.833 162.667 162 144 162 c 4
157 328 m 4
 183.667 328 205 321.667 221 309 c 4
 237 296.333 245 281.333 245 264 c 4
 245 232 232 216 206 216 c 4
 181.333 216 169 226.667 169 248 c 4
 169 256.667 172 264.667 178 272 c 4
 184 279.333 187 285 187 289 c 4
 187 299.667 177 305 157 305 c 4
 138.333 305 123.833 299.667 113.5 289 c 4
 103.167 278.333 97 267.333 95 256 c 4
 93 244.667 92 230.667 92 214 c 4
 92 192 97 181 107 181 c 4
 110 181 l 4
 110.667 181 116.333 182.667 127 186 c 4
 137.667 189.333 151.333 191 168 191 c 4
 228.667 191 259 158.667 259 94 c 4
 259 67.3333 247.833 44.3333 225.5 25 c 4
 203.167 5.66667 177.667 -4 149 -4 c 4
 105.667 -4 72.5 12 49.5 44 c 4
 26.5 76 15 114.333 15 159 c 4
 15 207 27.6667 247.167 53 279.5 c 4
 78.3333 311.833 113 328 157 328 c 4
EndSplineSet
Fore
SplineSet
264 146 m 4
 217 146 181 132 181 107 c 4
 181 92 186 74 215 39 c 4
 231 20 244 10 274 10 c 4
 321 10 358 24 358 51 c 4
 358 68 353 87 325 122 c 4
 312 137 298 146 264 146 c 4
525 -41 m 2
 525 -59 523 -67 510 -67 c 0
 496 -67 494 -59 494 -43 c 2
 494 198 l 2
 494 216 497 223 511 223 c 0
 524 223 525 215 525 200 c 2
 525 -41 l 2
46 -41 m 2
 46 -59 44 -67 31 -67 c 0
 17 -67 15 -59 15 -43 c 2
 15 198 l 2
 15 216 18 223 32 223 c 0
 45 223 46 215 46 200 c 2
 46 -41 l 2
270 175 m 0
 307.627 175 341.878 167.407 372 153.807 c 0
 399.342 141.461 419 146.5 419 175.5 c 2
 419 218 l 2
 419 236 422 243 436 243 c 0
 449 243 450 235 450 220 c 2
 450 -61 l 2
 450 -79 448 -87 435 -87 c 0
 421 -87 419 -79 419 -63 c 2
 419 -9.5 l 2
 419 15 403.662 17.3398 373 2.64844 c 0
 342.888 -11.7783 308.044 -19 270 -19 c 0
 231.747 -19 196.74 -11.6748 166.5 2.87891 c 0
 134.962 18.0566 121 17.5 121 -18.5 c 2
 121 -61 l 2
 121 -79 119 -87 106 -87 c 0
 92 -87 90 -79 90 -63 c 2
 90 218 l 2
 90 236 93 243 107 243 c 0
 120 243 121 235 121 220 c 2
 121 180 l 2
 121 142.5 133.16 137.076 166.5 153.121 c 0
 196.74 167.675 231.747 175 270 175 c 0
EndSplineSet
EndChar

StartChar: hyphen
Encoding: 45 45 88
Width: 540
Flags: HMW
LayerCount: 2
Back
SplineSet
204 226 m 4
 203.333 226 202 225.667 200 225 c 4
 198 224.333 194.5 223.833 189.5 223.5 c 4
 184.5 223.167 178 223 170 223 c 4
 156.667 223 141.5 230.833 124.5 246.5 c 4
 107.5 262.167 93 270 81 270 c 4
 60.3333 270 47 258.667 41 236 c 4
 37.6667 226 33 221 27 221 c 4
 19 221 15 225.333 15 234 c 4
 15 235.333 15.1667 239.833 15.5 247.5 c 4
 15.8333 255.167 16 263 16 271 c 4
 16 312 l 4
 16 322.667 19.6667 328 27 328 c 4
 32.3333 328 36.3333 325 39 319 c 4
 41.6667 313 45.3333 310 50 310 c 4
 56 310 65.6667 313.333 79 320 c 4
 92.3333 326.667 106.333 330 121 330 c 4
 142.333 330 160.333 322.667 175 308 c 4
 189.667 293.333 201.667 286 211 286 c 4
 214.333 286 217.5 286.5 220.5 287.5 c 4
 223.5 288.5 225.833 289.5 227.5 290.5 c 4
 229.167 291.5 230.667 293.5 232 296.5 c 4
 233.333 299.5 234.333 301.667 235 303 c 4
 235.667 304.333 236.667 307 238 311 c 4
 239.333 315 240 317.333 240 318 c 4
 242.667 325.333 246.667 329 252 329 c 4
 258 329 261.667 327.833 263 325.5 c 4
 264.333 323.167 265 318.333 265 311 c 4
 265 245.667 246.667 189.333 210 142 c 4
 193.333 120.667 181.333 101.833 174 85.5 c 4
 166.667 69.1667 161 48.3333 157 23 c 4
 155 8.33333 151.667 0.333333 147 -1 c 4
 145 -1.66667 143 -2 141 -2 c 4
 138.333 -2 134 -1.5 128 -0.5 c 4
 122 0.5 115.667 1 109 1 c 4
 102.333 1 94.6667 0.5 86 -0.5 c 4
 77.3333 -1.5 72 -2 70 -2 c 4
 62.6667 -2 59 2 59 10 c 4
 59 27.3333 65.3333 46.1667 78 66.5 c 4
 90.6667 86.8333 104 103.833 118 117.5 c 4
 132 131.167 151 148.667 175 170 c 4
 181 175.333 188.5 183.833 197.5 195.5 c 4
 206.5 207.167 211 215.333 211 220 c 4
 211 224 208.667 226 204 226 c 4
EndSplineSet
Fore
SplineSet
264 720 m 0
 217 720 181 706 181 681 c 0
 181 666 186 648 215 613 c 0
 231 594 244 584 274 584 c 0
 321 584 358 598 358 625 c 0
 358 642 353 661 325 696 c 0
 312 711 298 720 264 720 c 0
525 533 m 2
 525 515 523 507 510 507 c 0
 496 507 494 515 494 531 c 2
 494 772 l 2
 494 790 497 797 511 797 c 0
 524 797 525 789 525 774 c 2
 525 533 l 2
46 533 m 2
 46 515 44 507 31 507 c 0
 17 507 15 515 15 531 c 2
 15 772 l 2
 15 790 18 797 32 797 c 0
 45 797 46 789 46 774 c 2
 46 533 l 2
270 749 m 0
 307.627 749 341.878 741.407 372 727.807 c 0
 399.342 715.461 419 720.5 419 749.5 c 2
 419 792 l 2
 419 810 422 817 436 817 c 0
 449 817 450 809 450 794 c 2
 450 513 l 2
 450 495 448 487 435 487 c 0
 421 487 419 495 419 511 c 2
 419 564.5 l 2
 419 589 403.662 591.34 373 576.648 c 0
 342.888 562.222 308.044 555 270 555 c 0
 231.747 555 196.74 562.325 166.5 576.879 c 0
 134.962 592.057 121 591.5 121 555.5 c 2
 121 513 l 2
 121 495 119 487 106 487 c 0
 92 487 90 495 90 511 c 2
 90 792 l 2
 90 810 93 817 107 817 c 0
 120 817 121 809 121 794 c 2
 121 754 l 2
 121 716.5 133.16 711.076 166.5 727.121 c 0
 196.74 741.675 231.747 749 270 749 c 0
EndSplineSet
EndChar

StartChar: period
Encoding: 46 46 89
Width: 1000
Flags: HMW
LayerCount: 2
Back
SplineSet
99 138 m 4
 86.3333 138 74.5 133.5 63.5 124.5 c 4
 52.5 115.5 47 104.667 47 92 c 4
 47 72 54.6667 55.8333 70 43.5 c 4
 85.3333 31.1667 106 25 132 25 c 4
 183.333 25 209 40 209 70 c 4
 209 84.6667 197.5 99.6667 174.5 115 c 4
 151.5 130.333 126.333 138 99 138 c 4
143 302 m 4
 125 302 108.167 298.5 92.5 291.5 c 4
 76.8333 284.5 69 273.333 69 258 c 4
 69 240.667 82.3333 225.667 109 213 c 4
 135.667 200.333 161.333 194 186 194 c 4
 196.667 194 205.667 198.667 213 208 c 4
 220.333 217.333 224 227.333 224 238 c 4
 224 256.667 216.5 272 201.5 284 c 4
 186.5 296 167 302 143 302 c 4
139 327 m 4
 217 327 256 296.667 256 236 c 4
 256 223.333 250.833 209.667 240.5 195 c 4
 230.167 180.333 225 172 225 170 c 4
 225 166 228.5 161.167 235.5 155.5 c 4
 242.5 149.833 249.5 142 256.5 132 c 4
 263.5 122 267 110.333 267 97 c 4
 267 67 255.333 42.3333 232 23 c 4
 208.667 3.66667 178 -6 140 -6 c 4
 105.333 -6 75.8333 1.5 51.5 16.5 c 4
 27.1667 31.5 15 53 15 81 c 4
 15 95 17.1667 106.833 21.5 116.5 c 4
 25.8333 126.167 30.3333 132.833 35 136.5 c 4
 48.5 147.5 l 4
 55 159 l 4
 46.5 172 l 4
 30 194 l 4
 22 234 l 4
 22 264.667 33.5 287.833 56.5 303.5 c 4
 79.5 319.167 107 327 139 327 c 4
EndSplineSet
EndChar

StartChar: slash
Encoding: 47 47 90
Width: 202
Flags: HMW
LayerCount: 2
Back
SplineSet
118 162 m 0
 136.667 162 152.167 168.333 164.5 181 c 0
 176.833 193.667 183 213.667 183 241 c 0
 183 255.667 179.167 269.667 171.5 283 c 0
 163.833 296.333 150 303 130 303 c 0
 111.333 303 99 297.833 93 287.5 c 0
 87 277.167 84 263 84 245 c 0
 84 224 l 0
 84 182.667 95.3333 162 118 162 c 0
118 -4 m 0
 91.3333 -4 69.6667 2.5 53 15.5 c 0
 36.3333 28.5 28 43 28 59 c 0
 28 71.6667 31.6667 82.3333 39 91 c 0
 46.3333 99.6667 55.6667 104 67 104 c 0
 91.6667 104 104 92.6667 104 70 c 0
 104 62.6667 101.833 55.8333 97.5 49.5 c 0
 93.1667 43.1667 91 38.6667 91 36 c 0
 91 25.3333 100.333 20 119 20 c 0
 161 20 182 50 182 110 c 0
 182 130.667 176 141 164 141 c 0
 163.333 141 157.667 139.667 147 137 c 0
 136.333 134.333 123 133 107 133 c 0
 45.6667 133 15 165.333 15 230 c 0
 15 256.667 26.1667 279.667 48.5 299 c 0
 70.8333 318.333 96.3333 328 125 328 c 0
 168.333 328 201.5 312 224.5 280 c 0
 247.5 248 259 209.667 259 165 c 0
 259 117 246.5 76.8333 221.5 44.5 c 0
 196.5 12.1667 162 -4 118 -4 c 0
EndSplineSet
Fore
SplineSet
0 -26 m 0
 0 37 62 95 129 95 c 0
 135 95 142 94 148 94 c 0
 161 94 172 97 172 116 c 0
 172 573 l 0
 172 597 173 602 187 602 c 0
 199 602 202 599 202 572 c 0
 202 27 l 0
 202 -37 141 -95 74 -95 c 0
 35 -95 0 -68 0 -26 c 0
EndSplineSet
EndChar

StartChar: exclam
Encoding: 33 33 91
Width: 147
Flags: W
HStem: 521 81<56.8462 127.154>
VStem: 52 80<525.393 597.581>
LayerCount: 2
Back
SplineSet
62 298 m 4
 64 298 74.1667 296.5 92.5 293.5 c 4
 110.833 290.5 131.667 289 155 289 c 4
 165.667 289 176.5 290 187.5 292 c 4
 198.5 294 204.667 295 206 295 c 4
 210.667 295 213 291.667 213 285 c 4
 213 277.667 209.667 270.333 203 263 c 4
 184.333 242.333 162.333 232 137 232 c 4
 133.667 232 126 233.333 114 236 c 4
 102 238.667 91 240 81 240 c 4
 72.3333 240 66.6667 237.333 64 232 c 4
 61.3333 226.667 60 218 60 206 c 4
 60 191 l 4
 60 183 63.3333 179 70 179 c 4
 72.6667 179 80 181 92 185 c 4
 104 189 120.667 191 142 191 c 4
 170 191 193.333 182.333 212 165 c 4
 230.667 147.667 240 123 240 91 c 4
 240 66.3333 229 43.8333 207 23.5 c 4
 185 3.16667 155 -7 117 -7 c 4
 92.3333 -7 70.8333 -0.666667 52.5 12 c 4
 34.1667 24.6667 25 42.6667 25 66 c 4
 25 77.3333 28.6667 86 36 92 c 4
 43.3333 98 52.3333 101 63 101 c 4
 84.3333 101 95 89.6667 95 67 c 4
 95 59 93.3333 52.8333 90 48.5 c 4
 86.6667 44.1667 85 40 85 36 c 4
 85 25.3333 94 20 112 20 c 4
 117 20 l 4
 149.667 20 166 45.3333 166 96 c 4
 166 139.333 148 161 112 161 c 4
 92 161 74.6667 154.333 60 141 c 4
 54 133.667 48.3333 130 43 130 c 4
 36.3333 130 33 134 33 142 c 4
 36 182 l 4
 38 209.333 39 236.333 39 263 c 4
 39 279 l 4
 39 291.667 46.6667 298 62 298 c 4
EndSplineSet
Fore
SplineSet
52 561 m 0
 52 584 70 602 92 602 c 0
 114 602 132 584 132 561 c 0
 132 539 114 521 92 521 c 0
 70 521 52 539 52 561 c 0
EndSplineSet
EndChar

StartChar: quotedbl
Encoding: 34 34 92
Width: 357
Flags: HMW
LayerCount: 2
Back
SplineSet
142 147 m 4
 130.667 147 119.667 142.333 109 133 c 4
 99 123 94 104 94 76 c 4
 94 66.667 94.5 59 95.5 53 c 4
 96.5 47 101 40.5 109 33.5 c 4
 117 26.5 128.667 23 144 23 c 4
 170.667 23 184 45.333 184 90 c 4
 184 109.333 181.333 123.667 176 133 c 4
 170.667 142.333 159.333 147 142 147 c 4
154 297 m 4
 178.667 297 198 291.167 212 279.5 c 4
 226 267.833 233 252 233 232 c 4
 233 220.667 229.333 211.833 222 205.5 c 4
 214.667 199.167 205.667 196 195 196 c 4
 175 196 165 207 165 229 c 4
 165 233.667 166.833 238.667 170.5 244 c 4
 174.167 249.333 176 254 176 258 c 4
 176 268.667 167.667 274 151 274 c 4
 113 274 94 247.333 94 194 c 4
 94 185.333 95.333 178.833 98 174.5 c 4
 100.667 170.167 102.833 167.833 104.5 167.5 c 4
 106.167 167.167 109 167 113 167 c 4
 115 167 119.833 168.167 127.5 170.5 c 4
 135.167 172.833 147.333 174 164 174 c 4
 218.667 174 246 144.333 246 85 c 4
 246 61 236 40.333 216 23 c 4
 196 5.66699 173 -3 147 -3 c 4
 107 -3 76.667 11.333 56 40 c 4
 35.333 68.667 25 103.333 25 144 c 4
 25 187.333 36.5 223.667 59.5 253 c 4
 82.5 282.333 114 297 154 297 c 4
EndSplineSet
Fore
SplineSet
283 58 m 0
 309 58 311 61 311 80 c 0
 311 99 l 0
 311 116 305 122 286 122 c 0
 72 122 l 0
 49 122 46 114 46 100 c 0
 46 76 l 0
 46 59 60 58 69 58 c 0
 283 58 l 0
73 0 m 0
 47 0 46 -5 46 -22 c 0
 46 -69 l 0
 46 -82 38 -83 30 -83 c 0
 20 -83 15 -81 15 -67 c 0
 15 240 l 0
 15 257 16 263 31 263 c 0
 44 263 46 257 46 243 c 0
 46 203 l 0
 46 180 58 179 72 179 c 0
 287 179 l 0
 300 179 311 181 311 202 c 0
 311 244 l 0
 311 263 320 263 326 263 c 0
 339 263 342 261 342 248 c 0
 342 -61 l 0
 342 -82 339 -83 327 -83 c 0
 315 -83 311 -80 311 -62 c 0
 311 -21 l 0
 311 -1 300 0 283 0 c 0
 73 0 l 0
EndSplineSet
EndChar

StartChar: numbersign
Encoding: 35 35 93
Width: 357
Flags: HMW
LayerCount: 2
Back
SplineSet
186 201 m 4
 184.667 201 182.167 200.833 178.5 200.5 c 4
 174.833 200.167 172 200 170 200 c 4
 166 200 l 4
 153.333 200 139.5 207.167 124.5 221.5 c 4
 109.5 235.833 96.3333 243 85 243 c 4
 66.3333 243 54 232.667 48 212 c 4
 45.3333 202.667 41.3333 198 36 198 c 4
 28.6667 198 25 202.333 25 211 c 4
 25 211.667 25.1667 215.5 25.5 222.5 c 4
 25.8333 229.5 26 236.667 26 244 c 4
 26 281 l 4
 26 290.333 29.3333 295 36 295 c 4
 40.6667 295 45 292.833 49 288.5 c 4
 53 284.167 57 282 61 282 c 4
 66.3333 282 74.3333 284.5 85 289.5 c 4
 95.6667 294.5 107.667 297 121 297 c 4
 139.667 297 155.5 291.333 168.5 280 c 4
 181.5 268.667 193 263 203 263 c 4
 214.333 263 223 271 229 287 c 4
 231.667 293 235 296 239 296 c 4
 245 296 248.667 295 250 293 c 4
 251.333 291 252 286.667 252 280 c 4
 252 221.333 235.333 170.333 202 127 c 4
 186 107 174.833 89.5 168.5 74.5 c 4
 162.167 59.5 157.333 41 154 19 c 4
 152 5 145.667 -2 135 -2 c 4
 132.333 -2 129 -1.83333 125 -1.5 c 4
 121 -1.16667 116 -1 110 -1 c 4
 104 -1 97.5 -1.16667 90.5 -1.5 c 4
 83.5 -1.83333 79 -2 77 -2 c 4
 68.3333 -2 64 4 64 16 c 4
 64 44 99.3333 89.3333 170 152 c 4
 179 160 l 4
 185 166 190 171.833 194 177.5 c 4
 198 183.167 200 188 200 192 c 4
 200 198 195.333 201 186 201 c 4
EndSplineSet
Fore
SplineSet
283 626 m 0
 309 626 311 629 311 648 c 0
 311 667 l 0
 311 684 305 690 286 690 c 0
 72 690 l 0
 49 690 46 682 46 668 c 0
 46 644 l 0
 46 627 60 626 69 626 c 0
 283 626 l 0
73 568 m 0
 47 568 46 563 46 546 c 0
 46 499 l 0
 46 486 38 485 30 485 c 0
 20 485 15 487 15 501 c 0
 15 808 l 0
 15 825 16 831 31 831 c 0
 44 831 46 825 46 811 c 0
 46 771 l 0
 46 748 58 747 72 747 c 0
 287 747 l 0
 300 747 311 749 311 770 c 0
 311 812 l 0
 311 831 320 831 326 831 c 0
 339 831 342 829 342 816 c 0
 342 507 l 0
 342 486 339 485 327 485 c 0
 315 485 311 488 311 506 c 0
 311 547 l 0
 311 567 300 568 283 568 c 0
 73 568 l 0
EndSplineSet
EndChar

StartChar: dollar
Encoding: 36 36 94
Width: 1000
Flags: HM
LayerCount: 2
Back
SplineSet
101 123 m 4
 89 123 78.5 119.333 69.5 112 c 4
 60.5 104.667 56 95 56 83 c 4
 56 65 62.5 50.6667 75.5 40 c 4
 88.5 29.3333 106.667 24 130 24 c 4
 177.333 24 201 37.3333 201 64 c 4
 201 77.3333 191.167 90.5 171.5 103.5 c 4
 151.833 116.5 128.333 123 101 123 c 4
141 272 m 4
 96.3333 272 74 259.333 74 234 c 4
 74 218 86 204.667 110 194 c 4
 134 183.333 157.333 178 180 178 c 4
 190 178 198 181.667 204 189 c 4
 210 196.333 213 205 213 215 c 4
 213 232.333 206.5 246.167 193.5 256.5 c 4
 180.5 266.833 163 272 141 272 c 4
137 296 m 4
 208.333 296 244 268.667 244 214 c 4
 244 202.667 239.833 191 231.5 179 c 4
 223.167 167 219 159 219 155 c 4
 219 149.667 224.667 141.167 236 129.5 c 4
 247.333 117.833 253 104 253 88 c 4
 253 60.6667 242.5 38.3333 221.5 21 c 4
 200.5 3.66667 172.667 -5 138 -5 c 4
 106.667 -5 80 1.66667 58 15 c 4
 36 28.3333 25 47.6667 25 73 c 4
 25 89.6667 27.8333 102.5 33.5 111.5 c 4
 39.1667 120.5 44.6667 127 50 131 c 4
 55.3333 135 58 139.333 58 144 c 4
 58 148 53.5 155.333 44.5 166 c 4
 35.5 176.667 31 192 31 212 c 4
 31 240 41.3333 261 62 275 c 4
 82.6667 289 107.667 296 137 296 c 4
EndSplineSet
EndChar

StartChar: percent
Encoding: 37 37 95
Width: 1000
Flags: HM
LayerCount: 2
Back
SplineSet
119 149 m 4xf4
 158.333 149 178 172 178 218 c 4
 178 229.333 173.833 241.167 165.5 253.5 c 4
 157.167 265.833 145.333 272 130 272 c 4
 102 272 88 255.667 88 223 c 4
 88 204 l 4
 88 167.333 98.333 149 119 149 c 4xf4
119 -3 m 4
 93 -3 72.833 2.66699 58.5 14 c 4
 44.167 25.333 37 40.667 37 60 c 4
 37 71.333 40.333 80.5 47 87.5 c 4
 53.667 94.5 62.333 98 73 98 c 4
 95 98 106 86.333 106 63 c 4xec
 106 57.667 105 52.667 103 48 c 4
 101 43.333 100 39 100 35 c 4
 100 25 106.333 20 119 20 c 4
 157.667 20 177 46.667 177 100 c 4
 177 108 175.5 114.167 172.5 118.5 c 4
 169.5 122.833 166.833 125.167 164.5 125.5 c 4
 162.167 125.833 159 126 155 126 c 4
 152.333 126 147.5 125 140.5 123 c 4
 133.5 121 122.667 120 108 120 c 4
 52.667 120 25 149.667 25 209 c 4
 25 233 35 253.667 55 271 c 4
 75 288.333 98 297 124 297 c 4
 164 297 194.333 282.667 215 254 c 4
 235.667 225.333 246 190.667 246 150 c 4
 246 106.667 234.833 70.333 212.5 41 c 4
 190.167 11.667 159 -3 119 -3 c 4
EndSplineSet
EndChar

StartChar: uni0013
Encoding: 19 19 96
Width: 276
Flags: HW
HStem: 560 20G<232 256>
VStem: 232 24<164.792 580>
LayerCount: 2
Back
SplineSet
107 -22 m 0
 62 -22 20 2 20 50 c 0
 20 89 50 131 99 155 c 0
 123 166 147 172 169 172 c 0
 214 172 256 148 256 99 c 0
 256 61 226 19 177 -5 c 0
 154 -17 129 -22 107 -22 c 0
232 530 m 1
 256 530 l 1
 256 99 l 1
 232 99 l 1
 232 530 l 1
-39 80 m 0
 23 110 90 98 112 54 c 0
 134 10 101 -50 39 -80 c 0
 -23 -110 -90 -98 -112 -54 c 0
 -134 -10 -101 50 -39 80 c 0
-89 0 m 0
 -89 69 -50 124 0 124 c 0
 50 124 89 69 89 0 c 0
 89 -69 50 -124 0 -124 c 0
 -50 -124 -89 -69 -89 0 c 0
EndSplineSet
Fore
SplineSet
232 530 m 5
 256 530 l 5
 256 99 l 2
 256 61 226 19 177 -5 c 0
 154 -17 129 -22 107 -22 c 0
 62 -22 20 2 20 50 c 0
 20 89 50 131 99 155 c 0
 123 166 147 172 169 172 c 0
 183 172 197 170 210 165 c 0
 221 160 232 172 232 179 c 2
 232 530 l 5
EndSplineSet
EndChar

StartChar: uni0016
Encoding: 22 22 97
Width: 456
Flags: W
VStem: 232 25<164.466 308.996 423.902 478.991 586.987 644.991 752.987 799> 406 30<35.9753 206.314 276.593 397.09 449.49 562.788>
LayerCount: 2
Back
SplineSet
323 293 m 4
 309 298 302 299 294 299 c 4
 288 299 284 294 284 290 c 6
 284 103 l 6
 284 59 250 13 194 -13 c 4
 169 -24 143 -30 119 -30 c 4
 67 -30 20 -3 20 51 c 4
 20 95 54 141 110 167 c 4
 135 178 161 184 185 184 c 4
 204 184 222 180 238 173 c 4
 249 168 259 176 259 184 c 6
 259 753 l 6
 259 755 259 756 262 756 c 6
 280 756 l 6
 282 756 284 756 284 753 c 4
 284 728 307 698 350 662 c 4
 411 612 479 554 479 474 c 4
 479 439 469 416 456 397 c 5
 470 373 479 347 479 318 c 4
 479 282 468 257 454 238 c 5
 469 210 479 177 479 139 c 4
 479 89 464 34 444 -1 c 4
 442 -5 439 -5 436 -3 c 6
 425 5 l 6
 423 6 422 7 424 11 c 4
 439 44 454 92 454 136 c 4
 454 206 397 266 323 293 c 4
454 315 m 4
 454 382 383 433 323 451 c 4
 314 454 302 456 293 456 c 4
 289 456 284 450 284 444 c 6
 284 441 l 6
 284 425 290 407 308 390 c 4
 350 350 404 312 440 261 c 5
 448 275 454 293 454 315 c 4
454 471 m 4
 454 538 383 589 323 607 c 4
 314 610 302 612 293 612 c 4
 289 612 284 606 284 600 c 6
 284 597 l 6
 284 572 307 542 350 506 c 4
 382 480 416 451 441 419 c 5
 448 433 454 450 454 471 c 4
EndSplineSet
Fore
SplineSet
377 -3 m 1
 388 23 406 71 406 132 c 0
 406 196 375 255 331 284 c 0
 308 299 287 309 267 309 c 0
 261 309 256 304 256 300 c 2
 256 99 l 2
 256 61 226 19 177 -5 c 0
 154 -17 129 -22 107 -22 c 0
 62 -22 20 2 20 50 c 0
 20 89 50 131 99 155 c 0
 123 166 147 172 169 172 c 0
 183 172 197 170 210 165 c 0
 221 160 232 172 232 179 c 2
 232 799 l 1
 257 799 l 1
 257 765 277 728 322 692 c 0
 376 649 436 584 436 501 c 0
 436 468 426 438 416 417 c 1
 428 392 436 365 436 335 c 0
 436 298 424 265 412 244 c 1
 427 211 436 174 436 131 c 0
 436 70 415 8 403 -13 c 1
 377 -3 l 1
257 467 m 0
 257 433 280 400 322 360 c 0
 350 333 375 306 394 276 c 1
 400 293 406 315 406 336 c 0
 406 387 378 437 318 466 c 0
 302 474 287 479 270 479 c 0
 262 479 257 476 257 467 c 0
257 633 m 0
 257 599 277 562 322 526 c 0
 348 505 375 480 397 449 c 1
 402 465 406 484 406 502 c 0
 406 553 378 603 318 632 c 0
 302 640 287 645 270 645 c 0
 262 645 257 642 257 633 c 0
EndSplineSet
EndChar

StartChar: uni0019
Encoding: 25 25 98
Width: 171
Flags: W
HStem: 44 102<59.1171 141.544>
VStem: 50 101<53.1171 136.485>
LayerCount: 2
Back
SplineSet
155 185 m 4x98
 123 185 107 223 77 223 c 4x58
 57 223 52 211 47 197 c 4
 42 185 41 182 34 182 c 4
 28 182 25 186 25 192 c 4
 25 197 26 207 26 224 c 4
 26 239 25 250 25 257 c 4
 25 266 28 270 34 270 c 4
 46 270 46 258 57 258 c 4x38
 76 258 77 271 112 271 c 4x58
 155 271 157 242 185 242 c 4
 200 242 203 251 208 262 c 4
 212 268 214 272 221 272 c 4
 228 272 230 267 230 262 c 4
 230 214 219 160 185 117 c 4
 158 82 148 60 143 24 c 4
 140 11 140 -1 126 -1 c 4
 118 -1 116 0 101 0 c 4
 87 0 78 -2 71 -2 c 4
 64 -2 59 2 59 14 c 4
 59 49 110 99 156 141 c 4
 160 145 168 152 175 160 c 4
 189 177 175 185 155 185 c 4x98
EndSplineSet
Fore
SplineSet
50 94 m 0
 50 123 72 146 100 146 c 0
 128 146 151 123 151 94 c 0
 151 66 128 44 100 44 c 0
 72 44 50 66 50 94 c 0
EndSplineSet
EndChar

StartChar: Wcircumflex
Encoding: 372 372 99
Width: 1000
Flags: H
LayerCount: 2
Back
SplineSet
-162 -95 m 3
 -169 -95 -170 -82 -170 -67 c 3
 -170 -61 -170 -57 -170 -52 c 0
 -170 -35 -169 -19 -165 -13 c 0
 -164 -12 -158 -8 -147 -4 c 0
 -96 14 38 57 114 82 c 0
 139 90 151 95 160 95 c 3
 168 95 170 73 170 52 c 3
 170 34 167 18 163 13 c 0
 162 12 156 7 146 4 c 0
 96 -11 -41 -59 -116 -83 c 0
 -143 -91 -153 -95 -162 -95 c 3
EndSplineSet
EndChar

StartChar: uni01DA
Encoding: 474 474 100
Width: 1000
VWidth: 0
Flags: H
LayerCount: 2
Back
SplineSet
265 998 m 27
 265 973 263 960 258 935 c 0
 222 768 210 695 189 587 c 0
 175 526 176 518 163 518 c 3
 145 518 143 541 136 575 c 0
 131 607 110 701 71 910 c 0
 64 942 59 960 59 991 c 3
 59 1005 70 1013 79 1013 c 3
 96 1013 95 991 104 942 c 0
 133 786 128 806 148 724 c 0
 157 682 157 680 162 680 c 0
 163 680 l 3
 172 680 174 698 177 720 c 0
 206 850 204 849 229 986 c 0
 232 1001 236 1017 251 1017 c 27
 260 1017 265 1007 265 998 c 27
212 94 m 0
 195 135 173 190 154 228 c 0
 139 258 138 260 130 260 c 3
 116 260 107 236 97 213 c 0
 80 174 60 127 43 92 c 0
 35 75 26 65 20 65 c 3
 13 65 0 68 0 78 c 3
 0 85 4 97 14 119 c 0
 52 212 92 297 128 391 c 0
 146 438 150 450 163 450 c 3
 178 450 179 445 203 386 c 0
 264 238 262 249 306 137 c 0
 322 96 323 89 323 82 c 0
 323 82 323 81 323 80 c 3
 323 65 308 62 267 62 c 0
 265 62 262 62 260 62 c 0
 224 62 225 63 212 94 c 0
EndSplineSet
EndChar

StartChar: uni01DB
Encoding: 475 475 101
Width: 1000
VWidth: 0
Flags: H
LayerCount: 2
Back
SplineSet
311 391 m 7
 291 391 289 401 289 412 c 4
 289 416 289 421 289 425 c 15
 289 448 290 462 290 485 c 31
 290 519 289 573 289 573 c 7
 289 605 285 607 254 607 c 7
 224 607 208 606 178 606 c 31
 137 606 72 607 72 607 c 7
 34 607 34 600 34 569 c 7
 34 530 33 506 33 465 c 31
 33 445 34 414 34 414 c 7
 34 401 33 391 10 391 c 7
 -10 391 -12 400 -12 411 c 4
 -12 415 -12 418 -12 422 c 15
 -12 493 -11 541 -11 605 c 7
 -11 709 -13 700 -13 755 c 7
 -13 780 4 781 21 781 c 31
 81 781 112 780 175 780 c 7
 277 780 183 781 304 781 c 7
 334 781 336 768 336 751 c 31
 336 694 335 645 335 606 c 7
 335 549 335 565 335 506 c 4
 335 477 335 450 335 414 c 31
 335 401 331 391 311 391 c 7
212 94 m 4
 195 135 173 190 154 228 c 4
 139 258 138 260 130 260 c 7
 116 260 107 236 97 213 c 4
 80 174 60 127 43 92 c 4
 35 75 26 65 20 65 c 7
 13 65 0 68 0 78 c 7
 0 85 4 97 14 119 c 4
 52 212 92 297 128 391 c 4
 146 438 150 450 163 450 c 7
 178 450 179 445 203 386 c 4
 264 238 262 249 306 137 c 4
 322 96 323 89 323 82 c 4
 323 82 323 81 323 80 c 7
 323 65 308 62 267 62 c 4
 265 62 262 62 260 62 c 4
 224 62 225 63 212 94 c 4
EndSplineSet
EndChar

StartChar: uni01D5
Encoding: 469 469 102
Width: 1000
VWidth: 0
Flags: H
LayerCount: 2
Back
SplineSet
306 232 m 7
 286 232 284 242 284 253 c 4
 284 257 284 262 284 266 c 15
 284 289 285 303 285 326 c 31
 285 360 284 414 284 414 c 7
 284 446 280 448 249 448 c 7
 219 448 203 447 173 447 c 31
 132 447 67 448 67 448 c 7
 29 448 29 441 29 410 c 7
 29 371 28 347 28 306 c 31
 28 286 29 255 29 255 c 7
 29 242 28 232 5 232 c 7
 -15 232 -17 241 -17 252 c 4
 -17 256 -17 259 -17 263 c 15
 -17 334 -16 382 -16 446 c 7
 -16 550 -18 541 -18 596 c 7
 -18 621 -1 622 16 622 c 31
 76 622 107 621 170 621 c 7
 272 621 178 622 299 622 c 7
 329 622 331 609 331 592 c 31
 331 535 330 486 330 447 c 7
 330 390 330 406 330 347 c 4
 330 318 330 291 330 255 c 31
 330 242 326 232 306 232 c 7
0 149 m 7
 0 176 12 177 24 177 c 7
 48 177 89 176 141 176 c 7
 212 176 247 177 290 177 c 7
 301 177 312 176 312 149 c 7
 312 122 303 121 290 121 c 7
 258 121 210 122 149 122 c 7
 82 122 34 121 23 121 c 7
 6 121 0 128 0 149 c 7
EndSplineSet
EndChar

StartChar: uni01DC
Encoding: 476 476 103
Width: 1000
VWidth: 0
Flags: H
LayerCount: 2
Back
SplineSet
265 1020 m 27
 265 995 263 982 258 957 c 0
 222 790 210 717 189 609 c 0
 175 548 176 540 163 540 c 3
 145 540 143 563 136 597 c 0
 131 629 110 723 71 932 c 0
 64 964 59 982 59 1013 c 3
 59 1027 70 1035 79 1035 c 3
 96 1035 95 1013 104 964 c 0
 133 808 128 828 148 746 c 0
 157 704 157 702 162 702 c 0
 163 702 l 3
 172 702 174 720 177 742 c 0
 206 872 204 871 229 1008 c 0
 232 1023 236 1039 251 1039 c 27
 260 1039 265 1029 265 1020 c 27
212 116 m 0
 195 157 173 212 154 250 c 0
 139 280 138 282 130 282 c 3
 116 282 107 258 97 235 c 0
 80 196 60 149 43 114 c 0
 35 97 26 87 20 87 c 3
 13 87 0 90 0 100 c 3
 0 107 4 119 14 141 c 0
 52 234 92 319 128 413 c 0
 146 460 150 472 163 472 c 3
 178 472 179 467 203 408 c 0
 264 260 262 271 306 159 c 0
 322 118 323 111 323 104 c 0
 323 104 323 103 323 102 c 3
 323 87 308 84 267 84 c 0
 265 84 262 84 260 84 c 0
 224 84 225 85 212 116 c 0
EndSplineSet
EndChar

StartChar: uni01DD
Encoding: 477 477 104
Width: 1000
VWidth: 0
Flags: H
LayerCount: 2
Back
SplineSet
311 413 m 3
 291 413 289 423 289 434 c 0
 289 438 289 443 289 447 c 11
 289 470 290 484 290 507 c 27
 290 541 289 595 289 595 c 3
 289 627 285 629 254 629 c 3
 224 629 208 628 178 628 c 27
 137 628 72 629 72 629 c 3
 34 629 34 622 34 591 c 3
 34 552 33 528 33 487 c 27
 33 467 34 436 34 436 c 3
 34 423 33 413 10 413 c 3
 -10 413 -12 422 -12 433 c 0
 -12 437 -12 440 -12 444 c 11
 -12 515 -11 563 -11 627 c 3
 -11 731 -13 722 -13 777 c 3
 -13 802 4 803 21 803 c 27
 81 803 112 802 175 802 c 3
 277 802 183 803 304 803 c 3
 334 803 336 790 336 773 c 27
 336 716 335 667 335 628 c 3
 335 571 335 587 335 528 c 0
 335 499 335 472 335 436 c 27
 335 423 331 413 311 413 c 3
212 116 m 0
 195 157 173 212 154 250 c 0
 139 280 138 282 130 282 c 3
 116 282 107 258 97 235 c 0
 80 196 60 149 43 114 c 0
 35 97 26 87 20 87 c 3
 13 87 0 90 0 100 c 3
 0 107 4 119 14 141 c 0
 52 234 92 319 128 413 c 0
 146 460 150 472 163 472 c 3
 178 472 179 467 203 408 c 0
 264 260 262 271 306 159 c 0
 322 118 323 111 323 104 c 0
 323 104 323 103 323 102 c 3
 323 87 308 84 267 84 c 0
 265 84 262 84 260 84 c 0
 224 84 225 85 212 116 c 0
EndSplineSet
EndChar

StartChar: uni01DE
Encoding: 478 478 105
Width: 1000
VWidth: 0
Flags: H
LayerCount: 2
Back
SplineSet
264 1014 m 31
 264 989 262 976 257 951 c 4
 221 784 209 711 188 603 c 4
 174 542 175 534 162 534 c 7
 144 534 142 557 135 591 c 4
 130 623 109 717 70 926 c 4
 63 958 58 976 58 1007 c 7
 58 1021 69 1029 78 1029 c 7
 95 1029 94 1007 103 958 c 4
 132 802 127 822 147 740 c 4
 156 698 156 696 161 696 c 4
 162 696 l 7
 171 696 173 714 176 736 c 4
 205 866 203 865 228 1002 c 4
 231 1017 235 1033 250 1033 c 31
 259 1033 264 1023 264 1014 c 31
5 447 m 7
 5 474 17 475 29 475 c 7
 53 475 94 474 146 474 c 7
 217 474 252 475 295 475 c 7
 306 475 317 474 317 447 c 7
 317 420 308 419 295 419 c 7
 263 419 215 420 154 420 c 7
 87 420 39 419 28 419 c 7
 11 419 5 426 5 447 c 7
EndSplineSet
EndChar

StartChar: uni01DF
Encoding: 479 479 106
Width: 1000
VWidth: 0
Flags: H
LayerCount: 2
Back
SplineSet
311 530 m 7
 291 530 289 540 289 551 c 4
 289 555 289 560 289 564 c 15
 289 587 290 601 290 624 c 31
 290 658 289 712 289 712 c 7
 289 744 285 746 254 746 c 7
 224 746 208 745 178 745 c 31
 137 745 72 746 72 746 c 7
 34 746 34 739 34 708 c 7
 34 669 33 645 33 604 c 31
 33 584 34 553 34 553 c 7
 34 540 33 530 10 530 c 7
 -10 530 -12 539 -12 550 c 4
 -12 554 -12 557 -12 561 c 15
 -12 632 -11 680 -11 744 c 7
 -11 848 -13 839 -13 894 c 7
 -13 919 4 920 21 920 c 31
 81 920 112 919 175 919 c 7
 277 919 183 920 304 920 c 7
 334 920 336 907 336 890 c 31
 336 833 335 784 335 745 c 7
 335 688 335 704 335 645 c 4
 335 616 335 589 335 553 c 31
 335 540 331 530 311 530 c 7
5 447 m 7
 5 474 17 475 29 475 c 7
 53 475 94 474 146 474 c 7
 217 474 252 475 295 475 c 7
 306 475 317 474 317 447 c 7
 317 420 308 419 295 419 c 7
 263 419 215 420 154 420 c 7
 87 420 39 419 28 419 c 7
 11 419 5 426 5 447 c 7
EndSplineSet
EndChar

StartChar: uni0210
Encoding: 528 528 107
Width: 1000
VWidth: 1372
Flags: H
LayerCount: 2
Back
SplineSet
173 58 m 4xfa
 177 63 182 66 186 66 c 4
 190 66 193 65 193 61 c 4
 193 59 192 55 190 52 c 4
 177 28 164 12 153 2 c 4
 142 -8 130 -12 118 -12 c 4
 112 -12 106 -10 100 -7 c 4
 94 -4 86 2 75 10 c 4
 64 18 53 22 46 22 c 4
 39 22 32 18 26 11 c 4
 20 4 15 0 11 0 c 4
 7 0 l 4
 2 0 0 4 0 10 c 4xfa
 0 55 36 93 107 126 c 4
 119 132 128 136 133 140 c 4
 156 155 167 176 167 204 c 4
 167 215 164 223 158 229 c 4
 152 235 143 239 131 239 c 4
 119 239 110 235 102 229 c 4
 98 225 96 221 95 218 c 4
 94 215 94 211 94 208 c 4
 94 205 96 201 100 197 c 4
 104 193 107 187 107 180 c 4
 107 173 104 167 99 162 c 4
 94 157 87 154 79 154 c 4
 62 154 54 163 54 181 c 4xf6
 54 194 58 206 66 218 c 4
 74 230 85 239 98 246 c 4
 111 253 123 256 137 256 c 4
 138 256 l 4
 162 256 181 249 194 238 c 4
 207 227 213 212 213 191 c 4
 213 181 212 172 208 165 c 4
 201 152 188 142 170 132 c 4
 162 128 147 122 124 113 c 4
 101 104 84 95 70 85 c 4
 62 79 58 74 58 70 c 4
 58 66 63 63 72 61 c 4
 81 59 89 57 97 54 c 4
 120 44 l 4
 130 40 136 38 140 38 c 4
 152 38 162 45 173 58 c 4xfa
EndSplineSet
EndChar

StartChar: uni0211
Encoding: 529 529 108
Width: 1000
VWidth: 1372
Flags: H
LayerCount: 2
Back
SplineSet
42 18 m 4xfe
 42 10 50 6 63 6 c 4
 76 6 87 11 97 20 c 4
 114 36 122 59 122 88 c 4xfe
 122 92 121 97 118 102 c 4
 112 113 103 119 89 119 c 4
 83 119 l 4
 75 119 71 122 71 127 c 4
 71 128 71 128 71 129 c 4
 72 135 76 139 83 139 c 4
 88 139 l 4
 99 139 110 141 123 144 c 4
 149 151 162 171 162 203 c 4
 162 215 159 224 153 230 c 4
 147 236 140 240 131 240 c 4
 122 240 114 238 110 235 c 4
 106 232 104 229 104 224 c 4
 104 219 106 214 109 210 c 4
 112 206 114 201 114 196 c 4
 114 195 113 194 113 193 c 4
 110 178 102 171 88 171 c 4
 79 171 74 174 70 179 c 4
 66 184 64 190 64 197 c 4
 64 212 71 226 84 238 c 4
 97 250 113 256 134 256 c 4
 135 256 l 4
 156 256 174 251 188 241 c 4
 202 231 209 216 209 197 c 4
 209 168 192 145 158 129 c 4
 152 126 149 123 149 120 c 4xfd80
 149 117 150 114 154 110 c 4
 166 98 172 84 172 66 c 4
 172 59 170 50 165 40 c 4
 147 5 116 -13 71 -13 c 4
 57 -13 42 -9 28 -3 c 4
 9 6 0 22 0 45 c 4
 0 55 3 64 9 70 c 4
 15 76 23 79 32 79 c 4
 41 79 48 77 53 71 c 4
 58 65 60 58 60 51 c 4
 60 44 57 38 51 33 c 4
 45 28 42 24 42 19 c 4
 42 18 l 4xfe
EndSplineSet
EndChar

StartChar: uni0212
Encoding: 530 530 109
Width: 1000
VWidth: 1372
Flags: H
LayerCount: 2
Back
SplineSet
183 197 m 4
 186 199 188 201 192 201 c 4
 196 201 197 199 197 196 c 4
 197 195 198 194 197 192 c 4
 171 106 l 4
 170 103 169 101 169 99 c 4
 169 94 172 92 178 92 c 4
 197 92 l 4
 205 92 209 89 209 84 c 4
 209 83 208 81 208 80 c 4
 206 74 203 71 196 71 c 4
 173 71 l 4
 162 71 155 66 152 57 c 4
 147 37 l 4
 146 33 145 30 145 28 c 4
 145 22 149 19 156 18 c 4
 170 18 l 4
 178 17 182 14 182 10 c 4
 182 9 182 9 182 8 c 4
 181 3 176 0 168 0 c 4
 54 0 l 4
 50 0 48 2 48 6 c 4
 48 7 48 8 49 10 c 4
 50 14 55 17 65 18 c 4
 75 19 82 22 87 27 c 4
 92 32 96 37 98 44 c 4
 102 59 l 4
 103 61 103 62 103 63 c 4
 103 68 99 71 91 71 c 4
 10 71 l 4
 3 71 0 74 0 79 c 4
 0 80 0 82 1 85 c 4
 2 88 6 94 14 101 c 4
 22 108 29 116 35 123 c 4
 70 166 94 205 107 242 c 4
 110 251 116 255 126 255 c 4
 171 255 l 4
 180 255 184 253 184 248 c 4
 184 241 167 221 133 186 c 4
 111 164 86 141 58 118 c 4
 51 112 l 4
 44 106 40 101 40 98 c 4
 40 94 45 92 56 92 c 4
 95 92 l 4
 109 92 118 97 121 108 c 4
 128 134 l 4
 131 144 136 152 143 159 c 4
 183 197 l 4
EndSplineSet
EndChar

StartChar: uni0213
Encoding: 531 531 110
Width: 1000
VWidth: 1372
Flags: H
LayerCount: 2
Back
SplineSet
132 97 m 4xfd
 132 120 121 130 100 130 c 4
 99 130 l 4
 85 130 69 126 54 115 c 4
 47 110 40 108 33 108 c 4
 29 108 26 110 26 114 c 4
 26 116 26 117 27 120 c 4
 70 245 l 4
 72 250 75 253 81 253 c 4
 82 253 87 252 95 250 c 4
 102 248 109 247 115 247 c 4
 140 247 160 248 176 252 c 4
 180 253 184 253 188 253 c 4
 192 253 193 251 193 248 c 4
 193 246 192 243 189 240 c 4
 172 219 151 209 127 209 c 4
 116 209 108 210 103 211 c 4
 98 212 95 212 93 212 c 4
 83 212 76 207 73 197 c 4
 62 166 l 4
 61 162 60 159 60 156 c 4xfb
 60 150 64 147 70 147 c 4
 73 147 79 148 86 150 c 4
 93 152 102 154 113 154 c 4
 134 154 151 148 162 136 c 4
 173 124 179 109 179 90 c 4
 179 71 175 56 167 43 c 4
 159 30 150 20 140 12 c 4
 119 -4 95 -12 68 -12 c 4
 41 -12 21 -5 10 10 c 4
 3 19 0 30 0 44 c 4
 0 57 4 67 12 74 c 4
 18 79 25 81 33 81 c 4
 41 81 48 79 52 74 c 4
 56 69 58 62 58 54 c 4
 58 46 55 39 48 33 c 4
 41 27 38 20 38 16 c 4
 38 9 47 5 63 5 c 4
 84 5 102 20 117 49 c 4
 127 68 132 85 132 97 c 4xfd
EndSplineSet
EndChar

StartChar: uni0214
Encoding: 532 532 111
Width: 1000
VWidth: 1372
Flags: H
LayerCount: 2
Back
SplineSet
159 175 m 4xf4
 143 175 132 182 132 198 c 4
 132 217 148 219 148 227 c 4xf4
 148 232 144 235 136 235 c 4
 108 235 89 203 78 165 c 4
 76 156 74 143 84 143 c 4
 104 143 102 152 135 152 c 4
 165 152 184 128 184 97 c 4xf8
 184 80 179 63 170 45 c 4
 151 7 122 -12 83 -12 c 4
 38 -12 15 18 15 78 c 4
 15 141 49 207 84 234 c 4
 102 248 120 255 137 255 c 4
 173 255 190 241 190 212 c 4
 190 193 177 175 159 175 c 4xf4
82 10 m 4
 116 10 136 58 136 95 c 4xf8
 136 116 128 127 111 127 c 4
 82 127 62 71 62 38 c 4
 62 19 68 10 82 10 c 4
EndSplineSet
EndChar

StartChar: uni0215
Encoding: 533 533 112
Width: 1000
VWidth: 1372
Flags: H
LayerCount: 2
Back
SplineSet
28 21 m 4xc8
 43 54 72 92 113 135 c 4
 128 150 136 163 142 173 c 4
 155 193 146 197 128 190 c 4
 123 188 118 187 112 187 c 4xc8
 104 187 96 191 87 197 c 4
 78 204 69 207 62 207 c 4
 50 207 44 201 34 188 c 4
 29 182 25 174 22 167 c 4
 19 160 14 156 8 156 c 4
 0 156 1 165 3 173 c 4
 6 182 10 194 15 211 c 4
 26 246 l 4
 28 252 31 256 36 256 c 4xa8
 41 256 46 252 47 244 c 4
 48 239 51 235 58 235 c 4x98
 65 235 70 237 77 243 c 4
 84 249 93 252 103 252 c 4
 113 252 122 248 129 240 c 4
 136 232 142 229 149 229 c 4
 159 229 167 234 174 246 c 4
 178 254 184 255 189 255 c 4
 193 255 196 253 196 248 c 4
 196 246 195 244 195 242 c 4
 189 211 171 173 143 127 c 4
 123 94 110 59 105 21 c 4
 103 7 96 0 85 0 c 4
 38 0 l 4
 29 0 25 4 25 10 c 4
 25 13 26 16 28 21 c 4xc8
EndSplineSet
EndChar

StartChar: Eth
Encoding: 208 208 113
Width: 156
Flags: HMW
LayerCount: 2
Fore
SplineSet
40 35 m 0
 40 56 57 73 78 73 c 0
 99 73 116 56 116 35 c 0
 116 14 99 -3 78 -3 c 0
 57 -3 40 14 40 35 c 0
EndSplineSet
EndChar

StartChar: Ntilde
Encoding: 209 209 114
Width: 156
Flags: HW
LayerCount: 2
Fore
SplineSet
40 35 m 4
 40 56 57 73 78 73 c 4
 99 73 116 56 116 35 c 4
 116 14 99 -3 78 -3 c 4
 57 -3 40 14 40 35 c 4
40 190 m 0
 40 211 57 228 78 228 c 0
 99 228 116 211 116 190 c 0
 116 169 99 152 78 152 c 0
 57 152 40 169 40 190 c 0
EndSplineSet
EndChar

StartChar: Ograve
Encoding: 210 210 115
Width: 168
Flags: HW
LayerCount: 2
Fore
SplineSet
77 73 m 0xd0
 112 73 128 36 128 -1 c 0
 128 -80 83 -142 65 -142 c 0
 60 -142 55 -138 55 -133 c 0
 55 -124 65 -119 82 -88 c 0
 96 -59 98 -44 98 -26 c 0
 98 -11 94 -5 75 -2 c 0
 62 0 40 8 40 38 c 0
 40 58 58 73 77 73 c 0xd0
EndSplineSet
EndChar

StartChar: Oacute
Encoding: 211 211 116
Width: 168
Flags: HW
HStem: -2 75<43.6406 97.2726> 152 76<46.745 115.255>
VStem: 43 76<155.745 224.255> 98 30<-78.2306 17.5>
LayerCount: 2
Back
SplineSet
40 35 m 4
 40 56 57 73 78 73 c 4
 99 73 116 56 116 35 c 4
 116 14 99 -3 78 -3 c 4
 57 -3 40 14 40 35 c 4
EndSplineSet
Fore
SplineSet
77 73 m 0xd0
 112 73 128 36 128 -1 c 0
 128 -80 83 -142 65 -142 c 0
 60 -142 55 -138 55 -133 c 0
 55 -124 65 -119 82 -88 c 0
 96 -59 98 -44 98 -26 c 0
 98 -11 94 -5 75 -2 c 0
 62 0 40 8 40 38 c 0
 40 58 58 73 77 73 c 0xd0
43 190 m 0xe0
 43 211 60 228 81 228 c 0
 102 228 119 211 119 190 c 0
 119 169 102 152 81 152 c 0
 60 152 43 169 43 190 c 0xe0
EndSplineSet
EndChar

StartChar: Oslash
Encoding: 216 216 117
Width: 590
Flags: W
HStem: 57 33<143.03 449.991> 155 33<140.009 448.894>
LayerCount: 2
Fore
SplineSet
416 90 m 0
 437 90 450 89 450 76 c 0
 450 58 450 57 421 57 c 0
 187 57 l 0
 153 57 143 57 143 71 c 0
 143 90 146 90 170 90 c 0
 416 90 l 0
412 188 m 0
 438 188 449 188 449 174 c 0
 449 156 440 155 420 155 c 0
 177 155 l 0
 152 155 140 155 140 171 c 0
 140 185 143 188 163 188 c 0
 412 188 l 0
EndSplineSet
EndChar

StartChar: Ugrave
Encoding: 217 217 118
Width: 397
Flags: HW
HStem: 100 35<78.0088 316.927>
LayerCount: 2
Fore
SplineSet
80 134 m 1
 317 134 l 1
 317 103 l 1
 80 103 l 1
 80 134 l 1
EndSplineSet
EndChar

StartChar: uni0220
Encoding: 544 544 119
Width: 1000
VWidth: 2048
Flags: H
LayerCount: 2
Back
SplineSet
281 152 m 4
 296 130 303 109 303 89 c 5
 304 89 l 5
 304 10.9711 226 -19 152 -19 c 4
 85.3461 -19 10 20.5 10 87 c 4
 10 123 34 154 81 179 c 4
 96 187 104 198 104 210 c 4
 104 216 102 222 99 228 c 4
 89 247 85 263 85 279 c 4
 85 346 144.624 381 209 381 c 4
 283 381 346 337 346 279 c 4
 346 245 328 218 291 196 c 4
 280 189 274 181 274 174 c 4
 274 166 276 159 281 152 c 4
311 277 m 4
 311 321 263 350 220 350 c 4
 191 350 164 335 164 309 c 4
 164 298 166 288 172 278 c 4
 179.385 263.23 209.5 215 247 215 c 4
 275.344 215 311 244.5 311 277 c 4
131 155 m 4
 95.4072 155 48 122.389 48 87 c 4
 48 38 105 11 156 11 c 4
 201 11 224 27 224 59 c 4
 224 87 170.808 155 131 155 c 4
EndSplineSet
EndChar

StartChar: uni0222
Encoding: 546 546 120
Width: 1000
VWidth: 2048
Flags: H
LayerCount: 2
Back
SplineSet
0.768555 13.2148 m 4
 2.99219 21.1309 9.00195 25.3906 18.7979 25.9922 c 4
 39.9541 27.375 55.3008 33.7734 64.8389 45.1875 c 4
 69.1826 50.3867 75.9092 67.249 85.0166 95.7754 c 4
 127.043 227.929 l 4
 136.678 259.068 130.863 265.943 109.601 248.553 c 4
 63.5596 210.898 l 4
 56.3604 205.011 50.6709 204.387 46.4932 209.029 c 4
 42.5713 213.479 44.8213 220.867 53.2432 231.196 c 4
 165.173 368.749 l 4
 171.701 376.991 180.318 381.112 191.023 381.112 c 4
 231.238 381.112 l 4
 243.647 381.112 247.445 373.344 242.63 357.808 c 4
 183.125 165.823 152.946 68.248 152.094 65.082 c 4
 146.389 43.8965 150.508 31.6113 164.451 28.2266 c 4
 167.93 27.3818 171.956 26.7207 176.529 26.2402 c 4
 190.22 24.8047 195.965 20.3203 193.765 12.7891 c 4
 191.274 4.2627 183.113 0 169.282 0 c 4
 11.2666 0 l 4
 1.79395 0 -1.70605 4.40527 0.768555 13.2148 c 4
EndSplineSet
EndChar

StartChar: uni0223
Encoding: 547 547 121
Width: 1000
VWidth: 2048
Flags: H
LayerCount: 2
Back
SplineSet
41.4941 31.2617 m 4xa8
 64.6084 80.1445 107.617 136.795 170.521 201.214 c 4
 192.498 223.76 208.225 242.612 217.697 257.77 c 4
 227.171 272.927 231.907 283.442 231.907 289.315 c 4
 231.907 295.189 229.729 298.126 225.371 298.126 c 4xa8
 220.823 298.126 212.961 295 201.782 288.747 c 4
 190.604 282.494 179.235 279.368 167.679 279.368 c 4xc8
 156.311 279.368 143.806 284.2 130.164 293.862 c 4
 116.333 303.715 104.018 308.642 93.2178 308.642 c 4
 74.8398 308.642 58.5459 299.168 44.3359 280.221 c 4
 37.1357 270.559 31.4512 260.232 27.2832 249.243 c 4
 23.1152 238.254 16.4844 232.76 7.38965 232.76 c 4
 2.46387 232.76 0 235.033 0 239.581 c 4
 0 244.128 7.29492 269.422 21.8838 315.462 c 4
 38.083 367.755 l 4
 40.9248 376.66 46.04 381.207 53.4297 381.396 c 4
 61.0088 381.586 65.4609 375.617 66.7871 363.492 c 4
 67.9238 353.64 73.5127 348.714 83.5557 348.714 c 4x98
 93.7861 348.714 104.207 353.166 114.817 362.07 c 4
 125.617 371.165 138.405 375.712 153.184 375.712 c 4xc8
 167.963 375.712 180.846 369.934 191.835 358.376 c 4
 202.824 346.818 213.719 341.04 224.519 341.04 c 4
 239.486 341.04 251.991 349.661 262.032 366.902 c 4
 267.148 375.617 273.021 379.976 279.653 379.976 c 4
 282.779 379.976 l 4
 289.032 379.976 292.158 376.565 292.158 369.744 c 4
 292.158 367.092 291.874 364.438 291.305 361.786 c 4
 281.832 315.936 255.97 258.527 213.719 189.562 c 4
 183.782 140.679 164.836 88.0068 156.879 31.5459 c 4
 153.848 10.5156 143.995 0 127.321 0 c 4
 57.4082 0 l 4
 43.5771 0 36.6621 4.7373 36.6621 14.21 c 4
 36.6621 18.7578 38.2725 24.4414 41.4941 31.2617 c 4xa8
EndSplineSet
EndChar

StartChar: Scommaaccent
Encoding: 536 536 122
Width: 1000
VWidth: 2048
Flags: H
LayerCount: 2
Back
SplineSet
158.563 366.05 m 4
 178.646 376.85 199.583 382.06 221.372 381.681 c 4
 233.498 381.491 242.118 380.639 247.234 379.123 c 4
 279.633 370.976 301.99 345.587 314.305 302.957 c 4
 316.768 294.432 318 281.358 318 263.737 c 4
 318 214.855 306.063 164.836 282.19 113.68 c 4
 265.896 78.8184 246.286 50.3984 223.361 28.4199 c 4
 191.531 -2.08398 156.385 -17.4307 117.923 -17.6201 c 4
 80.0293 -17.8096 52.3672 -0.189453 34.9365 35.2412 c 4
 25.085 55.3242 20.1582 79.1973 20.1582 106.859 c 4
 20.1582 134.9 25.2744 165.594 35.5049 198.94 c 4
 45.7363 232.286 58.1465 260.138 72.7354 282.494 c 4
 99.4502 323.609 128.06 351.461 158.563 366.05 c 4
243.539 227.645 m 4
 250.739 264.021 254.339 290.357 254.339 306.652 c 4
 254.339 322.757 251.402 335.546 245.529 345.019 c 4
 239.845 354.113 231.792 358.66 221.372 358.66 c 4
 210.762 358.66 200.246 354.871 189.825 347.292 c 4
 172.016 335.546 154.869 312.336 138.386 277.663 c 4
 121.522 242.423 108.449 203.298 99.166 160.289 c 4
 89.6924 116.521 84.9561 85.8281 84.9561 68.208 c 4
 84.9561 50.209 85.998 38.2725 88.082 32.3984 c 4
 90.3555 25.957 94.2393 19.7988 99.7344 13.9258 c 4
 105.418 7.86328 112.429 4.7373 120.766 4.54688 c 4
 133.648 4.35742 146.438 10.7051 159.132 23.5889 c 4
 171.637 36.2832 182.437 50.9668 191.531 67.6396 c 4
 200.246 83.5547 209.246 105.249 218.529 132.722 c 4
 228.382 161.521 236.719 193.161 243.539 227.645 c 4
EndSplineSet
EndChar

StartChar: uni021A
Encoding: 538 538 123
Width: 1000
VWidth: 2048
Flags: H
LayerCount: 2
Back
SplineSet
323 284 m 4xf6
 323 270 320 257 315 247 c 4
 284.474 185.947 194.974 180.142 133 141 c 4xf6
 113 129 105 120 105 114 c 4
 105 104 122 98 135 92 c 4
 185 69 186 62 218 62 c 4
 241 62 255 82 271 102 c 4
 277 110 281 114 287 114 c 4
 293 114 295 111 295 105 c 4
 295 89 277 55 256 31 c 4
 237 9 212 -8 177 -8 c 4
 137 -8 111 49 73 49 c 4
 62 49 51 44 42 33 c 4
 31 19 28 0 16 0 c 4
 9 0 5 5 5 14 c 4xfa
 5 81 62 140 164 189 c 4
 216 214 255 242 255 305 c 4
 255 338 228 356 195 356 c 4
 166 356 133 338 133 314 c 4
 133 295 157 294 157 268 c 4
 157 246 139 230 117 230 c 4
 91 230 78 250 78 276 c 4
 78 334 133 382 205 382 c 4
 268 382 323 350 323 284 c 4xf6
EndSplineSet
EndChar

StartChar: uni021C
Encoding: 540 540 124
Width: 1000
VWidth: 2048
Flags: H
LayerCount: 2
Back
SplineSet
292.496 294.432 m 4
 296.285 298.031 300.833 299.831 306.138 299.831 c 4
 311.632 299.831 314.38 297.273 314.38 292.158 c 4
 314.38 290.263 314 288.179 313.242 285.905 c 4
 274.591 158.016 l 4
 273.455 154.227 272.887 151.005 272.887 148.353 c 4
 272.887 140.963 277.055 137.269 285.391 137.269 c 4
 314.38 137.269 l 4
 326.126 137.269 332 133.479 332 125.9 c 4
 331.811 124.006 331.432 122.017 330.863 119.933 c 4
 328.399 110.838 322.052 106.291 311.821 106.291 c 4
 278.002 106.291 l 4
 261.519 106.291 251.287 99.2803 247.309 85.2598 c 4
 238.782 55.7031 l 4
 236.888 49.0723 235.94 44.5244 235.94 42.0615 c 4
 236.13 32.9678 241.813 28.041 252.992 27.2832 c 4
 274.307 26.1465 l 4
 286.054 25.3887 291.927 21.8838 291.927 15.6309 c 4
 291.738 14.3047 291.454 12.8838 291.075 11.3682 c 4
 289.181 3.78906 282.359 0 270.612 0 c 4
 100.945 0 l 4
 94.5029 0 91.2822 2.74707 91.2822 8.24219 c 4
 91.2822 10.1367 91.6611 12.2207 92.4189 14.4941 c 4
 94.5029 20.7461 102.84 24.8203 117.429 26.7148 c 4
 132.207 28.6094 143.196 33.1572 150.396 40.3564 c 4
 157.596 47.3672 162.807 55.9873 166.027 66.2188 c 4
 172.848 88.1016 l 4
 173.605 90.5645 173.984 92.7441 173.984 94.6387 c 4
 173.984 102.217 168.017 106.007 156.08 106.007 c 4
 34.7266 106.007 l 4
 24.875 106.007 19.9482 109.796 19.9482 117.375 c 4
 19.9482 119.459 20.5166 122.774 21.6533 127.321 c 4
 22.79 131.869 29.2314 139.542 40.9795 150.342 c 4
 52.916 161.331 63.4307 172.414 72.5254 183.593 c 4
 124.25 247.254 159.964 306.558 179.669 361.502 c 4
 184.784 374.576 194.447 381.112 208.657 381.112 c 4
 274.876 381.112 l 4
 288.138 381.112 294.675 377.702 294.485 370.881 c 4
 294.296 360.461 268.718 329.293 217.751 277.379 c 4
 184.974 243.844 148.027 210.213 106.914 176.488 c 4
 95.5459 166.825 l 4
 84.9355 158.109 79.6299 151.289 79.6299 146.363 c 4
 79.6299 140.3 87.5879 137.269 103.503 137.269 c 4
 161.195 137.269 l 4
 182.416 137.269 195.3 145.132 199.847 160.857 c 4
 211.215 199.793 l 4
 215.572 214.761 222.962 227.266 233.383 237.307 c 4
 292.496 294.432 l 4
EndSplineSet
EndChar

StartChar: uni021D
Encoding: 541 541 125
Width: 1000
VWidth: 2048
Flags: H
LayerCount: 2
Back
SplineSet
69 121 m 7
 91 121 106 105 106 81 c 7
 106 51 76 43 76 24 c 7
 76 13 86 8 110 8 c 4
 142 8 172 30 194 74 c 4
 209 102 216 126 216 144 c 4
 216 179 200 195 167 195 c 4
 117 195 103 161 70 161 c 4
 62 161 59 166 59 171 c 4
 59 178 62 185 64 190 c 6
 124 365 l 6
 126 373 132 377 141 377 c 4
 149 377 173 371 202 371 c 4
 239 371 264 374 288 380 c 4
 294 381 300 382 304 382 c 7
 310 382 314 380 314 374 c 7
 314 372 312 368 308 362 c 4
 286 330 242 308 206 308 c 4
 183 308 171 310 155 310 c 4
 140 310 131 303 126 288 c 6
 112 247 l 6
 111 242 109 237 109 233 c 4
 109 225 113 219 123 219 c 7
 140 219 150 230 189 230 c 7
 250 230 286 193 286 134 c 4
 286 46 209 -18 121 -18 c 4
 62 -18 20 8 20 66 c 7
 20 98 37 121 69 121 c 7
EndSplineSet
EndChar

StartChar: uni021E
Encoding: 542 542 126
Width: 1000
VWidth: 2048
Flags: H
LayerCount: 2
Back
SplineSet
249 260 m 4xfa
 228 260 210 272 210 297 c 4
 210 324 228 330 228 342 c 4xfa
 228 350 221 353 210 353 c 4
 177 353 154 334 139 300 c 4
 132 285 121 252 121 233 c 4
 121 219 125 210 137 210 c 4
 149 210 164 223 199 223 c 4
 247 223 277 182 277 135 c 4xfc
 277 48 217 -18 127 -18 c 4
 59 -18 25 27 25 116 c 4
 25 231 92 381 212 381 c 4
 251 381 294 362 294 314 c 4
 294 285 277 260 249 260 c 4xfa
126 9 m 4
 176 9 206 84 206 138 c 4xfc
 206 170 196 188 168 188 c 4
 152 188 137 180 126 168 c 4
 109 149 95 91 95 57 c 4
 95 25 105 9 126 9 c 4
EndSplineSet
EndChar

StartChar: uni021F
Encoding: 543 543 127
Width: 1000
VWidth: 2048
Flags: H
LayerCount: 2
Back
SplineSet
66 31 m 4xa8
 90 80 133 137 196 201 c 4
 217 224 233 243 243 258 c 4
 252 273 257 283 257 289 c 4
 257 295 255 298 250 298 c 4xa8
 246 298 238 295 227 289 c 4
 216 282 204 279 193 279 c 4xc8
 181 279 169 284 155 294 c 4
 141 304 129 309 118 309 c 4
 89 309 62 277 52 249 c 4
 48 238 41 233 32 233 c 4
 27 233 25 235 25 240 c 4
 25 244 32 269 47 315 c 4
 53 334 60 359 63 368 c 4
 66 377 71 381 78 381 c 6
 79 381 l 6
 86 381 90 375 92 363 c 4
 93 354 99 349 109 349 c 4x98
 119 349 129 353 140 362 c 4
 151 371 163 376 178 376 c 4xc8
 193 376 206 370 217 358 c 4
 228 347 239 341 250 341 c 4
 264 341 277 350 287 367 c 4
 292 376 298 380 305 380 c 6
 308 380 l 6
 314 380 317 377 317 370 c 4
 317 338 280.37 257.966 239 190 c 4
 209 141 190 88 182 32 c 4
 179 11 169 0 158 0 c 7
 142 0 137 8 117 8 c 7
 97 8 97 0 77 0 c 7
 64 0 62 5 62 14 c 4
 62 19 63 24 66 31 c 4xa8
EndSplineSet
EndChar

StartChar: uni0241
Encoding: 577 577 128
Width: 1000
VWidth: 573
Flags: H
LayerCount: 2
Back
SplineSet
323 445 m 4
 350 445 372 439 386 424 c 4
 400 409 407 392 407 373 c 4
 407 355 402 339 391 327 c 4
 380 315 367 310 350 310 c 4
 339 310 329 313 322 320 c 4
 315 327 312 335 312 344 c 4
 312 368 324 383 346 389 c 4
 352 390 355 393 359 394 c 4
 362 395 363 398 363 402 c 4
 363 406 361 409 354 413 c 4
 348 417 341 418 333 418 c 4
 311 418 290 403 271 375 c 4
 256 353 246 330 242 303 c 4
 241 299 241 296 241 293 c 4
 241 279 249 273 264 273 c 4
 382 273 l 4
 405 273 421 283 431 304 c 4
 447 338 465 365 487 386 c 4
 529 426 570 445 608 445 c 4
 635 445 657 439 671 424 c 4
 685 409 692 392 692 373 c 4
 692 355 687 339 676 327 c 4
 665 315 652 310 635 310 c 4
 624 310 614 313 607 320 c 4
 600 327 597 335 597 344 c 4
 597 368 609 383 631 389 c 4
 637 390 640 393 644 394 c 4
 647 395 648 398 648 402 c 4
 648 406 646 409 639 413 c 4
 633 417 626 418 618 418 c 4
 596 418 575 403 556 375 c 4
 541 353 531 330 527 303 c 4
 526 299 526 296 526 293 c 4
 526 279 534 273 549 273 c 4
 610 273 l 4
 623 273 629 267 629 256 c 4
 629 240 620 233 604 233 c 4
 544 233 l 4
 521 233 507 224 502 206 c 4
 490 160 475 115 459 71 c 4
 444 31 427 -10 407 -49 c 4
 386 -90 360 -122 333 -144 c 4
 306 -166 276 -178 243 -178 c 4
 219 -178 202 -170 190 -155 c 4
 178 -140 173 -121 173 -99 c 4
 173 -77 177 -61 185 -51 c 4
 196 -37 210 -30 226 -30 c 4
 241 -30 253 -35 261 -43 c 4
 269 -52 274 -65 274 -82 c 4
 274 -98 265 -111 249 -121 c 4
 246 -123 242 -125 236 -127 c 4
 230 -129 227 -131 227 -135 c 4
 227 -140 232 -143 241 -143 c 4
 266 -143 286 -129 302 -101 c 4
 315 -78 332 -34 353 33 c 4
 367 78 381 135 394 202 c 4
 395 205 395 208 395 210 c 4
 394 225 386 233 369 233 c 4
 259 233 l 4
 236 233 222 224 217 206 c 4
 205 160 190 115 174 71 c 4
 159 31 142 -10 122 -49 c 4
 101 -90 75 -122 48 -144 c 4
 21 -166 -9 -178 -42 -178 c 4
 -66 -178 -83 -170 -95 -155 c 4
 -107 -140 -112 -121 -112 -99 c 4
 -112 -77 -108 -61 -100 -51 c 4
 -89 -37 -75 -30 -59 -30 c 4
 -44 -30 -32 -35 -24 -43 c 4
 -16 -52 -11 -65 -11 -82 c 4
 -11 -98 -20 -111 -36 -121 c 4
 -39 -123 -43 -125 -49 -127 c 4
 -55 -129 -58 -131 -58 -135 c 4
 -58 -140 -53 -143 -44 -143 c 4
 -19 -143 1 -129 17 -101 c 4
 30 -78 47 -34 68 33 c 4
 82 78 96 135 109 202 c 4
 110 205 110 208 110 210 c 4
 109 225 101 233 84 233 c 4
 48 233 l 4
 33 233 26 237 26 246 c 4
 26 253 l 4
 26 266 36 273 57 273 c 4
 97 273 l 4
 120 273 136 283 146 304 c 4
 162 338 180 365 202 386 c 4
 244 426 285 445 323 445 c 4
EndSplineSet
EndChar

StartChar: uni0248
Encoding: 584 584 129
Width: 1000
VWidth: 573
Flags: HM
LayerCount: 2
Back
SplineSet
129 232 m 4
 116 232 96 217 70 185 c 4
 59 172 47 151 34 122 c 4
 30 112 24 105 15 103 c 4
 14 103 13 102 11 102 c 4
 6 102 3 106 3 115 c 4
 3 137 22 172 60 218 c 4
 97 263 136 285 178 286 c 4
 190 286 200 283 207 276 c 4
 214 269 221 263 225 256 c 4
 230 249 236 245 241 245 c 4
 246 245 250 247 254 251 c 4
 278 274 306 286 339 286 c 4
 390 286 416 250 416 179 c 4
 416 130 399 85 364 45 c 4
 329 5 291 -15 250 -15 c 4
 227 -15 209 -8 194 6 c 4
 176 23 164 19 155 -7 c 6
 124 -101 l 6
 118.851 -116.614 114 -134 147 -134 c 6
 198 -134 l 4
 207 -134 212 -138 212 -147 c 4
 212 -148 l 4
 212 -158 206 -163 193 -163 c 4
 -69 -163 l 4
 -79 -163 -84 -158 -84 -150 c 4
 -84 -139 -76 -134 -59 -134 c 4
 -17 -134 l 4
 6 -134 22 -118 33 -86 c 4
 88 77 l 4
 94 94 104 119 117 153 c 4
 130 187 136 209 136 219 c 4
 136 228 134 232 129 232 c 4
314 257 m 4
 290 257 266 236 242 193 c 4
 218 150 206 109 206 67 c 4
 206 54 209 42 216 31 c 4
 223 20 230 15 238 15 c 4
 254 15 267 27 277 53 c 4
 284 71 289 85 293 95 c 4
 304 130 l 4
 324 194 334 230 334 237 c 4
 334 250 327 257 314 257 c 4
114.5 -128.5 m 0
 169.5 34.5 l 1024
EndSplineSet
EndChar

StartChar: uni024C
Encoding: 588 588 130
Width: 1000
VWidth: 573
Flags: H
LayerCount: 2
Back
SplineSet
496 171 m 0
 505 185 516 201 530 218 c 0
 567 263 606 285 648 286 c 0
 660 286 671 283 678 276 c 0
 685 269 690 263 695 256 c 0
 700 249 706 245 711 245 c 0
 716 245 720 247 724 251 c 0
 748 274 776 286 809 286 c 0
 860 286 886 250 886 179 c 0
 886 130 869 85 834 45 c 0
 799 4 761 -15 720 -15 c 0
 693 -15 672 -5 656 15 c 0
 653 19 649 21 645 21 c 0
 636 21 625 2 613 -39 c 0
 601 -80 596 -106 596 -117 c 0
 596 -128 603 -134 617 -134 c 0
 668 -134 l 0
 677 -134 682 -138 682 -147 c 0
 682 -148 l 0
 682 -158 676 -163 663 -163 c 0
 401 -163 l 0
 391 -163 386 -158 386 -150 c 0
 386 -139 394 -134 411 -134 c 0
 453 -134 l 0
 476 -134 492 -118 503 -86 c 0
 559 77 l 0
 565 94 574 119 587 153 c 0
 600 187 606 209 606 219 c 0
 606 228 604 232 599 232 c 0
 586 232 566 217 540 185 c 0
 536 180 532 174 528 168 c 0
 519 153 509 145 499 143 c 0
 482 140 482 148 496 171 c 0
784 257 m 0
 760 257 736 236 712 193 c 0
 688 150 676 109 676 67 c 0
 676 54 679 42 686 31 c 0
 693 20 700 15 708 15 c 0
 724 15 737 27 747 53 c 0
 754 71 760 85 763 95 c 0
 774 130 l 0
 794 194 804 230 804 237 c 0
 804 250 797 257 784 257 c 0
148 233 m 0
 148 218 l 0
 148 210 149 206 153 206 c 0
 156 206 162 211 170 221 c 0
 204 262 235 282 262 282 c 0
 276 282 287 277 293 268 c 0
 299 259 302 247 302 234 c 0
 302 217 l 0
 302 208 303 204 307 204 c 0
 311 204 318 209 326 220 c 0
 358 261 389 282 418 282 c 0
 434 282 446 276 454 266 c 0
 462 256 465 244 465 230 c 0
 465 216 462 201 456 185 c 0
 450 170 440 148 425 121 c 0
 400 76 388 48 388 36 c 0
 388 25 392 19 402 19 c 0
 423 19 449 50 480 111 c 0
 484 118 487 122 491 122 c 0
 492 122 495 121 496 120 c 0
 502 116 504 112 504 108 c 0
 504 103 503 99 501 95 c 0
 485 63 468 38 449 18 c 0
 432 0 414 -9 395 -9 c 0
 376 -9 363 -3 354 8 c 0
 346 19 342 32 342 48 c 0
 342 74 356 111 385 161 c 0
 392 173 l 0
 413 208 423 230 423 239 c 0
 423 248 418 253 408 253 c 0
 387 253 360 230 328 186 c 0
 296 141 268 89 244 26 c 0
 237 9 228 0 218 0 c 0
 200 0 l 0
 191 0 187 4 187 11 c 0
 187 14 189 17 190 21 c 0
 249 185 l 0
 260 214 265 233 265 241 c 0
 265 249 261 253 252 253 c 0
 234 253 209 231 176 188 c 0
 143 145 111 87 82 18 c 0
 77 6 70 0 61 0 c 0
 40 0 l 0
 31 0 27 4 27 10 c 0
 27 12 28 14 29 17 c 0
 89 185 l 0
 100 214 106 233 106 241 c 0
 106 249 101 253 93 253 c 0
 77 253 57 226 29 173 c 0
 23 162 17 157 10 157 c 0
 4 157 0 160 0 166 c 0
 0 169 1 174 4 180 c 0
 17 210 33 235 50 254 c 0
 66 272 83 282 100 282 c 0
 117 282 130 277 137 267 c 0
 144 257 148 247 148 233 c 0
EndSplineSet
EndChar

StartChar: lcaron
Encoding: 318 318 131
Width: 1000
Flags: H
LayerCount: 2
Back
SplineSet
18 -88 m 4
 11 -88 0 -77 0 -68 c 4
 0 -62 4 -56 11 -46 c 6
 119 96 l 6
 133 113 143 122 154 122 c 4
 163 122 172 115 183 101 c 6
 228 41 l 6
 246 18 259 7 272 7 c 4
 284 7 295 16 308 34 c 6
 358 99 l 6
 369 114 380 121 390 121 c 4
 400 121 409 115 418 102 c 6
 467 38 l 6
 481 20 492 11 503 11 c 4
 515 11 527 22 544 44 c 6
 569 77 l 6
 719.33 275.435 857.312 355.284 1023.33 346.381 c 4
 1039.26 345.528 1070.17 341.5 1057.33 326.813 c 4
 1050.13 318.565 1050.53 317.26 1013.33 317.078 c 4
 792.978 315.999 671.223 151.908 587 41 c 6
 486 -92 l 6
 471 -112 460 -121 449 -121 c 4
 437 -121 426 -110 411 -90 c 6
 371 -38 l 6
 354 -17 342 -6 331 -6 c 4
 318 -6 306 -18 289 -40 c 6
 246 -96 l 6
 233 -112 222 -119 212 -119 c 4
 200 -119 189 -109 176 -93 c 6
 125 -26 l 6
 113 -10 105 -3 97 -3 c 4
 88 -3 80 -14 68 -30 c 6
 35 -74 l 6
 27 -84 22 -88 18 -88 c 4
EndSplineSet
EndChar

StartChar: Ldot
Encoding: 319 319 132
Width: 1000
Flags: HM
LayerCount: 2
Back
SplineSet
18 -88 m 4
 11 -88 0 -77 0 -68 c 4
 0 -62 4 -56 11 -46 c 6
 119 96 l 6
 133 113 143 122 154 122 c 4
 163 122 172 115 183 101 c 6
 228 41 l 6
 246 18 259 7 272 7 c 4
 284 7 295 16 308 34 c 6
 358 99 l 6
 369 114 380 121 390 121 c 4
 400 121 409 115 418 102 c 6
 467 38 l 6
 481 20 492 11 503 11 c 4
 515 11 527 22 544 44 c 6
 550 52 l 6
 662 200 790 229 844 232 c 4
 847 232 850 232 852 232 c 4
 870 232 889 229 889 219 c 4
 889 218 l 4
 887 206 881 195 859 192 c 4
 775 181 681 165 566 13 c 6
 486 -92 l 6
 471 -112 460 -121 449 -121 c 4
 437 -121 426 -110 411 -90 c 6
 371 -38 l 6
 354 -17 342 -6 331 -6 c 4
 318 -6 306 -18 289 -40 c 6
 246 -96 l 6
 233 -112 222 -119 212 -119 c 4
 200 -119 189 -109 176 -93 c 6
 125 -26 l 6
 113 -10 105 -3 97 -3 c 4
 88 -3 80 -14 68 -30 c 6
 35 -74 l 6
 27 -84 22 -88 18 -88 c 4
EndSplineSet
EndChar

StartChar: uni020E
Encoding: 526 526 133
Width: 1000
VWidth: 1372
Flags: H
LayerCount: 2
Back
SplineSet
93 245 m 4
 106 252 120 256 135 256 c 4
 143 256 149 255 152 254 c 4
 174 249 189 232 197 203 c 4
 199 197 200 189 200 177 c 4
 200 144 192 110 176 76 c 4
 165 53 151 34 136 19 c 4
 115 -1 92 -12 66 -12 c 4
 41 -12 22 0 10 24 c 4
 3 37 0 53 0 72 c 4
 0 91 3 111 10 133 c 4
 17 155 25 174 35 189 c 4
 53 217 73 235 93 245 c 4
150 153 m 4
 155 177 157 194 157 205 c 4
 157 216 155 225 151 231 c 4
 147 237 142 240 135 240 c 4
 128 240 121 238 114 233 c 4
 102 225 90 209 79 186 c 4
 68 162 59 136 53 107 c 4
 47 78 43 58 43 46 c 4
 43 34 45 26 46 22 c 4
 48 18 49 13 53 9 c 4
 57 5 61 3 67 3 c 4
 76 3 84 7 93 16 c 4
 101 25 109 34 115 45 c 4
 121 56 127 71 133 89 c 4
 140 108 145 130 150 153 c 4
EndSplineSet
EndChar

StartChar: uni020F
Encoding: 527 527 134
Width: 1000
VWidth: 1372
Flags: H
LayerCount: 2
Back
SplineSet
1 10 m 4
 2 15 7 20 14 20 c 4
 28 21 38 25 44 33 c 4
 47 36 52 48 58 67 c 4
 85 153 l 6
 90 168 84 176 73 167 c 6
 42 141 l 6
 37 137 29 137 26 140 c 4
 23 143 25 148 31 155 c 4
 103 241 l 6
 111 250 115 255 131 255 c 6
 148 255 l 6
 166 255 164 244 160 229 c 4
 122 107 104 49 103 47 c 4
 98 29 106 22 119 21 c 4
 128 20 131 15 130 10 c 4
 129 4 122 0 113 0 c 4
 8 0 l 4
 2 0 -1 4 1 10 c 4
EndSplineSet
EndChar

StartChar: uni0216
Encoding: 534 534 135
Width: 1000
VWidth: 1372
Flags: H
LayerCount: 2
Back
SplineSet
105 -13 m 4xf8
 60 -13 10 12 10 58 c 4
 10 83 25 103 57 120 c 4
 67 125 73 133 73 141 c 4
 73 145 71 149 69 153 c 4
 63 165 60 177 60 187 c 4
 60 197 62 206 66 214 c 4
 80 241 106 255 143 255 c 4
 190 255 235 230 235 187 c 4xf4
 235 165 222 146 198 131 c 4
 190 126 187 121 187 116 c 4
 187 111 188 107 191 102 c 4
 200 88 207 77 207 59 c 31
 207 10 157 -13 105 -13 c 4xf8
204 187 m 4
 204 217 178 231 150 231 c 4
 131 231 113 224 113 207 c 4
 113 200 115 192 118 186 c 4
 121 180 126 172 139 158 c 4
 147 149 156 146 167 146 c 4
 186 146 204 169 204 187 c 4
41 59 m 4
 41 27 73 12 107 12 c 4
 137 12 153 19 153 40 c 4xf8
 153 65 117 102 90 102 c 4
 67 102 41 83 41 59 c 4
EndSplineSet
EndChar

StartChar: uni0217
Encoding: 535 535 136
Width: 1000
VWidth: 1372
Flags: H
LayerCount: 2
Back
SplineSet
56 8 m 4xf4
 75 8 94 31 112 77 c 4
 114 83 116 87 116 91 c 4
 116 97 113 100 107 100 c 4
 103 100 97 98 89 95 c 4
 81 92 71 90 59 90 c 4
 47 90 35 95 24 104 c 4
 13 113 8 130 8 154 c 4xec
 8 178 16 201 33 221 c 4
 52 244 77 256 110 256 c 4
 159 256 184 226 184 165 c 4
 184 126 173 89 149 53 c 4
 133 29 117 13 99 3 c 4
 81 -7 65 -12 53 -12 c 4
 41 -12 31 -9 21 -2 c 4
 7 8 0 21 0 37 c 4xf4
 0 46 2 53 8 58 c 4xec
 14 63 21 65 29 65 c 4
 37 65 44 62 49 55 c 4
 51 52 52 48 52 43 c 4
 52 39 51 35 49 29 c 4
 47 24 46 20 46 17 c 4
 46 11 49 8 56 8 c 4xf4
54 148 m 4
 54 128 63 118 81 118 c 4
 103 118 119 135 131 171 c 4
 135 184 137 195 137 205 c 4
 137 215 136 222 131 228 c 4
 126 234 120 238 113 238 c 4
 94 238 78 224 65 196 c 4
 58 180 54 164 54 148 c 4
EndSplineSet
EndChar

StartChar: amacron
Encoding: 257 257 137
Width: 1000
Flags: H
LayerCount: 2
Back
SplineSet
221 490 m 7x7d
 324 490 391 431 391 334 c 7
 391 262 314 222 256 222 c 4
 228 222 217 215 214 184 c 4
 206 110 164 98 164 70 c 7
 164 56 182 57 194 54 c 4
 259 39 270 27 285 27 c 7
 299 27 307 36 321 36 c 31
 325 36 329 33 329 29 c 31
 329 23 325 20 320 17 c 4
 265 -24 266 -43 245 -43 c 7xbb
 233 -43 228 -40 217 -36 c 4
 126 0 95 5 55 6 c 4
 40 6 28 25 28 35 c 7
 28 43 39 47 59 49 c 4
 110 54 147 103 147 150 c 7x7b
 147 226 86 297 86 344 c 7
 86 360 101 369 112 376 c 4
 133 389 134 394 141 399 c 4
 146 404 152 407 162 407 c 7
 167 407 175 407 175 400 c 7
 175 392 168 383 168 368 c 7
 168 360 173 334 179 308 c 4
 191 265 196 248 242 248 c 7
 285 248 317 279 317 340 c 7
 317 407 258 438 200 438 c 7
 86 438 29 369 29 308 c 7
 29 253 50 252 50 228 c 7
 50 222 45 219 40 219 c 7
 21 219 0 261 0 311 c 7
 0 422 110 490 221 490 c 7x7d
EndSplineSet
EndChar

StartChar: B
Encoding: 66 66 138
Width: 280
Flags: W
HStem: -20 202<92.6426 187.357> 690 216<242.5 315.5>
VStem: 235 30<178.322 323.647 826.277 905.883> 437 32<316.902 414.188 503.696 591.011> 445 31<51.9334 214.827>
LayerCount: 2
Back
SplineSet
276 457 m 4
 302.09 415.056 316 405 357 364 c 4
 369 353 390 330 405 330 c 4
 414 330 419 338 419 354 c 4
 419 356 419 360 419 363 c 4
 410 440 330 507 284 507 c 4
 269 507 264 500 264 491 c 4
 264 480 271.017 465.011 276 457 c 4
452 350 m 4
 452 328 443 293 443 278 c 4
 443 265 446 254 454 233 c 4
 463 207 469 178 469 144 c 4
 469 81 447 25 425 -5 c 4
 419 -14 412 -18 407 -18 c 4
 402 -18 398 -13 398 -5 c 4
 398 -1 399 5 402 11 c 4
 413 32 437 71 437 144 c 4
 437 247 333 327 284 327 c 4
 260 327 258 304 258 269 c 6
 258 106 l 6
 258 42 177 -20 99 -20 c 4
 55 -20 8 3 8 56 c 4
 8 120 89 182 167 182 c 4
 189 182 195 179 208 179 c 4
 218 179 227 183 227 202 c 6
 227 614 l 5
 227 693 l 5
 227 869 l 6
 227 889 230 899 241 899 c 4
 253 899 255 891 256 879 c 4
 259 809 319 758 340 737 c 4
 390 687 451.5 627 451.5 525.5 c 4
 451.5 496.898 443.152 468.503 431.978 443.214 c 5
 444.232 416.363 452 385.75 452 350 c 4
262.314 668.001 m 5
 278.836 616.043 322.681 578.319 340 561 c 4
 364.353 536.647 391.552 509.922 413.049 477.243 c 5
 416.997 491.718 419.5 507.784 419.5 525.5 c 4
 419.5 608 333 683 284 683 c 4
 272.35 683 265.884 677.581 262.314 668.001 c 5
EndSplineSet
Fore
SplineSet
282 640 m 0xe0
 302 603 333 576 347 562 c 0
 360 549 375 534 389 519 c 0
 413 492 433 497 433 539 c 0
 433 625 340 690 291 690 c 0
 258 690 273 656 282 640 c 0xe0
460 234 m 0
 470 208 476 178 476 143 c 0
 476 80 454 24 432 -6 c 0
 415 -30 397 -18 410 9 c 0
 421 30 445 70 445 143 c 0xe8
 445 255 340 326 291 326 c 0
 267 326 265 303 265 268 c 2
 265 106 l 2
 265 42 184 -20 106 -20 c 0
 62 -20 15 3 15 56 c 0
 15 120 96 182 174 182 c 0
 196 182 203 178 216 178 c 0
 226 178 235 183 235 202 c 2
 235 876 l 2
 235 896 237 906 248 906 c 0
 260 906 262 898 263 886 c 0
 266 816 326 765 347 744 c 0
 397 694 463 627 463 539 c 0
 463 517 461 501 456 489 c 1
 444 452 444 447 454 422 c 0
 463 401 468 378 469 354 c 0xf0
 469 336 466 322 462 309 c 0
 450 273 447 269 460 234 c 0
280 461 m 0
 300 423 333 394 347 380 c 0
 361 366 378 350 395 333 c 0
 423 303 437 317 437 354 c 0xf0
 437 440 340 508 291 508 c 0
 265 508 266 488 280 461 c 0
EndSplineSet
EndChar

StartChar: C
Encoding: 67 67 139
Width: 280
Flags: HMW
HStem: 394 20G<15 45>
VStem: 15 30<-234.883 -155.277 347.353 414> 212.5 31<72.832 168.793 249.874 352.703> 225 31<447.24 588.608>
LayerCount: 2
Fore
SplineSet
71 -19 m 0xe0
 120 -19 212 46 212 132 c 0
 212 181 191 176 166 150 c 0
 153 135 139 121 127 109 c 0
 114 96 88 73 68 41 c 0
 58 26 33 -19 71 -19 c 0xe0
240 437 m 0
 227 402 230 398 242 362 c 0
 246 349 248 335 248 317 c 0
 248 300 246 283 241 268 c 0
 226 220 226 220 238 178 c 0
 241 165 244 151 244 132 c 0xe0
 244 44 177 -23 127 -73 c 0
 106 -94 46 -145 43 -215 c 0
 42 -227 40 -235 28 -235 c 0
 17 -235 15 -225 15 -205 c 2
 15 624 l 2
 15 688 96 750 174 750 c 0
 218 750 265 727 265 674 c 0
 265 666 264 656 261 648 c 0
 249 606 241 598 250 562 c 0
 254 547 256 532 256 517 c 0xd0
 256 482 250 463 240 437 c 0
60 210 m 0
 46 183 45 163 71 163 c 0
 120 163 218 231 218 317 c 0
 218 354 203 368 175 338 c 0
 158 321 141 305 127 291 c 0
 113 277 80 248 60 210 c 0
171 562 m 0
 150 553 128 548 106 548 c 0
 84 548 77 552 64 552 c 0
 54 552 45 547 45 528 c 2
 45 403 l 2
 45 368 47 345 71 345 c 0
 120 345 225 406 225 517 c 0xd0
 225 528 224 538 222 547 c 0
 217 582 199 573 171 562 c 0
EndSplineSet
EndChar

StartChar: F
Encoding: 70 70 140
Width: 360
Flags: HMW
VStem: 91 30<106.002 388.351 487.389 552.058> 249 30<179.203 314.603>
LayerCount: 2
Fore
SplineSet
187 92 m 2
 187 46 137 0 83 0 c 0
 49 0 15 20 15 58 c 0
 15 104 66 150 120 150 c 0
 124 150 133 150 137 150 c 0
 147 150 157 155 157 172 c 2
 157 510 l 2
 157 538 183 540 185 517 c 0
 189 464 229 427 245 411 c 0
 283 373 345 327 345 233 c 0
 345 186 328 142 312 120 c 0
 295 96 279 113 289 133 c 0
 297 149 315 178 315 233 c 0
 315 289 276 336 239 357 c 0
 213 371 187 377 187 327 c 2
 187 92 l 2
EndSplineSet
EndChar

StartChar: uni0316
Encoding: 790 790 141
Width: 1000
VWidth: 0
Flags: H
LayerCount: 2
Back
SplineSet
65.002 313.5 m 5
 65 313.5 l 5
 65 319 l 6
 65 327.152 64.6064 334.224 64.8066 340.09 c 4
 61.8682 386.752 26.126 344.5 6 344.5 c 4
 3 344.5 0 346.5 0 351.5 c 4
 0 361.5 10 370.5 43 429.5 c 4
 71 478.5 73 498.5 84 498.5 c 4
 97 498.5 94.8721 479.43 123 428.5 c 4
 152.864 374.425 165 363.5 165 351.5 c 4
 165 345.5 160 344.5 157 344.5 c 4
 134 344.5 103 387.5 103 333.5 c 6
 103 324 l 5
 103 313.5 l 1029
189 -166 m 3x6c
 176 -166 91 -202 79 -202 c 3
 64 -202 64 -184 64 -145 c 3
 64 -24 66 3 66 55 c 3
 66 193 64 251 64 319 c 3
 64 345 61 360 85 360 c 3
 99 360 104 359 104 324 c 3
 104 260 103 252 103 196 c 3
 103 173 107 166 116 166 c 3x9c
 127 166 214 203 227 203 c 3
 238 203 241 193 241 162 c 3
 241 79 239 75 239 -52 c 3
 239 -190 241 -193 241 -321 c 3
 241 -358 238 -360 219 -360 c 3
 203 -360 202 -346 202 -320 c 3
 202 -316 203 -245 203 -206 c 0
 203 -175 199 -166 189 -166 c 3x6c
EndSplineSet
EndChar

StartChar: uni0317
Encoding: 791 791 142
Width: 1000
VWidth: 0
Flags: H
LayerCount: 2
Back
SplineSet
125 -166 m 7x6c
 112 -166 27 -202 15 -202 c 7
 0 -202 0 -184 0 -145 c 7
 0 -24 2 3 2 55 c 7
 2 193 0 251 0 319 c 7
 0 345 -3 360 21 360 c 7
 35 360 40 359 40 324 c 7
 40 260 39 252 39 196 c 7
 39 173 43 166 52 166 c 7x9c
 63 166 150 203 163 203 c 7
 174 203 177 193 177 162 c 7
 177 79 175 75 175 -52 c 7
 175 -190 177 -193 177 -321 c 7
 177 -358 174 -360 155 -360 c 7
 139 -360 138 -346 138 -320 c 7
 138 -316 139 -245 139 -206 c 4
 139 -175 135 -166 125 -166 c 7x6c
EndSplineSet
EndChar

StartChar: uni031C
Encoding: 796 796 143
Width: 1000
VWidth: 0
Flags: H
LayerCount: 2
Back
SplineSet
58 -62 m 4x70
 52 -64 35 -69 30 -69 c 4
 21 -69 20 -61 20 -42 c 4
 20 -15 18 -5 42 2 c 4
 64 9 228 62 235 64 c 4
 239 65 253 69 259 69 c 4
 275 69 273 61 273 33 c 7
 273 4 271 6 249 -1 c 4
 226 -8 69 -59 58 -62 c 4x70
227 -273 m 7
 227 -296 224 -301 204 -301 c 7
 192 -301 187 -296 187 -276 c 7
 187 -248 193 -52 193 24 c 7
 193 158 187 319 187 327 c 7
 187 340 190 352 209 352 c 4
 225 352 227 345 227 326 c 7
 227 291 226 165 226 26 c 7
 226 -68 227 -234 227 -273 c 7
65 284 m 7
 65 307 69 312 89 312 c 7xb0
 101 312 106 307 106 287 c 7
 106 259 100 63 100 -13 c 7
 100 -147 105 -308 105 -316 c 7
 105 -329 99 -339 81 -339 c 4
 71 -339 66 -334 66 -315 c 7
 66 -280 68 -154 68 -15 c 7
 68 79 65 245 65 284 c 7
56 -198 m 4
 50 -200 35 -204 30 -204 c 4
 21 -204 20 -196 20 -177 c 6
 20 -165 l 6
 20 -144 22 -139 42 -133 c 4
 64 -126 228 -73 235 -71 c 4
 239 -70 252 -67 258 -67 c 4
 274 -67 273 -83 273 -97 c 7
 273 -126 271 -129 249 -136 c 4
 226 -143 67 -195 56 -198 c 4
54 73 m 4
 48 72 37 69 32 69 c 4x70
 20 69 20 79 20 95 c 4
 20 112 17 130 42 138 c 4
 65 146 226 197 239 201 c 4
 245 203 257 206 262 206 c 4
 273 206 273 198 273 179 c 7
 273 145 269 142 250 136 c 4
 232 130 67 76 54 73 c 4
EndSplineSet
EndChar

StartChar: uni0320
Encoding: 800 800 144
Width: 1000
VWidth: 0
Flags: H
LayerCount: 2
Back
SplineSet
227 -273 m 7
 227 -296 224 -301 204 -301 c 7
 192 -301 187 -296 187 -276 c 7
 187 -248 193 -52 193 24 c 7
 193 158 187 319 187 327 c 7
 187 340 190 352 209 352 c 4
 225 352 227 345 227 326 c 7
 227 291 226 165 226 26 c 7
 226 -68 227 -234 227 -273 c 7
65 284 m 7
 65 307 69 312 89 312 c 7
 101 312 106 307 106 287 c 7
 106 259 100 63 100 -13 c 7
 100 -147 105 -308 105 -316 c 7
 105 -329 99 -339 81 -339 c 4
 71 -339 66 -334 66 -315 c 7
 66 -280 68 -154 68 -15 c 7
 68 79 65 245 65 284 c 7
54 -74 m 4
 48 -75 37 -78 32 -78 c 4
 20 -78 20 -66 20 -42 c 4
 20 -13 17 3 42 11 c 4
 65 19 226 70 239 74 c 4
 245 76 257 79 262 79 c 4
 273 79 273 68 273 42 c 7
 273 -8 269 -5 250 -11 c 4
 232 -17 67 -71 54 -74 c 4
EndSplineSet
EndChar

StartChar: equal
Encoding: 61 61 145
Width: 280
Flags: HMW
HStem: 528 216<246.5 319.5>
VStem: 238 31<459 526.018 664.277 743.934> 448 32<253.246 413.543>
LayerCount: 2
Fore
SplineSet
15 624 m 2
 15 688 96 750 174 750 c 0
 218 750 265 727 265 674 c 0
 265 659.498 260.841 645.099 253.5 631.5 c 0
 235.444 598.051 230.391 597.169 241.885 562 c 0
 250.342 536.127 256 505.962 256 474 c 0
 256 348 177 287 127 237 c 0
 106 216 46 165 43 95 c 0
 42 83 40 75 28 75 c 0
 17 75 15 85 15 105 c 2
 15 624 l 2
172.5 562.15 m 0
 151.438 553.21 128.596 548 106 548 c 0
 84 548 77 552 64 552 c 0
 54 552 45 547 45 528 c 2
 45 349 l 2
 45 314 47 291 71 291 c 0
 120 291 225 362.5 225 474 c 0
 225 503.122 221.189 526.997 215.891 546.5 c 0
 208.024 575.45 195.513 571.919 172.5 562.15 c 0
EndSplineSet
EndChar

StartChar: uni0095
Encoding: 149 149 146
Width: 317
Flags: W
HStem: 1 21G<143 162.5> 208 36<85.5 178.277> 384 36<129.5 221.911> 478 20G<268.5 279>
VStem: 30 100<244.82 312.145> 74 100<420.82 488.145> 130 48<1 82.2684>
LayerCount: 2
Fore
SplineSet
82 322 m 0xf8
 106 322 130 306 130 274 c 0xf8
 130 267 126 258 126 252 c 0
 126 247 128 244 135 244 c 0
 162 244 188 265 204 293 c 0
 210 304 213 315 217 329 c 2
 228 374 l 2
 230 380 231 385 231 390 c 0
 231 397 228 401 222 401 c 0
 218 401 212 399 205 396 c 0
 191 390 176 384 152 384 c 0
 107 384 74 408 74 444 c 0
 74 472 94 498 126 498 c 0
 150 498 174 482 174 450 c 0xf4
 174 443 170 434 170 428 c 0
 170 423 172 420 179 420 c 0
 206 420 232 441 248 469 c 0
 256 484 262 498 275 498 c 0
 283 498 287 490 287 482 c 0
 287 480 286 479 286 477 c 0
 253 346 204 141 178 20 c 0
 174 3 167 1 158 1 c 2
 150 1 l 2
 136 1 130 2 130 12 c 0xf2
 130 24 174 151 186 202 c 0
 187 208 188 213 188 216 c 0
 188 224 185 226 180 226 c 0
 175 226 168 223 161 220 c 0
 147 214 132 208 108 208 c 0
 63 208 30 232 30 268 c 0
 30 296 50 322 82 322 c 0xf8
EndSplineSet
EndChar

StartChar: uni0096
Encoding: 150 150 147
Width: 361
Flags: W
HStem: 158 36<85.5 178.277> 334 36<129.5 221.911> 510 36<173.5 265.911> 604 20G<312.5 323>
VStem: 30 100<194.82 262.145> 74 100<370.82 438.145> 118 100<546.82 614.145> 130 48<-49 34.4824>
LayerCount: 2
Fore
SplineSet
82 272 m 0xf8
 106 272 130 256 130 224 c 0xf8
 130 217 126 208 126 202 c 0
 126 197 128 194 135 194 c 0
 162 194 188 215 204 243 c 0
 210 254 213 265 217 279 c 2
 228 324 l 2
 230 330 231 335 231 340 c 0
 231 347 228 351 222 351 c 0
 218 351 212 349 205 346 c 0
 191 340 176 334 152 334 c 0
 107 334 74 358 74 394 c 0
 74 422 94 448 126 448 c 0
 150 448 174 432 174 400 c 0xf4
 174 393 170 384 170 378 c 0
 170 373 172 370 179 370 c 0
 206 370 232 391 248 419 c 0
 254 430 258 442 261 456 c 2
 273 504 l 2
 274 509 275 513 275 516 c 0
 275 524 272 527 266 527 c 0
 262 527 256 525 249 522 c 0
 235 516 220 510 196 510 c 0
 151 510 118 534 118 570 c 0
 118 598 138 624 170 624 c 0
 194 624 218 608 218 576 c 0xf2
 218 569 214 560 214 554 c 0
 214 549 216 546 223 546 c 0
 250 546 276 567 292 595 c 0
 300 610 306 624 319 624 c 0
 327 624 331 616 331 608 c 0
 331 606 330 605 330 603 c 0
 281 406 212 128 178 -30 c 0
 174 -47 167 -49 158 -49 c 2
 150 -49 l 2
 136 -49 130 -48 130 -38 c 0xf1
 130 -26 174 101 186 152 c 0
 187 158 188 163 188 166 c 0
 188 174 185 176 180 176 c 0
 175 176 168 173 161 170 c 0
 147 164 132 158 108 158 c 0
 63 158 30 182 30 218 c 0
 30 246 50 272 82 272 c 0xf8
EndSplineSet
EndChar

StartChar: Uacute
Encoding: 218 218 148
Width: 398
Flags: W
HStem: 125 35<60.0074 179.944 218.173 337.956>
VStem: 182 34<4.01566 123.829 162.458 281.956>
LayerCount: 2
Fore
SplineSet
302 160 m 2
 323 160 338 162 338 147 c 0
 338 123 338 125 300 125 c 2
 241 125 l 2
 223 125 216 119 216 106 c 2
 216 54 l 2
 216 13 222 4 198 4 c 0
 179 4 182 9 182 52 c 2
 182 104 l 2
 182 120 166 125 157 125 c 2
 111 125 l 2
 70 125 60 119 60 143 c 0
 60 162 65 160 108 160 c 2
 155 160 l 2
 171 160 182 173 182 188 c 2
 182 246 l 2
 182 267 179 282 194 282 c 0
 218 282 216 282 216 244 c 2
 216 190 l 2
 216 170.5 228 160 246 160 c 2
 302 160 l 2
EndSplineSet
EndChar

StartChar: Ucircumflex
Encoding: 219 219 149
Width: 398
Flags: HW
HStem: 9 35<80.0088 317.927> 169 35<80.0074 179.944 218.173 317.956>
VStem: 182 34<68.0157 167.829 206.458 305.956>
LayerCount: 2
Fore
SplineSet
287 204 m 2
 308 204 323 206 323 191 c 0
 323 167 323 169 285 169 c 2
 241 169 l 2
 223 169 216 163 216 150 c 2
 216 113 l 2
 216 72 222 63 198 63 c 0
 179 63 182 68 182 111 c 2
 182 148 l 2
 182 164 166 169 157 169 c 2
 126 169 l 2
 85 169 75 163 75 187 c 0
 75 206 80 204 123 204 c 2
 155 204 l 2
 171 204 182 217 182 232 c 2
 182 275 l 2
 182 296 179 311 194 311 c 0
 218 311 216 311 216 273 c 2
 216 234 l 2
 216 214.5 228 204 246 204 c 2
 287 204 l 2
281 44 m 0
 307 44 318 44 318 29 c 0
 318 9 309 9 289 9 c 0
 117 9 l 0
 92 9 80 9 80 26 c 0
 80 40 83 44 103 44 c 0
 281 44 l 0
EndSplineSet
EndChar

StartChar: Udieresis
Encoding: 220 220 150
Width: 515
Flags: W
HStem: 55 29<140 375> 148 29<140 375>
LayerCount: 2
Back
SplineSet
341 91 m 4
 362 91 375 90 375 77 c 4
 375 59 375 58 346 58 c 4
 187 58 l 4
 153 58 143 58 143 72 c 4
 143 91 146 91 170 91 c 4
 341 91 l 4
337 186 m 4
 363 186 374 186 374 172 c 4
 374 154 365 153 345 153 c 4
 177 153 l 4
 152 153 140 153 140 169 c 4
 140 183 143 186 163 186 c 4
 337 186 l 4
EndSplineSet
Fore
SplineSet
140 84 m 1
 375 84 l 1
 375 55 l 1
 140 55 l 1
 140 84 l 1
140 177 m 1
 375 177 l 1
 375 148 l 1
 140 148 l 1
 140 177 l 1
EndSplineSet
EndChar

StartChar: seven
Encoding: 55 55 153
Width: 284
Flags: HW
LayerCount: 2
Fore
SplineSet
223 605 m 6
 223 623 225.333 630 239.667 630 c 7
 253.017 630 254 621.998 254 607 c 6
 254 109.5 l 6
 254 91.5 251.667 84.5 239.001 84.5 c 7
 224.667 84.5 223 92.5 223 107.5 c 6
 223 605 l 6
EndSplineSet
EndChar

StartChar: W
Encoding: 87 87 154
Width: 0
Flags: HW
LayerCount: 2
Fore
SplineSet
-30 510 m 4
 150 510 l 4
 150 420 l 4
 -30 420 l 4
 -30 510 l 4
-30 660 m 0
 150 660 l 0
 150 570 l 0
 -30 570 l 0
 -30 660 l 0
EndSplineSet
EndChar

StartChar: V
Encoding: 86 86 155
Width: 0
Flags: HW
LayerCount: 2
Fore
SplineSet
-30 660 m 0
 150 660 l 0
 150 570 l 0
 -30 570 l 0
 -30 660 l 0
EndSplineSet
EndChar

StartChar: Idotaccent
Encoding: 304 304 156
Width: 1000
Flags: H
LayerCount: 2
Back
SplineSet
222 192 m 4
 222 605 l 4
 222 623.475 225.5 630 240 630 c 4
 392 630 l 4
 419.667 630 428 624 428 600 c 4
 428 564 l 4
 428 542 418.667 530 395 530 c 4
 294.5 530 l 4
 267 530 258 520.5 258 496.5 c 4
 258 481.476 263.821 470 286 470 c 4
 397 470 l 4
 419.5 470 428 463 428 445 c 4
 428 403 l 4
 428 382 425.5 370 395.5 370 c 4
 287.5 370 l 4
 265 370 258 359.5 258 344.5 c 4
 258 115 l 4
 258 73 243.5 40.167 214.5 16.5 c 4
 185.5 -7.16699 151 -19 111 -19 c 4
 83.667 -19 60.833 -13 42.5 -1 c 4
 24.167 11 15 28.667 15 52 c 4
 15 86.667 30.667 115.833 62 139.5 c 4
 93.333 163.167 129 175 169 175 c 4
 175.167 175 192.667 172 201 172 c 4
 215 172 222 178.667 222 192 c 4
EndSplineSet
EndChar

StartChar: Gdotaccent
Encoding: 288 288 157
Width: 280
Flags: W
HStem: 297 21G<249 265> 330 100<267.07 434.868> 443 20G<249 265>
VStem: 249 186<330.334 429.666> 249 16<297 318.313 441.687 463>
LayerCount: 2
Fore
SplineSet
249 463 m 25xe8
 265 463 l 17xe8
 265 444 280 430 302 430 c 2
 406 430 l 2
 434 430 435 417 435 402 c 2
 435 358 l 2xf0
 435 343 434 330 406 330 c 2
 302 330 l 2
 280 330 265 316 265 297 c 9
 249 297 l 25
 249 463 l 25xe8
EndSplineSet
EndChar

StartChar: gdotaccent
Encoding: 289 289 158
Width: 280
Flags: HW
LayerCount: 2
Fore
SplineSet
250 463 m 25
 234 463 l 17
 234 444 219 430 197 430 c 2
 93 430 l 2
 65 430 64 417 64 402 c 2
 64 358 l 2
 64 343 65 330 93 330 c 2
 197 330 l 2
 219 330 234 316 234 297 c 9
 250 297 l 25
 250 463 l 25
EndSplineSet
EndChar

StartChar: Nacute
Encoding: 323 323 159
Width: 100
Flags: HW
LayerCount: 2
Fore
SplineSet
-30 430 m 0
 200 430 l 4
 200 330 l 0
 -30 330 l 0
 -30 430 l 0
-30 605 m 0
 200 605 l 0
 200 505 l 0
 -30 505 l 0
 -30 605 l 0
-30 780 m 0
 200 780 l 0
 200 680 l 0
 -30 680 l 0
 -30 780 l 0
EndSplineSet
EndChar

StartChar: lslash
Encoding: 322 322 160
Width: 280
Flags: HW
LayerCount: 2
Fore
SplineSet
234 463 m 2
 234 472 l 2
 234 491 219 505 197 505 c 2
 93 505 l 2
 65 505 64 518 64 533 c 2
 64 577 l 2
 64 592 65 605 93 605 c 2
 197 605 l 2
 219 605 234 619 234 638 c 2
 234 646 l 2
 234 666 219 680 197 680 c 2
 93 680 l 2
 65 680 64 692 64 708 c 2
 64 754 l 2
 64 775 70 780 92 780 c 2
 247 780 l 2
 261 780 265 774 265 755 c 2
 265 106 l 2
 265 42 184 -20 106 -20 c 0
 62 -20 15 3 15 56 c 0
 15 120 96 182 174 182 c 0
 196 182 202 179 215 179 c 0
 225 179 234 183 234 202 c 2
 234 297 l 2
 234 316 219 330 197 330 c 2
 93 330 l 2
 65 330 64 343 64 358 c 2
 64 402 l 2
 64 417 65 430 93 430 c 2
 197 430 l 2
 219 430 234 444 234 463 c 2
EndSplineSet
EndChar

StartChar: aacute
Encoding: 225 225 167
Width: 830
Flags: HW
LayerCount: 2
Fore
SplineSet
726 72 m 0
 245 72 l 0
 188.667 72 234 39 234 15 c 0
 234 13 233 7 227 7 c 0
 215 7 204.075 19.1357 150 49 c 0
 99.0703 77.1279 80 75 80 89 c 0
 80 99 100.051 100.911 149 129 c 0
 208.062 162.893 217 173 227 173 c 0
 232 173 234 169 234 167 c 0
 234 145 185.667 108 245 108 c 0
 725 108 l 0
 748 108 750 107 750 90 c 0
 750 74 748 72 726 72 c 0
EndSplineSet
EndChar

StartChar: L
Encoding: 76 76 168
Width: 494
Flags: HW
LayerCount: 2
Fore
SplineSet
403.455 450.208 m 5xd8
 412.504 470.874 419.5 495.883 419.5 525.5 c 4
 419.5 608 333 683 284 683 c 4
 260 683 258 660 258 625 c 6
 258 614 l 5
 227 614 l 5
 227 869 l 6
 227 889 230 899 241 899 c 4
 253 899 255 891 256 879 c 4
 259 809 319 758 340 737 c 4
 390 687 451.5 627 451.5 525.5 c 4
 451.5 487.711 436.928 450.281 420.518 419.901 c 5
 411 431.5 411 428.5 403.455 450.208 c 5xd8
452 350 m 4
 452 328 443 293 443 278 c 4
 443 265 446 254 454 233 c 4
 463 207 469 178 469 144 c 4
 469 81 447 25 425 -5 c 4
 419 -14 412 -18 407 -18 c 4
 402 -18 398 -13 398 -5 c 4
 398 -1 399 5 402 11 c 4
 413 32 437 71 437 144 c 4xd4
 437 247 333 327 284 327 c 4
 260 327 258 304 258 269 c 6
 258 106 l 6
 258 42 177 -20 99 -20 c 4
 55 -20 8 3 8 56 c 4
 8 120 89 182 167 182 c 4
 189 182 195 179 208 179 c 4
 218 179 227 183 227 202 c 6
 227 693 l 6
 227 713 230 723 241 723 c 4
 253 723 255 715 256 703 c 4
 259 633 319 582 340 561 c 4
 390 511 452 451 452 350 c 4
276 457 m 4
 302 415 316 405 357 364 c 4
 369 353 390 330 405 330 c 4
 414 330 419 338 419 354 c 4
 419 356 419 360 419 363 c 4
 410 440 330 507 284 507 c 4
 269 507 264 500 264 491 c 4xe0
 264 480 271 465 276 457 c 4
EndSplineSet
EndChar

StartChar: T
Encoding: 84 84 169
Width: 171
Flags: W
HStem: 44 102<59.1171 141.544>
VStem: 50 101<53.1171 136.485>
LayerCount: 2
Fore
SplineSet
50 94 m 0
 50 123 72 146 100 146 c 0
 128 146 151 123 151 94 c 0
 151 66 128 44 100 44 c 0
 72 44 50 66 50 94 c 0
EndSplineSet
EndChar

StartChar: uni009B
Encoding: 155 155 170
Width: 266
Flags: W
LayerCount: 2
Fore
SplineSet
95 534 m 0
 130 493 196 416 222 380 c 0
 236 362 236 345 218 330 c 0
 168 289 125 267 125 245 c 0
 125 221 204 130 230 101 c 0
 248 80 222 71 208 85 c 0
 176 115 137 118 112 100 c 0
 88 81 80 38 98 14 c 0
 109 -2 121 -22 103 -22 c 0
 84 -22 30 36 30 90 c 0
 30 130 42 171 91 181 c 0
 109 185 114 197 103 211 c 0
 81 239 60 257 52 269 c 0
 34 296 34 304 56 323 c 0
 82 346 145 384 145 410 c 0
 145 432 90 488 72 518 c 0
 64 532 64 540 70 544 c 0
 78 550 86 546 95 534 c 0
EndSplineSet
EndChar

StartChar: uni009C
Encoding: 156 156 171
Width: 268
Flags: HW
LayerCount: 2
Fore
SplineSet
101 539 m 0
 136 498 202 421 228 385 c 0
 242 367 242 350 224 335 c 0
 174 294 125 267 125 245 c 0
 125 221 204 130 230 101 c 0
 248 80 222 71 208 85 c 0
 176 115 137 118 112 100 c 0
 88 81 80 38 98 14 c 0
 109 -2 121 -22 103 -22 c 0
 84 -22 30 36 30 90 c 0
 30 130 42 171 91 181 c 0
 109 185 114 197 103 211 c 0
 81 239 60 257 52 269 c 0
 34 296 34 304 56 323 c 0
 82 346 151 389 151 415 c 0
 151 437 96 493 78 523 c 0
 70 537 70 545 76 549 c 0
 84 555 92 551 101 539 c 0
EndSplineSet
EndChar

StartChar: uni009E
Encoding: 158 158 173
Width: 297
Flags: HW
HStem: 248 36<85.5 178.277> 342 20G<224.5 235>
VStem: 30 100<284.82 352.145>
LayerCount: 2
Fore
SplineSet
238 453.5 m 5
 267.742 447.331 l 5
 225.527 278.014 l 5
 195.785 284.183 l 5
 238 453.5 l 5
196.336 227.671 m 1
 196.869 230.86 188 226 188 256 c 0
 188 264 185 266 180 266 c 0
 175 266 168 263 161 260 c 0
 147 254 132 248 108 248 c 0
 63 248 30 272 30 308 c 0
 30 336 50 362 82 362 c 0
 106 362 130 346 130 314 c 0
 130 307 126 298 126 292 c 0
 126 287 128 284 135 284 c 0
 162 284 188 305 204 333 c 0
 212 348 218 362 231 362 c 0
 239 362 243 354 243 346 c 0
 243 344 242 343 242 341 c 0
 223.641 268.333 l 2
 216.281 239.25 196.336 227.671 196.336 227.671 c 1
EndSplineSet
EndChar

StartChar: uni0097
Encoding: 151 151 174
Width: 95
Flags: W
HStem: 205 81<4.84619 75.1538>
VStem: 0 80<209.393 281.581>
LayerCount: 2
Fore
SplineSet
0 245 m 0
 0 268 18 286 40 286 c 0
 62 286 80 268 80 245 c 0
 80 223 62 205 40 205 c 0
 18 205 0 223 0 245 c 0
EndSplineSet
EndChar

StartChar: uni00A0
Encoding: 160 160 178
Width: 350
VWidth: 749
Flags: HW
HStem: -194 32<151.932 244.673> 160 31<148.012 239.537>
VStem: 15 100<-104.994 90.894> 241 90<63.8818 147.454> 304 31<-88.7425 -26.0739>
LayerCount: 2
Fore
SplineSet
15 174 m 0xe8
 15 297 90 377 196 377 c 0
 276 377 331 334 331 276 c 4
 331 249 317 210 267 210 c 0
 227 210 210 238 210 269 c 0
 210 285 216 298 228 308 c 0
 239 318 241 321 241 329 c 0xf0
 241 342 227 346 203 346 c 0
 109 346 115 272 115 174 c 0
 115 96 128 24 194 24 c 0
 270 24 300 112 304 146 c 0
 307 169 335 172 335 146 c 0
 335 95 294 -8 194 -8 c 0
 81 -8 15 69 15 174 c 0xe8
EndSplineSet
EndChar

StartChar: exclamdown
Encoding: 161 161 179
Width: 350
VWidth: 749
Flags: HW
HStem: 24 257<175 267>
VStem: 15 100<-105.97 90.4217> 158 31<-283.994 -197.399 -127.808 137.9 194.973 280.947> 241 90<63.8818 147.409> 304 31<-89.1171 -22.1099>
LayerCount: 2
Fore
SplineSet
241 329 m 0xf0
 241 340 230 345 214 345 c 0
 196 345 189 330 189 308 c 2
 189 63 l 2
 189 42 197 27 214 27 c 0
 218 27 222 28 227 30 c 0
 279 51 301 118 304 146 c 0
 306 158 314 164 321 164 c 0
 328 164 335 159 335 146 c 0xe8
 335 100 302 12 223 -5 c 0
 196 -11 189 -20 189 -42 c 2
 189 -74 l 2
 189 -92 187 -98 174 -98 c 0
 160 -98 158 -90 158 -76 c 2
 158 -40 l 2
 158 -19 151 -6 123 4 c 0
 54 30 15 94 15 174 c 0
 15 266 57 334 122 362 c 0
 149 374 158 377 158 405 c 2
 158 442 l 2
 158 460 160 467 175 467 c 0
 188 467 189 459 189 444 c 2
 189 410 l 2
 189 392 198 379 222 375 c 0
 288 367 331 327 331 276 c 0
 331 249 317 210 267 210 c 0
 227 210 210 238 210 269 c 0
 210 285 216 298 228 308 c 0
 239 318 241 321 241 329 c 0xf0
158 87 m 2
 158 295 l 2
 158 314 152 324 145 324 c 0
 140 324 134 319 128 308 c 0
 116 284 115 249 115 208 c 0
 115 197 115 186 115 174 c 0
 115 140 117 107 126 80 c 0
 131 64 138 58 143 58 c 0
 151 58 158 70 158 87 c 2
EndSplineSet
EndChar

StartChar: greater
Encoding: 62 62 180
Width: 128
Flags: HW
LayerCount: 2
Fore
SplineSet
93 0 m 3
 93 -60 55 -121 0 -121 c 3
 -55 -121 -93 -60 -93 0 c 3
 -93 60 -55 121 0 121 c 3
 55 121 93 60 93 0 c 3
EndSplineSet
EndChar

StartChar: question
Encoding: 63 63 181
Width: 172
Flags: HW
LayerCount: 2
Fore
SplineSet
172 17 m 0
 172 -29 122 -75 68 -75 c 0
 34 -75 0 -55 0 -17 c 0
 0 29 51 75 105 75 c 0
 139 75 172 55 172 17 c 0
EndSplineSet
EndChar

StartChar: E
Encoding: 69 69 182
Width: 450
Flags: W
VStem: 76 30<106.002 388.351 487.389 552.058> 234 30<179.203 314.603>
LayerCount: 2
Back
SplineSet
76 115 m 13
 76 533 l 6
 76 548 82 556 90 556 c 4
 99 556 100 549 101 540 c 4
 103 488 148 450 164 434 c 4
 202 396 261 350 261 256 c 4
 261 209 244 166 228 144 c 4
 215 126 201 136 211 156 c 4
 219 172 237 201 237 256 c 4
 237 333 159 394 122 394 c 4
 104 394 106 376 106 350 c 6
 106 115 l 5
 96 94 76 101 76 115 c 13
EndSplineSet
Fore
SplineSet
76 115 m 9
 76 533 l 2
 76 560.828 102.475 563.098 104 540 c 0
 107.5 487 148 450 164 434 c 0
 202 396 264 350 264 256 c 0
 264 209 246.724 165.198 231 143 c 0
 214 119 198 136 208 156 c 0
 216 172 234 201 234 256 c 0
 234 312.315 194.591 359.3 157.854 379.667 c 0
 132 394 106 400.109 106 350 c 2
 106 115 l 1
 96 94 76 101 76 115 c 9
EndSplineSet
EndChar

StartChar: G
Encoding: 71 71 183
Width: 409
Flags: HW
HStem: 0 150<56.8621 145.754>
VStem: 15 172<40.0116 109.164> 157 30<150.479 226.488 301.306 365.342 464.389 529.039> 315 30<156.161 286.463>
LayerCount: 2
Fore
SplineSet
380 376 m 0
 386 376 394 367 394 358 c 0
 394 352 387 349 377 344 c 2
 354 333 l 2
 346 329 335 318 335 300 c 0
 335 296 336 291 338 286 c 0
 342 270 345 253 345 233 c 0
 345 186 328 142 312 120 c 0
 306 112 300 108 296 108 c 0
 290 108 286 114 286 121 c 0
 286 125 287 129 289 133 c 0
 297 149 315 178 315 233 c 0
 315 248 312 262 308 275 c 0
 303 288 293 293 282 293 c 0
 274 293 265 291 256 287 c 2
 227 273 l 2
 197 258 187 248 187 213 c 2xb0
 187 92 l 2xd0
 187 46 137 0 83 0 c 0
 49 0 15 20 15 58 c 0xd0
 15 104 66 150 120 150 c 2
 137 150 l 2
 147 150 157 155 157 172 c 2
 157 202 l 2
 157 217 153 227 140 227 c 0
 134 227 127 226 119 221 c 2
 84 205 l 2
 76 201 70 199 66 199 c 0
 59 199 53 208 53 216 c 0
 53 223 59 226 69 231 c 2
 116 253 l 2
 147 268 157 276 157 314 c 2
 157 510 l 2
 157 525 165 533 172 533 c 0
 178 533 184 527 185 517 c 0
 189 464 229 427 245 411 c 0
 256 400 270 388 283 374 c 0
 295 361 309 356 322 356 c 0
 329 356 335 357 341 360 c 2
 362 370 l 2
 370 373 375 376 380 376 c 0
262 333 m 0
 262 348 226 367 210 367 c 0
 196 367 187 357 187 327 c 2
 187 323 l 2xb0
 187 311 193 300 207 300 c 0
 212 300 217 301 224 305 c 2
 242 313 l 2
 254 319 262 326 262 333 c 0
EndSplineSet
EndChar

StartChar: copyright
Encoding: 169 169 184
Width: 340
VWidth: 970
Flags: HW
HStem: -30 30<99.8725 145.266 232.288 276.865> 317 20G<155.368 167.868 214.368 222.868>
VStem: 146.868 84<0.547237 191.104>
LayerCount: 2
Fore
SplineSet
120.868 186 m 0
 91.8682 145 l 0
 77.8682 125 53.8682 132 66.8682 158 c 0
 118.868 260 l 0
 144.868 312 146.868 337 163.868 337 c 0
 171.868 337 176.868 332 191.868 332 c 0
 207.868 332 209.868 337 218.868 337 c 0
 226.868 337 230.868 331 230.868 319 c 0
 230.868 29 l 0
 230.868 6 236.868 2 256.868 0 c 0
 272.868 -1 276.868 -3 276.868 -15 c 0
 276.868 -26 273.868 -30 258.868 -30 c 0
 120.868 -30 l 0
 103.868 -30 99.8682 -27 99.8682 -15 c 0
 99.8682 -3 105.868 -1 120.868 0 c 0
 140.868 2 146.868 8 146.868 29 c 0
 146.868 174 l 0
 146.868 197 135.868 207 120.868 186 c 0
EndSplineSet
EndChar

StartChar: ordfeminine
Encoding: 170 170 185
Width: 340
VWidth: 970
Flags: W
HStem: -34 78<175.948 268.139> 20 56<113.09 154.604> 312 32<113.777 203.688>
VStem: 24.5 26<-33.7148 3.71204> 37.5 71<218 294.615> 222.5 90<190.072 296.565> 286.5 29<55.7217 105.032>
LayerCount: 2
Fore
SplineSet
182.5 344 m 0xac
 256.5 344 312.5 296 312.5 236 c 0
 312.5 175 266.5 156 208.5 143 c 0
 182.5 137 147.5 126 119.5 104 c 0
 100.5 89 109.5 76 126.5 76 c 0x6c
 176.5 76 205.5 44 241.5 44 c 0
 267.5 44 278.5 59 286.5 79 c 0
 290.5 92 296.5 106 304.5 106 c 0
 312.5 106 315.5 100 315.5 92 c 0
 315.5 40 274.5 -34 217.5 -34 c 0xa2
 171.5 -34 156.5 20 99.5 20 c 0x62
 82.5 20 58.5 9 50.5 -18 c 0
 46.5 -30 42.5 -34 34.5 -34 c 0
 28.5 -34 24.5 -28 24.5 -14 c 0xb2
 26.5 63 79.5 122 137.5 152 c 0
 195.5 181 222.5 194 222.5 244 c 0
 222.5 288 201.5 312 158.5 312 c 0
 136.5 312 108.5 304 108.5 285 c 0
 108.5 264 144.5 265 144.5 222 c 0
 144.5 199 128.5 174 96.5 174 c 0
 50.5 174 37.5 204 37.5 232 c 0
 37.5 294 91.5 344 182.5 344 c 0xac
EndSplineSet
EndChar

StartChar: guillemotleft
Encoding: 171 171 186
Width: 340
VWidth: 970
Flags: HW
HStem: -37 33<111.347 205.37> 140 31<113.071 198.112> 309 32<105.567 204.566>
VStem: 32 79<4.75662 84.8571> 39 65<228.5 301.177> 216 85<187.485 300.261> 218 90<7.68179 120.704>
LayerCount: 2
Fore
SplineSet
165 341 m 0xec
 247 341 301 302 301 244 c 0xec
 301 195 274 180 252 173 c 0
 238 167 231 165 231 159 c 0
 231 152 238 150 251 144 c 0
 275 133 308 114 308 64 c 0
 308 -4 235 -37 167 -37 c 0
 93 -37 32 -1 32 62 c 0
 32 97 60 120 88 120 c 0
 114 120 141 103 141 70 c 0
 141 24 111 31 111 12 c 0
 111 2 126 -4 151 -4 c 0
 219 -4 218 31 218 68 c 0xf2
 218 143 174 138 130 140 c 0
 124 140 113 142 113 157 c 0
 113 168 121 171 129 171 c 0
 207 171 216 193 216 248 c 0
 216 291 203 309 156 309 c 0
 124 309 104 301 104 287 c 0
 104 268 140 273 140 230 c 0
 140 210 122 188 89 188 c 0
 62 188 39 212 39 245 c 0
 39 312 109 341 165 341 c 0xec
EndSplineSet
EndChar

StartChar: logicalnot
Encoding: 172 172 187
Width: 340
VWidth: 970
Flags: W
HStem: -30 30<118.504 162.898 252.92 297.497> 60 32<73.5343 162.32 253.071 324.498> 325 20G<132.5 144.5 220.5 230>
VStem: 118.5 119<284.352 337.736> 164.5 87<0.547237 59.6328 92.7379 189.125>
LayerCount: 2
Fore
SplineSet
164.5 36 m 0xe8
 164.5 53 154.5 60 136.5 60 c 0
 27.5 60 l 0
 16.5 60 15.5 72 15.5 76 c 0
 15.5 83 17.5 87 29.5 104 c 0
 93.5 197 99.5 243 118.5 323 c 0
 122.5 341 128.5 345 136.5 345 c 0
 152.5 345 154.5 338 181.5 338 c 0
 209.5 338 214.5 345 226.5 345 c 0
 233.5 345 237.5 341 237.5 331 c 0xf0
 237.5 310 216.5 280 158.5 212 c 0
 122.5 171 98.5 143 81.5 125 c 0
 64.5 105 66.5 92 92.5 92 c 0
 135.5 92 l 0
 155.5 92 164.5 105 164.5 119 c 0
 164.5 141 l 0
 164.5 155 166.5 168 174.5 176 c 0
 223.5 232 l 0
 229.5 239 251.5 256 251.5 226 c 0
 251.5 120 l 0
 251.5 107 255.5 92 276.5 92 c 0
 305.5 92 l 0
 322.5 92 324.5 86 324.5 76 c 0
 324.5 67 324.5 60 305.5 60 c 0
 275.5 60 l 0
 261.5 60 251.5 52 251.5 40 c 0
 251.5 29 l 0xe8
 251.5 6 257.5 2 277.5 0 c 0
 293.5 -1 297.5 -3 297.5 -15 c 0
 297.5 -26 295.5 -30 279.5 -30 c 0
 138.5 -30 l 0
 122.5 -30 118.5 -27 118.5 -15 c 0xf0
 118.5 -3 124.5 -1 138.5 0 c 0
 158.5 2 164.5 8 164.5 29 c 0
 164.5 36 l 0xe8
EndSplineSet
EndChar

StartChar: uni00AD
Encoding: 173 173 188
Width: 340
VWidth: 970
Flags: HW
HStem: -37 32<111.54 187.993> 172 24<96.4922 174.592> 264 65<94.2023 241.17> 271 70<67.5 160.439>
VStem: 37 74<-1.65636 78.9111> 51 31<196.003 269.885> 212 91<21.028 157.923>
LayerCount: 2
Fore
SplineSet
74 341 m 0xd6
 96 341 124 329 165 329 c 0
 204 329 241 336 260 339 c 0
 277 342 282 337 275 323 c 0
 255 285 215 264 159 264 c 0xe6
 133 264 120 271 104 271 c 0
 94 271 85 264 84 253 c 0
 82 212 l 0xd6
 81 200 88 196 97 196 c 0
 113 196 125 208 177 208 c 0
 250 208 303 164 303 90 c 0
 303 25 252 -37 151 -37 c 0
 95 -37 37 -7 37 55 c 0
 37 86 55 113 93 113 c 0
 123 113 139 92 139 63 c 0
 139 31 111 25 111 10 c 0xda
 111 -3 128 -5 145 -5 c 0
 207 -5 212 50 212 91 c 0
 212 144 197 172 141 172 c 0
 109 172 87 158 75 140 c 0
 66 126 47 129 47 146 c 0
 47 155 50 178 51 198 c 0
 53 256 l 0
 55 284 53 306 55 325 c 0
 56 340 61 341 74 341 c 0xd6
EndSplineSet
EndChar

StartChar: registered
Encoding: 174 174 189
Width: 340
VWidth: 970
Flags: HW
HStem: -34 32<134.296 213.223> 152 35<136.09 218.923> 311 31<141.096 222.275>
VStem: 31.5 87<51.3452 253.031> 223.5 68<245.5 310.079> 229.5 79<16.6834 145.12>
LayerCount: 2
Fore
SplineSet
180.5 152 m 0xf4
 161.5 152 143.5 143 135.5 135 c 0
 122.5 122 118.5 117 118.5 64 c 0
 118.5 46 119.5 -2 178.5 -2 c 0
 225.5 -2 229.5 46 229.5 84 c 0
 229.5 124 221.5 152 180.5 152 c 0xf4
190.5 342 m 0
 254.5 342 291.5 310 291.5 260 c 0
 291.5 231 269.5 205 236.5 205 c 0
 217.5 205 193.5 217 193.5 248 c 0
 193.5 284 223.5 281 223.5 297 c 0xf8
 223.5 306 215.5 311 192.5 311 c 0
 118.5 311 118.5 257 118.5 206 c 0
 118.5 176 126.5 176 135.5 176 c 0
 152.5 176 170.5 187 203.5 187 c 0
 271.5 187 308.5 144 308.5 82 c 0
 308.5 12 246.5 -34 182.5 -34 c 0
 78.5 -34 31.5 60 31.5 152 c 0
 31.5 254 86.5 342 190.5 342 c 0
EndSplineSet
EndChar

StartChar: macron
Encoding: 175 175 190
Width: 340
VWidth: 970
Flags: HW
HStem: 223 70<181.992 258.307> 272 70<97.368 178.903>
VStem: 29.9922 27<215.223 257 308.745 339.973> 77.9922 109<-25.8553 47.4059> 284.992 27<300.931 339.985>
LayerCount: 2
Fore
SplineSet
235.992 228 m 0xb8
 226.992 225 215.992 223 203.992 223 c 0xb8
 159.992 223 153.992 272 105.992 272 c 0x78
 73.9922 272 58.9922 249 52.9922 221 c 0
 49.9922 207 27.9922 203 27.9922 223 c 0xb8
 27.9922 231 29.9922 243 29.9922 266 c 0
 29.9922 324 l 0
 29.9922 336 35.9922 340 42.9922 340 c 0
 48.9922 340 54.9922 331 56.9922 322 c 0
 61.9922 305 70.9922 302 89.9922 315 c 0
 105.992 325 117.992 342 152.992 342 c 0x78
 204.992 342 210.992 293 249.992 293 c 0
 270.992 293 281.992 309 284.992 326 c 0
 286.992 335 290.992 340 298.992 340 c 0
 312.992 340 311.992 325 311.992 312 c 0
 309.992 251 294.992 187 252.992 134 c 0
 208.992 79 194.992 44 186.992 -20 c 0
 185.992 -28 180.992 -31 173.992 -31 c 0
 162.992 -31 154.992 -26 132.992 -26 c 0
 109.992 -26 98.9922 -32 88.9922 -32 c 0
 80.9922 -32 77.9922 -28 77.9922 -18 c 0
 77.9922 89 216.992 128 256.992 206 c 0
 265.992 224 263.992 237 235.992 228 c 0xb8
EndSplineSet
EndChar

StartChar: Ocircumflex
Encoding: 212 212 191
Width: 851
Flags: HW
LayerCount: 2
Fore
SplineSet
695 35 m 0
 695 56 712 73 733 73 c 0
 754 73 771 56 771 35 c 0
 771 14 754 -3 733 -3 c 0
 712 -3 695 14 695 35 c 0
449 -6 m 0
 428 -6 411 -1 398 10 c 0
 385 21 379 36 379 55 c 0
 379 78 390 97 413 114 c 0
 434 128 471 142 522 156 c 0
 535 159 541 169 541 186 c 0
 541 189 l 0
 541 227 526 246 495 246 c 0
 468 246 454 240 454 228 c 0
 454 225 455 221 458 216 c 0
 461 211 463 205 463 200 c 0
 463 189 460 180 453 174 c 0
 446 168 438 165 427 165 c 0
 416 165 408 169 401 176 c 0
 394 183 391 192 391 203 c 0
 391 226 402 244 422 255 c 0
 442 266 467 272 497 272 c 0
 531 272 556 265 570 252 c 0
 584 239 591 215 591 181 c 0
 591 56 l 0
 591 39 594 30 610 30 c 0
 634 30 640 62 642 96 c 0
 643 108 648 113 655 113 c 0
 664 113 668 109 668 101 c 0
 668 18 640 -6 593 -6 c 0
 559 -6 553 24 538 24 c 0
 530 24 526 22 516 15 c 0
 499 1 476 -6 449 -6 c 0
474 28 m 0
 515 28 540 64 540 105 c 0
 540 108 l 0
 540 119 532 125 516 125 c 0
 501 125 482 117 460 102 c 0
 445 91 438 78 438 62 c 0
 438 39 450 28 474 28 c 0
298 235 m 0
 298 244 290 249 275 249 c 0
 248 249 230 240 220 220 c 0
 210 200 205 172 205 137 c 0
 205 102 210 75 220 56 c 0
 230 37 247 27 274 27 c 0
 296 27 314 40 332 61 c 0
 351 83 370 65 352 41 c 0
 329 11 297 -6 257 -6 c 0
 221 -6 193 6 172 32 c 0
 151 58 140 91 140 131 c 0
 140 171 152 204 177 232 c 0
 202 260 233 274 272 274 c 0
 297 274 317 268 332 256 c 0
 347 244 355 226 355 203 c 0
 355 189 352 178 345 169 c 0
 338 160 329 156 316 156 c 0
 305 156 296 160 289 166 c 0
 282 172 278 180 278 190 c 0
 278 203 282 213 289 220 c 0
 295 225 298 230 298 235 c 0
EndSplineSet
EndChar

StartChar: Otilde
Encoding: 213 213 192
Width: 1380
Flags: HW
LayerCount: 2
Fore
SplineSet
1154 35 m 0
 1154 56 1171 73 1192 73 c 0
 1213 73 1230 56 1230 35 c 0
 1230 14 1213 -3 1192 -3 c 0
 1171 -3 1154 14 1154 35 c 0
781 0 m 0
 656 0 l 0
 647 0 643 7 643 12 c 0
 643 24 647 29 656 29 c 0
 673 30 685 34 693 42 c 0
 701 50 702 66 702 89 c 0
 702 337 l 0
 702 351 699 360 693 364 c 0
 687 368 679 371 663 371 c 0
 651 371 646 373 646 385 c 0
 646 395 650 399 659 399 c 0
 765 399 l 0
 778 399 787 393 791 380 c 0
 857 179 l 0
 872 134 887 133 902 177 c 0
 969 376 l 0
 974 392 986 399 1002 399 c 0
 1105 399 l 0
 1119 399 1121 392 1121 386 c 0
 1121 373 1115 371 1102 371 c 0
 1083 370 1072 368 1066 364 c 0
 1060 360 1057 351 1057 337 c 0
 1057 63 l 0
 1057 49 1060 39 1066 35 c 0
 1072 31 1086 29 1105 29 c 0
 1117 29 1122 24 1122 16 c 0
 1122 5 1117 0 1107 0 c 0
 948 0 l 0
 938 0 934 4 934 15 c 0
 934 25 940 29 950 29 c 0
 970 30 983 31 989 35 c 0
 995 39 999 48 999 62 c 0
 999 248 l 0
 999 326 975 276 966 250 c 0
 886 11 l 0
 883 2 877 -9 870 -9 c 0
 865 -9 l 0
 858 -9 853 5 850 15 c 0
 768 268 l 0
 758 299 740 317 740 264 c 0
 740 88 l 0
 740 65 741 51 749 43 c 0
 757 35 766 31 778 30 c 0
 790 29 796 26 796 16 c 0
 796 4 791 0 781 0 c 0
511 35 m 0
 511 56 528 73 549 73 c 0
 570 73 587 56 587 35 c 0
 587 14 570 -3 549 -3 c 0
 528 -3 511 14 511 35 c 0
138 0 m 0
 13 0 l 0
 4 0 0 7 0 12 c 0
 0 24 4 29 13 29 c 0
 30 30 42 34 50 42 c 0
 58 50 59 66 59 89 c 0
 59 337 l 0
 59 351 56 360 50 364 c 0
 44 368 36 371 20 371 c 0
 8 371 3 373 3 385 c 0
 3 395 7 399 16 399 c 0
 122 399 l 0
 135 399 144 393 148 380 c 0
 214 179 l 0
 229 134 244 133 259 177 c 0
 326 376 l 0
 331 392 343 399 359 399 c 0
 462 399 l 0
 476 399 478 392 478 386 c 0
 478 373 472 371 459 371 c 0
 440 370 429 368 423 364 c 0
 417 360 414 351 414 337 c 0
 414 63 l 0
 414 49 417 39 423 35 c 0
 429 31 443 29 462 29 c 0
 474 29 479 24 479 16 c 0
 479 5 474 0 464 0 c 0
 305 0 l 0
 295 0 291 4 291 15 c 0
 291 25 297 29 307 29 c 0
 327 30 340 31 346 35 c 0
 352 39 356 48 356 62 c 0
 356 248 l 0
 356 326 332 276 323 250 c 0
 243 11 l 0
 240 2 234 -9 227 -9 c 0
 222 -9 l 0
 215 -9 210 5 207 15 c 0
 125 268 l 0
 115 299 97 317 97 264 c 0
 97 88 l 0
 97 65 98 51 106 43 c 0
 114 35 123 31 135 30 c 0
 147 29 153 26 153 16 c 0
 153 4 148 0 138 0 c 0
EndSplineSet
EndChar

StartChar: Ecircumflex
Encoding: 202 202 193
Width: 340
VWidth: 970
Flags: HW
HStem: 360 30<118.504 162.898 252.92 297.497> 450 32<73.5343 162.32 253.071 324.498> 715 20G<132.5 144.5 220.5 230>
VStem: 118.5 119<674.352 727.736> 164.5 87<390.547 449.633 482.738 579.125>
LayerCount: 2
Fore
SplineSet
164.5 426 m 4xe8
 164.5 443 154.5 450 136.5 450 c 4
 27.5 450 l 4
 16.5 450 15.5 462 15.5 466 c 4
 15.5 473 17.5 477 29.5 494 c 4
 93.5 587 99.5 633 118.5 713 c 4
 122.5 731 128.5 735 136.5 735 c 4
 152.5 735 154.5 728 181.5 728 c 4
 209.5 728 214.5 735 226.5 735 c 4
 233.5 735 237.5 731 237.5 721 c 4xf0
 237.5 700 216.5 670 158.5 602 c 4
 122.5 561 98.5 533 81.5 515 c 4
 64.5 495 66.5 482 92.5 482 c 4
 135.5 482 l 4
 155.5 482 164.5 495 164.5 509 c 4
 164.5 531 l 4
 164.5 545 166.5 558 174.5 566 c 4
 223.5 622 l 4
 229.5 629 251.5 646 251.5 616 c 4
 251.5 510 l 4
 251.5 497 255.5 482 276.5 482 c 4
 305.5 482 l 4
 322.5 482 324.5 476 324.5 466 c 4
 324.5 457 324.5 450 305.5 450 c 4
 275.5 450 l 4
 261.5 450 251.5 442 251.5 430 c 4
 251.5 419 l 4xe8
 251.5 396 257.5 392 277.5 390 c 4
 293.5 389 297.5 387 297.5 375 c 4
 297.5 364 295.5 360 279.5 360 c 4
 138.5 360 l 4
 122.5 360 118.5 363 118.5 375 c 4xf0
 118.5 387 124.5 389 138.5 390 c 4
 158.5 392 164.5 398 164.5 419 c 4
 164.5 426 l 4xe8
164.5 36 m 0xe8
 164.5 53 154.5 60 136.5 60 c 0
 27.5 60 l 0
 16.5 60 15.5 72 15.5 76 c 0
 15.5 83 17.5 87 29.5 104 c 0
 93.5 197 99.5 243 118.5 323 c 0
 122.5 341 128.5 345 136.5 345 c 0
 152.5 345 154.5 338 181.5 338 c 0
 209.5 338 214.5 345 226.5 345 c 0
 233.5 345 237.5 341 237.5 331 c 0xf0
 237.5 310 216.5 280 158.5 212 c 0
 122.5 171 98.5 143 81.5 125 c 0
 64.5 105 66.5 92 92.5 92 c 0
 135.5 92 l 0
 155.5 92 164.5 105 164.5 119 c 0
 164.5 141 l 0
 164.5 155 166.5 168 174.5 176 c 0
 223.5 232 l 0
 229.5 239 251.5 256 251.5 226 c 0
 251.5 120 l 0
 251.5 107 255.5 92 276.5 92 c 0
 305.5 92 l 0
 322.5 92 324.5 86 324.5 76 c 0
 324.5 67 324.5 60 305.5 60 c 0
 275.5 60 l 0
 261.5 60 251.5 52 251.5 40 c 0
 251.5 29 l 0xe8
 251.5 6 257.5 2 277.5 0 c 0
 293.5 -1 297.5 -3 297.5 -15 c 0
 297.5 -26 295.5 -30 279.5 -30 c 0
 138.5 -30 l 0
 122.5 -30 118.5 -27 118.5 -15 c 0xf0
 118.5 -3 124.5 -1 138.5 0 c 0
 158.5 2 164.5 8 164.5 29 c 0
 164.5 36 l 0xe8
EndSplineSet
EndChar

StartChar: Edieresis
Encoding: 203 203 194
Width: 340
VWidth: 970
Flags: HW
HStem: 356 32<134.296 213.223> 542 35<136.09 218.923> 701 31<141.096 222.275>
VStem: 31.5 87<441.345 643.031> 223.5 68<635.5 700.079> 229.5 79<406.683 535.12>
LayerCount: 2
Fore
SplineSet
180.5 542 m 4xf4
 161.5 542 143.5 533 135.5 525 c 4
 122.5 512 118.5 507 118.5 454 c 4
 118.5 436 119.5 388 178.5 388 c 4
 225.5 388 229.5 436 229.5 474 c 4
 229.5 514 221.5 542 180.5 542 c 4xf4
190.5 732 m 4
 254.5 732 291.5 700 291.5 650 c 4
 291.5 621 269.5 595 236.5 595 c 4
 217.5 595 193.5 607 193.5 638 c 4
 193.5 674 223.5 671 223.5 687 c 4xf8
 223.5 696 215.5 701 192.5 701 c 4
 118.5 701 118.5 647 118.5 596 c 4
 118.5 566 126.5 566 135.5 566 c 4
 152.5 566 170.5 577 203.5 577 c 4
 271.5 577 308.5 534 308.5 472 c 4
 308.5 402 246.5 356 182.5 356 c 4
 78.5 356 31.5 450 31.5 542 c 4
 31.5 644 86.5 732 190.5 732 c 4
125.5 129 m 0xf4
 97.5 129 60.5 103 60.5 63 c 0
 60.5 20 116.5 -3 168.5 -3 c 0
 230.5 -3 245.5 20 245.5 44 c 0
 245.5 89 175.5 129 125.5 129 c 0xf4
172.5 310 m 0
 141.5 310 88.5 304 88.5 266 c 0
 88.5 220 175.5 191 213.5 191 c 0
 238.5 191 267.5 205 267.5 238 c 0xea
 267.5 278 224.5 310 172.5 310 c 0
172.5 341 m 0
 233.5 341 300.5 307 300.5 238 c 0xea
 300.5 212 290.5 197 281.5 186 c 0
 273.5 177 268.5 171 268.5 164 c 0
 268.5 157 271.5 151 278.5 144 c 0
 292.5 129 312.5 111 312.5 76 c 0
 312.5 9 255.5 -35 168.5 -35 c 0
 97.5 -35 27.5 -2 27.5 63 c 0xf4
 27.5 100 44.5 118 58.5 131 c 0
 67.5 139 72.5 145 72.5 152 c 0
 72.5 159 65.5 166 56.5 178 c 0
 45.5 191 34.5 209 34.5 236 c 0
 34.5 310 99.5 341 172.5 341 c 0
EndSplineSet
EndChar

StartChar: ograve
Encoding: 242 242 195
Width: 0
VWidth: 1750
Flags: HW
LayerCount: 2
Fore
SplineSet
170 941 m 0
 170 909 140 892 116 880 c 0
 95 869 70 860 50 849 c 0
 19 832 33 822 50 809 c 0
 63 799 77 791 91 791 c 0
 111 791 123 812 133 828 c 0
 137 834 140 837 146 837 c 0
 151 837 153 833 153 829 c 0
 153 826 152 821 149 815 c 0
 136 781 112 741 68 741 c 0
 41 741 25 786 -1 786 c 0
 -13 786 -20 780 -25 769 c 0
 -30 757 -31 750 -40 750 c 0
 -46 750 -50 754 -50 760 c 0
 -50 805 -10 848 60 881 c 0
 96 898 123 925 123 949 c 0
 123 978 98 990 75 990 c 0
 55 990 33 982 33 968 c 0
 33 955 50 951 50 931 c 0
 50 916 40 905 20 905 c 0
 2 905 -9 924 -9 942 c 0
 -9 982 32 1014 81 1014 c 0
 123 1014 170 997 170 941 c 0
EndSplineSet
EndChar

StartChar: oacute
Encoding: 243 243 196
Width: 0
VWidth: 1750
Flags: HW
HStem: 741 24<-82.0233 -22.2172> 873 24<-57.2207 -3.69498> 993 21<-24.5399 33.6872>
VStem: -130.5 48<765.558 819.026> -69.5 43<938.938 992.009> 3.5 50<780.463 870.578> 42.5 48<911.911 990.617>
LayerCount: 2
Fore
SplineSet
-98 835 m 0xfc
 -80 835 -70 823 -70 806 c 0
 -70 789 -82 786 -82 777 c 0
 -82 769 -72 765 -60 765 c 0
 -14 765 4 800 4 840 c 0xfc
 4 864 -10 873 -40 873 c 0
 -50 873 -58 875 -58 882 c 0
 -58 892 -50 897 -40 897 c 0
 12 897 42 914 42 960 c 0
 42 982 26 993 6 993 c 0
 -8 993 -26 989 -26 977 c 0
 -26 967 -20 964 -20 949 c 0
 -20 937 -30 928 -44 928 c 0
 -60 928 -70 938 -70 954 c 0
 -70 989 -28 1014 8 1014 c 0
 50 1014 90 994 90 954 c 0
 90 929 76 907 50 892 c 0
 44 888 32 885 32 876 c 0
 32 868 38 862 42 857 c 0xfa
 50 846 54 835 54 821 c 0
 54 806 46 792 38 782 c 0
 16 752 -20 741 -54 741 c 0
 -94 741 -130 760 -130 800 c 0
 -130 819 -116 835 -98 835 c 0xfc
EndSplineSet
EndChar

StartChar: ocircumflex
Encoding: 244 244 197
Width: 0
VWidth: 1750
Flags: HW
LayerCount: 2
Fore
SplineSet
142 762 m 0
 142 753 137 750 128 750 c 0
 6 750 l 0
 0 750 -4 753 -4 759 c 0
 -4 768 1 774 13 775 c 0
 32 776 42 771 50 795 c 0
 54 807 l 0
 57 817 50 821 44 821 c 0
 -39 821 l 0
 -46 821 -50 825 -50 830 c 0
 -50 840 -45 843 -36 853 c 0
 4 896 39 954 55 996 c 0
 58 1005 64 1009 70 1009 c 0
 84 1009 83 1005 97 1005 c 0
 112 1005 116 1009 126 1009 c 0
 130 1009 135 1007 135 999 c 0
 135 989 123 975 88 939 c 0
 64 915 38 891 10 866 c 0
 -1 856 -4 846 15 846 c 0
 44 846 l 0
 63 846 68 854 71 865 c 0
 73 871 l 0
 77 883 84 888 92 895 c 0
 119 922 l 0
 131 933 141 928 137 914 c 0
 122 864 l 0
 119 854 125 846 133 846 c 0
 158 846 l 0
 166 846 170 841 170 836 c 0
 170 826 164 821 156 821 c 0
 126 821 l 0
 115 821 108 818 105 808 c 0
 101 793 l 0
 98 783 103 776 116 775 c 0
 130 774 l 0
 137 773 142 769 142 762 c 0
EndSplineSet
EndChar

